Kazmann Sans One.ufo
<glyph name="exclam" format="1">
  <advance width="160"/>
  <unicode hex="0021"/>
  <outline>
    <contour>
      <point x="50" y="15" type="line" smooth="yes" name="hr00"/>
      <point x="50" y="5"/>
      <point x="55" y="0"/>
      <point x="65" y="0" type="curve" smooth="yes"/>
      <point x="95" y="0" type="line" smooth="yes"/>
      <point x="105" y="0"/>
      <point x="110" y="5"/>
      <point x="110" y="15" type="curve" smooth="yes"/>
      <point x="110" y="45" type="line" smooth="yes"/>
      <point x="110" y="55"/>
      <point x="105" y="60"/>
      <point x="95" y="60" type="curve" smooth="yes"/>
      <point x="65" y="60" type="line" smooth="yes"/>
      <point x="55" y="60"/>
      <point x="50" y="55"/>
      <point x="50" y="45" type="curve" smooth="yes"/>
    </contour>
    <contour>
      <point x="50" y="155" type="line" smooth="yes"/>
      <point x="50" y="145"/>
      <point x="55" y="140"/>
      <point x="65" y="140" type="curve" smooth="yes"/>
      <point x="95" y="140" type="line" smooth="yes"/>
      <point x="105" y="140"/>
      <point x="110" y="145"/>
      <point x="110" y="155" type="curve"/>
      <point x="110" y="685" type="line" smooth="yes"/>
      <point x="110" y="695"/>
      <point x="105" y="700"/>
      <point x="95" y="700" type="curve" smooth="yes"/>
      <point x="65" y="700" type="line" smooth="yes"/>
      <point x="55" y="700"/>
      <point x="50" y="695"/>
      <point x="50" y="685" type="curve" smooth="yes"/>
    </contour>
  </outline>
</glyph>
<glyph name="quotedbl" format="1">
  <advance width="250"/>
  <unicode hex="0022"/>
  <outline>
    <contour>
      <point x="40" y="515" type="line" smooth="yes" name="hr00"/>
      <point x="40" y="505"/>
      <point x="45" y="500"/>
      <point x="55" y="500" type="curve" smooth="yes"/>
      <point x="85" y="500" type="line" smooth="yes"/>
      <point x="95" y="500"/>
      <point x="100" y="505"/>
      <point x="100" y="515" type="curve" smooth="yes"/>
      <point x="100" y="685" type="line" smooth="yes"/>
      <point x="100" y="695"/>
      <point x="95" y="700"/>
      <point x="85" y="700" type="curve" smooth="yes"/>
      <point x="55" y="700" type="line" smooth="yes"/>
      <point x="45" y="700"/>
      <point x="40" y="695"/>
      <point x="40" y="685" type="curve" smooth="yes"/>
    </contour>
    <contour>
      <point x="150" y="515" type="line" smooth="yes"/>
      <point x="150" y="505"/>
      <point x="155" y="500"/>
      <point x="165" y="500" type="curve" smooth="yes"/>
      <point x="195" y="500" type="line" smooth="yes"/>
      <point x="205" y="500"/>
      <point x="210" y="505"/>
      <point x="210" y="515" type="curve" smooth="yes"/>
      <point x="210" y="685" type="line" smooth="yes"/>
      <point x="210" y="695"/>
      <point x="205" y="700"/>
      <point x="195" y="700" type="curve" smooth="yes"/>
      <point x="165" y="700" type="line" smooth="yes"/>
      <point x="155" y="700"/>
      <point x="150" y="695"/>
      <point x="150" y="685" type="curve" smooth="yes"/>
    </contour>
  </outline>
</glyph>
<glyph name="numbersign" format="1">
  <advance width="400"/>
  <unicode hex="0023"/>
  <outline>
    <contour>
      <point x="200" y="15" type="line" smooth="yes" name="hr00"/>
      <point x="199" y="5"/>
      <point x="205" y="0"/>
      <point x="215" y="0" type="curve" smooth="yes"/>
      <point x="245" y="0" type="line" smooth="yes"/>
      <point x="255" y="0"/>
      <point x="259" y="5"/>
      <point x="260" y="15" type="curve" smooth="yes"/>
      <point x="285" y="210" type="line"/>
      <point x="345" y="210" type="line" smooth="yes"/>
      <point x="355" y="210"/>
      <point x="360" y="215"/>
      <point x="360" y="225" type="curve" smooth="yes"/>
      <point x="360" y="255" type="line" smooth="yes"/>
      <point x="360" y="265"/>
      <point x="355" y="270"/>
      <point x="345" y="270" type="curve" smooth="yes"/>
      <point x="290" y="270" type="line"/>
      <point x="310" y="430" type="line"/>
      <point x="375" y="430" type="line" smooth="yes"/>
      <point x="385" y="430"/>
      <point x="390" y="435"/>
      <point x="390" y="445" type="curve" smooth="yes"/>
      <point x="390" y="475" type="line" smooth="yes"/>
      <point x="390" y="485"/>
      <point x="385" y="490"/>
      <point x="375" y="490" type="curve" smooth="yes"/>
      <point x="315" y="490" type="line"/>
      <point x="340" y="685" type="line" smooth="yes"/>
      <point x="341" y="695"/>
      <point x="335" y="700"/>
      <point x="325" y="700" type="curve" smooth="yes"/>
      <point x="295" y="700" type="line" smooth="yes"/>
      <point x="285" y="700"/>
      <point x="281" y="695"/>
      <point x="280" y="685" type="curve" smooth="yes"/>
      <point x="255" y="490" type="line"/>
      <point x="175" y="490" type="line"/>
      <point x="200" y="685" type="line" smooth="yes"/>
      <point x="201" y="695"/>
      <point x="195" y="700"/>
      <point x="185" y="700" type="curve" smooth="yes"/>
      <point x="155" y="700" type="line" smooth="yes"/>
      <point x="145" y="700"/>
      <point x="141" y="695"/>
      <point x="140" y="685" type="curve" smooth="yes"/>
      <point x="115" y="490" type="line"/>
      <point x="55" y="490" type="line" smooth="yes"/>
      <point x="45" y="490"/>
      <point x="40" y="485"/>
      <point x="40" y="475" type="curve" smooth="yes"/>
      <point x="40" y="445" type="line" smooth="yes"/>
      <point x="40" y="435"/>
      <point x="45" y="430"/>
      <point x="55" y="430" type="curve" smooth="yes"/>
      <point x="110" y="430" type="line"/>
      <point x="90" y="270" type="line"/>
      <point x="25" y="270" type="line" smooth="yes"/>
      <point x="15" y="270"/>
      <point x="10" y="265"/>
      <point x="10" y="255" type="curve" smooth="yes"/>
      <point x="10" y="225" type="line" smooth="yes"/>
      <point x="10" y="215"/>
      <point x="15" y="210"/>
      <point x="25" y="210" type="curve" smooth="yes"/>
      <point x="85" y="210" type="line"/>
      <point x="60" y="15" type="line" smooth="yes"/>
      <point x="59" y="5"/>
      <point x="65" y="0"/>
      <point x="75" y="0" type="curve" smooth="yes"/>
      <point x="105" y="0" type="line" smooth="yes"/>
      <point x="115" y="0"/>
      <point x="119" y="5"/>
      <point x="120" y="15" type="curve" smooth="yes"/>
      <point x="145" y="210" type="line"/>
      <point x="225" y="210" type="line"/>
    </contour>
    <contour>
      <point x="170" y="430" type="line"/>
      <point x="250" y="430" type="line"/>
      <point x="230" y="270" type="line"/>
      <point x="150" y="270" type="line"/>
    </contour>
  </outline>
</glyph>
<glyph name="dollar" format="1">
  <advance width="300"/>
  <unicode hex="0024"/>
  <outline>
    <contour>
      <point x="120" y="-35" type="line" smooth="yes" name="hr00"/>
      <point x="120" y="-45"/>
      <point x="125" y="-50"/>
      <point x="135" y="-50" type="curve" smooth="yes"/>
      <point x="165" y="-50" type="line" smooth="yes"/>
      <point x="175" y="-50"/>
      <point x="180" y="-45"/>
      <point x="180" y="-35" type="curve" smooth="yes"/>
      <point x="180" y="0" type="line"/>
      <point x="200" y="0" type="line" smooth="yes"/>
      <point x="235" y="0"/>
      <point x="260" y="25"/>
      <point x="260" y="60" type="curve" smooth="yes"/>
      <point x="260" y="270" type="line" smooth="yes"/>
      <point x="260" y="320"/>
      <point x="240" y="342"/>
      <point x="220" y="360" type="curve" smooth="yes"/>
      <point x="120" y="450" type="line" smooth="yes"/>
      <point x="110" y="459"/>
      <point x="100" y="470"/>
      <point x="100" y="500" type="curve" smooth="yes"/>
      <point x="100" y="625" type="line" smooth="yes"/>
      <point x="100" y="635"/>
      <point x="105" y="640"/>
      <point x="115" y="640" type="curve" smooth="yes"/>
      <point x="185" y="640" type="line" smooth="yes"/>
      <point x="195" y="640"/>
      <point x="200" y="635"/>
      <point x="200" y="625" type="curve" smooth="yes"/>
      <point x="200" y="530" type="line" smooth="yes"/>
      <point x="200" y="520"/>
      <point x="205" y="515"/>
      <point x="215" y="515" type="curve" smooth="yes"/>
      <point x="245" y="515" type="line" smooth="yes"/>
      <point x="255" y="515"/>
      <point x="260" y="520"/>
      <point x="260" y="530" type="curve" smooth="yes"/>
      <point x="260" y="640" type="line" smooth="yes"/>
      <point x="260" y="675"/>
      <point x="235" y="700"/>
      <point x="200" y="700" type="curve" smooth="yes"/>
      <point x="180" y="700" type="line"/>
      <point x="180" y="735" type="line" smooth="yes"/>
      <point x="180" y="745"/>
      <point x="175" y="750"/>
      <point x="165" y="750" type="curve" smooth="yes"/>
      <point x="135" y="750" type="line" smooth="yes"/>
      <point x="125" y="750"/>
      <point x="120" y="745"/>
      <point x="120" y="735" type="curve" smooth="yes"/>
      <point x="120" y="700" type="line"/>
      <point x="100" y="700" type="line" smooth="yes"/>
      <point x="65" y="700"/>
      <point x="40" y="675"/>
      <point x="40" y="640" type="curve" smooth="yes"/>
      <point x="40" y="490" type="line" smooth="yes"/>
      <point x="40" y="440"/>
      <point x="60" y="418"/>
      <point x="80" y="400" type="curve" smooth="yes"/>
      <point x="180" y="310" type="line" smooth="yes"/>
      <point x="190" y="301"/>
      <point x="200" y="290"/>
      <point x="200" y="260" type="curve" smooth="yes"/>
      <point x="200" y="75" type="line" smooth="yes"/>
      <point x="200" y="65"/>
      <point x="195" y="60"/>
      <point x="185" y="60" type="curve" smooth="yes"/>
      <point x="115" y="60" type="line" smooth="yes"/>
      <point x="105" y="60"/>
      <point x="100" y="65"/>
      <point x="100" y="75" type="curve" smooth="yes"/>
      <point x="100" y="175" type="line" smooth="yes"/>
      <point x="100" y="185"/>
      <point x="95" y="190"/>
      <point x="85" y="190" type="curve" smooth="yes"/>
      <point x="55" y="190" type="line" smooth="yes"/>
      <point x="45" y="190"/>
      <point x="40" y="185"/>
      <point x="40" y="175" type="curve" smooth="yes"/>
      <point x="40" y="60" type="line" smooth="yes"/>
      <point x="40" y="25"/>
      <point x="65" y="0"/>
      <point x="100" y="0" type="curve" smooth="yes"/>
      <point x="120" y="0" type="line"/>
    </contour>
  </outline>
</glyph>
<glyph name="percent" format="1">
  <advance width="640"/>
  <unicode hex="0025"/>
  <outline>
    <contour>
      <point x="100" y="625" type="line" smooth="yes" name="hr00"/>
      <point x="100" y="634"/>
      <point x="103" y="640"/>
      <point x="115" y="640" type="curve" smooth="yes"/>
      <point x="160" y="640" type="line" smooth="yes"/>
      <point x="172" y="640"/>
      <point x="175" y="634"/>
      <point x="175" y="625" type="curve" smooth="yes"/>
      <point x="175" y="375" type="line" smooth="yes"/>
      <point x="175" y="366"/>
      <point x="172" y="360"/>
      <point x="160" y="360" type="curve" smooth="yes"/>
      <point x="115" y="360" type="line" smooth="yes"/>
      <point x="103" y="360"/>
      <point x="100" y="366"/>
      <point x="100" y="375" type="curve" smooth="yes"/>
    </contour>
    <contour>
      <point x="435" y="685" type="line" smooth="yes"/>
      <point x="438" y="695"/>
      <point x="435" y="700"/>
      <point x="425" y="700" type="curve" smooth="yes"/>
      <point x="395" y="700" type="line" smooth="yes"/>
      <point x="385" y="700"/>
      <point x="378" y="695"/>
      <point x="375" y="685" type="curve" smooth="yes"/>
      <point x="205" y="15" type="line" smooth="yes"/>
      <point x="202" y="5"/>
      <point x="205" y="0"/>
      <point x="215" y="0" type="curve" smooth="yes"/>
      <point x="245" y="0" type="line" smooth="yes"/>
      <point x="255" y="0"/>
      <point x="262" y="5"/>
      <point x="265" y="15" type="curve" smooth="yes"/>
    </contour>
    <contour>
      <point x="40" y="360" type="line" smooth="yes"/>
      <point x="40" y="325"/>
      <point x="65" y="300"/>
      <point x="100" y="300" type="curve" smooth="yes"/>
      <point x="175" y="300" type="line" smooth="yes"/>
      <point x="210" y="300"/>
      <point x="235" y="325"/>
      <point x="235" y="360" type="curve" smooth="yes"/>
      <point x="235" y="640" type="line" smooth="yes"/>
      <point x="235" y="675"/>
      <point x="210" y="700"/>
      <point x="175" y="700" type="curve" smooth="yes"/>
      <point x="100" y="700" type="line" smooth="yes"/>
      <point x="65" y="700"/>
      <point x="40" y="675"/>
      <point x="40" y="640" type="curve" smooth="yes"/>
    </contour>
    <contour>
      <point x="465" y="325" type="line" smooth="yes"/>
      <point x="465" y="334"/>
      <point x="468" y="340"/>
      <point x="480" y="340" type="curve" smooth="yes"/>
      <point x="525" y="340" type="line" smooth="yes"/>
      <point x="537" y="340"/>
      <point x="540" y="334"/>
      <point x="540" y="325" type="curve" smooth="yes"/>
      <point x="540" y="75" type="line" smooth="yes"/>
      <point x="540" y="66"/>
      <point x="537" y="60"/>
      <point x="525" y="60" type="curve" smooth="yes"/>
      <point x="480" y="60" type="line" smooth="yes"/>
      <point x="468" y="60"/>
      <point x="465" y="66"/>
      <point x="465" y="75" type="curve" smooth="yes"/>
    </contour>
    <contour>
      <point x="405" y="60" type="line" smooth="yes"/>
      <point x="405" y="25"/>
      <point x="430" y="0"/>
      <point x="465" y="0" type="curve" smooth="yes"/>
      <point x="540" y="0" type="line" smooth="yes"/>
      <point x="575" y="0"/>
      <point x="600" y="25"/>
      <point x="600" y="60" type="curve" smooth="yes"/>
      <point x="600" y="340" type="line" smooth="yes"/>
      <point x="600" y="375"/>
      <point x="575" y="400"/>
      <point x="540" y="400" type="curve" smooth="yes"/>
      <point x="465" y="400" type="line" smooth="yes"/>
      <point x="430" y="400"/>
      <point x="405" y="375"/>
      <point x="405" y="340" type="curve" smooth="yes"/>
    </contour>
  </outline>
</glyph>
<glyph name="ampersand" format="1">
  <advance width="392"/>
  <unicode hex="0026"/>
  <outline>
    <contour>
      <point x="370" y="295" type="line" smooth="yes" name="hr00"/>
      <point x="374" y="305"/>
      <point x="370" y="310"/>
      <point x="360" y="310" type="curve" smooth="yes"/>
      <point x="330" y="310" type="line" smooth="yes"/>
      <point x="320" y="310"/>
      <point x="314" y="305"/>
      <point x="310" y="295" type="curve"/>
      <point x="285" y="220" type="line"/>
      <point x="210" y="390" type="line"/>
      <point x="230" y="390" type="line" smooth="yes"/>
      <point x="265" y="390"/>
      <point x="290" y="415"/>
      <point x="290" y="450" type="curve" smooth="yes"/>
      <point x="290" y="640" type="line" smooth="yes"/>
      <point x="290" y="675"/>
      <point x="265" y="700"/>
      <point x="230" y="700" type="curve" smooth="yes"/>
      <point x="150" y="700" type="line" smooth="yes"/>
      <point x="115" y="700"/>
      <point x="90" y="675"/>
      <point x="90" y="640" type="curve" smooth="yes"/>
      <point x="90" y="555" type="line" smooth="yes"/>
      <point x="90" y="530"/>
      <point x="105" y="500"/>
      <point x="105" y="500" type="curve"/>
      <point x="125" y="450" type="line"/>
      <point x="120" y="450" type="line" smooth="yes"/>
      <point x="85" y="450"/>
      <point x="60" y="425"/>
      <point x="60" y="390" type="curve" smooth="yes"/>
      <point x="60" y="60" type="line" smooth="yes"/>
      <point x="60" y="25"/>
      <point x="85" y="0"/>
      <point x="120" y="0" type="curve" smooth="yes"/>
      <point x="210" y="0" type="line" smooth="yes"/>
      <point x="250" y="0"/>
      <point x="272" y="20"/>
      <point x="280" y="50" type="curve" smooth="yes"/>
      <point x="285" y="70" type="line"/>
      <point x="310" y="15" type="line"/>
      <point x="313" y="5"/>
      <point x="320" y="0"/>
      <point x="330" y="0" type="curve" smooth="yes"/>
      <point x="360" y="0" type="line" smooth="yes"/>
      <point x="370" y="0"/>
      <point x="374" y="5"/>
      <point x="370" y="15" type="curve" smooth="yes"/>
      <point x="315" y="145" type="line"/>
    </contour>
    <contour>
      <point x="230" y="75" type="line"/>
      <point x="225" y="65"/>
      <point x="220" y="60"/>
      <point x="210" y="60" type="curve" smooth="yes"/>
      <point x="135" y="60" type="line" smooth="yes"/>
      <point x="125" y="60"/>
      <point x="120" y="65"/>
      <point x="120" y="75" type="curve" smooth="yes"/>
      <point x="120" y="375" type="line" smooth="yes"/>
      <point x="120" y="385"/>
      <point x="125" y="390"/>
      <point x="135" y="390" type="curve" smooth="yes"/>
      <point x="150" y="390" type="line"/>
      <point x="255" y="145" type="line"/>
    </contour>
    <contour>
      <point x="185" y="450" type="line"/>
      <point x="160" y="510" type="line"/>
      <point x="160" y="510"/>
      <point x="150" y="530"/>
      <point x="150" y="545" type="curve" smooth="yes"/>
      <point x="150" y="625" type="line" smooth="yes"/>
      <point x="150" y="635"/>
      <point x="155" y="640"/>
      <point x="165" y="640" type="curve" smooth="yes"/>
      <point x="215" y="640" type="line" smooth="yes"/>
      <point x="225" y="640"/>
      <point x="230" y="635"/>
      <point x="230" y="625" type="curve" smooth="yes"/>
      <point x="230" y="465" type="line" smooth="yes"/>
      <point x="230" y="455"/>
      <point x="225" y="450"/>
      <point x="215" y="450" type="curve" smooth="yes"/>
    </contour>
  </outline>
</glyph>
<glyph name="parenleft" format="1">
  <advance width="200"/>
  <unicode hex="0028"/>
  <outline>
    <contour>
      <point x="60" y="-100" type="line" smooth="yes" name="hr00"/>
      <point x="60" y="-135"/>
      <point x="85" y="-160"/>
      <point x="120" y="-160" type="curve" smooth="yes"/>
      <point x="165" y="-160" type="line" smooth="yes"/>
      <point x="175" y="-160"/>
      <point x="180" y="-155"/>
      <point x="180" y="-145" type="curve" smooth="yes"/>
      <point x="180" y="-115" type="line" smooth="yes"/>
      <point x="180" y="-105"/>
      <point x="175" y="-100"/>
      <point x="165" y="-100" type="curve" smooth="yes"/>
      <point x="135" y="-100" type="line" smooth="yes"/>
      <point x="125" y="-100"/>
      <point x="120" y="-95"/>
      <point x="120" y="-85" type="curve" smooth="yes"/>
      <point x="120" y="625" type="line" smooth="yes"/>
      <point x="120" y="635"/>
      <point x="125" y="640"/>
      <point x="135" y="640" type="curve" smooth="yes"/>
      <point x="165" y="640" type="line" smooth="yes"/>
      <point x="175" y="640"/>
      <point x="180" y="645"/>
      <point x="180" y="655" type="curve" smooth="yes"/>
      <point x="180" y="685" type="line" smooth="yes"/>
      <point x="180" y="695"/>
      <point x="175" y="700"/>
      <point x="165" y="700" type="curve" smooth="yes"/>
      <point x="120" y="700" type="line" smooth="yes"/>
      <point x="85" y="700"/>
      <point x="60" y="675"/>
      <point x="60" y="640" type="curve" smooth="yes"/>
    </contour>
  </outline>
</glyph>
<glyph name="parenright" format="1">
  <advance width="200"/>
  <unicode hex="0029"/>
  <outline>
    <contour>
      <point x="140" y="640" type="line" name="hr00"/>
      <point x="140" y="675"/>
      <point x="115" y="700"/>
      <point x="80" y="700" type="curve" smooth="yes"/>
      <point x="35" y="700" type="line" smooth="yes"/>
      <point x="25" y="700"/>
      <point x="20" y="695"/>
      <point x="20" y="685" type="curve" smooth="yes"/>
      <point x="20" y="655" type="line" smooth="yes"/>
      <point x="20" y="645"/>
      <point x="25" y="640"/>
      <point x="35" y="640" type="curve" smooth="yes"/>
      <point x="65" y="640" type="line" smooth="yes"/>
      <point x="75" y="640"/>
      <point x="80" y="635"/>
      <point x="80" y="625" type="curve" smooth="yes"/>
      <point x="80" y="-85" type="line" smooth="yes"/>
      <point x="80" y="-95"/>
      <point x="75" y="-100"/>
      <point x="65" y="-100" type="curve" smooth="yes"/>
      <point x="35" y="-100" type="line" smooth="yes"/>
      <point x="25" y="-100"/>
      <point x="20" y="-105"/>
      <point x="20" y="-115" type="curve" smooth="yes"/>
      <point x="20" y="-145" type="line" smooth="yes"/>
      <point x="20" y="-155"/>
      <point x="25" y="-160"/>
      <point x="35" y="-160" type="curve" smooth="yes"/>
      <point x="80" y="-160" type="line" smooth="yes"/>
      <point x="115" y="-160"/>
      <point x="140" y="-135"/>
      <point x="140" y="-100" type="curve" smooth="yes"/>
    </contour>
  </outline>
</glyph>
<glyph name="asterisk" format="1">
  <advance width="316"/>
  <unicode hex="002A"/>
  <outline>
    <contour>
      <point x="168" y="420" type="line" smooth="yes" name="hr00"/>
      <point x="178" y="420"/>
      <point x="183" y="425"/>
      <point x="183" y="435" type="curve" smooth="yes"/>
      <point x="183" y="515" type="line"/>
      <point x="253" y="475" type="line" smooth="yes"/>
      <point x="263" y="470"/>
      <point x="267" y="471"/>
      <point x="273" y="480" type="curve"/>
      <point x="283" y="500" type="line" smooth="yes"/>
      <point x="289" y="510"/>
      <point x="283" y="514"/>
      <point x="273" y="520" type="curve" smooth="yes"/>
      <point x="203" y="560" type="line"/>
      <point x="273" y="600" type="line" smooth="yes"/>
      <point x="283" y="606"/>
      <point x="289" y="610"/>
      <point x="283" y="620" type="curve" smooth="yes"/>
      <point x="273" y="640" type="line"/>
      <point x="267" y="649"/>
      <point x="263" y="650"/>
      <point x="253" y="645" type="curve" smooth="yes"/>
      <point x="183" y="605" type="line"/>
      <point x="183" y="685" type="line" smooth="yes"/>
      <point x="183" y="695"/>
      <point x="178" y="700"/>
      <point x="168" y="700" type="curve" smooth="yes"/>
      <point x="148" y="700" type="line"/>
      <point x="138" y="700"/>
      <point x="133" y="695"/>
      <point x="133" y="685" type="curve" smooth="yes"/>
      <point x="133" y="605" type="line"/>
      <point x="63" y="645" type="line" smooth="yes"/>
      <point x="53" y="650"/>
      <point x="49" y="649"/>
      <point x="43" y="640" type="curve"/>
      <point x="33" y="620" type="line" smooth="yes"/>
      <point x="27" y="610"/>
      <point x="33" y="606"/>
      <point x="43" y="600" type="curve" smooth="yes"/>
      <point x="113" y="560" type="line"/>
      <point x="43" y="520" type="line" smooth="yes"/>
      <point x="33" y="514"/>
      <point x="27" y="510"/>
      <point x="33" y="500" type="curve" smooth="yes"/>
      <point x="43" y="480" type="line"/>
      <point x="49" y="471"/>
      <point x="53" y="470"/>
      <point x="63" y="475" type="curve" smooth="yes"/>
      <point x="133" y="515" type="line"/>
      <point x="133" y="435" type="line" smooth="yes"/>
      <point x="133" y="425"/>
      <point x="138" y="420"/>
      <point x="148" y="420" type="curve"/>
    </contour>
  </outline>
</glyph>
<glyph name="plus" format="1">
  <advance width="320"/>
  <unicode hex="002B"/>
  <outline>
    <contour>
      <point x="190" y="240" type="line" name="hr00"/>
      <point x="285" y="240" type="line" smooth="yes"/>
      <point x="295" y="240"/>
      <point x="300" y="245"/>
      <point x="300" y="255" type="curve" smooth="yes"/>
      <point x="300" y="285" type="line" smooth="yes"/>
      <point x="300" y="295"/>
      <point x="295" y="300"/>
      <point x="285" y="300" type="curve" smooth="yes"/>
      <point x="190" y="300" type="line"/>
      <point x="190" y="405" type="line" smooth="yes"/>
      <point x="190" y="415"/>
      <point x="185" y="420"/>
      <point x="175" y="420" type="curve" smooth="yes"/>
      <point x="145" y="420" type="line" smooth="yes"/>
      <point x="135" y="420"/>
      <point x="130" y="415"/>
      <point x="130" y="405" type="curve" smooth="yes"/>
      <point x="130" y="300" type="line"/>
      <point x="35" y="300" type="line" smooth="yes"/>
      <point x="25" y="300"/>
      <point x="20" y="295"/>
      <point x="20" y="285" type="curve" smooth="yes"/>
      <point x="20" y="255" type="line" smooth="yes"/>
      <point x="20" y="245"/>
      <point x="25" y="240"/>
      <point x="35" y="240" type="curve" smooth="yes"/>
      <point x="130" y="240" type="line"/>
      <point x="130" y="135" type="line" smooth="yes"/>
      <point x="130" y="125"/>
      <point x="135" y="120"/>
      <point x="145" y="120" type="curve" smooth="yes"/>
      <point x="175" y="120" type="line" smooth="yes"/>
      <point x="185" y="120"/>
      <point x="190" y="125"/>
      <point x="190" y="135" type="curve" smooth="yes"/>
    </contour>
  </outline>
</glyph>
<glyph name="period" format="1">
  <advance width="100"/>
  <unicode hex="002E"/>
  <outline>
    <contour>
      <point x="20" y="15" type="line" smooth="yes" name="hr00"/>
      <point x="20" y="5"/>
      <point x="25" y="0"/>
      <point x="35" y="0" type="curve" smooth="yes"/>
      <point x="65" y="0" type="line" smooth="yes"/>
      <point x="75" y="0"/>
      <point x="80" y="5"/>
      <point x="80" y="15" type="curve" smooth="yes"/>
      <point x="80" y="45" type="line" smooth="yes"/>
      <point x="80" y="55"/>
      <point x="75" y="60"/>
      <point x="65" y="60" type="curve" smooth="yes"/>
      <point x="35" y="60" type="line" smooth="yes"/>
      <point x="25" y="60"/>
      <point x="20" y="55"/>
      <point x="20" y="45" type="curve" smooth="yes"/>
    </contour>
  </outline>
</glyph>
<glyph name="slash" format="1">
  <advance width="274"/>
  <unicode hex="002F"/>
  <outline>
    <contour>
      <point x="252" y="685" type="line" name="hr00"/>
      <point x="255" y="695"/>
      <point x="252" y="700"/>
      <point x="242" y="700" type="curve" smooth="yes"/>
      <point x="212" y="700" type="line" smooth="yes"/>
      <point x="202" y="700"/>
      <point x="195" y="695"/>
      <point x="192" y="685" type="curve" smooth="yes"/>
      <point x="22" y="15" type="line" smooth="yes"/>
      <point x="19" y="5"/>
      <point x="22" y="0"/>
      <point x="32" y="0" type="curve" smooth="yes"/>
      <point x="62" y="0" type="line" smooth="yes"/>
      <point x="72" y="0"/>
      <point x="79" y="5"/>
      <point x="82" y="15" type="curve" smooth="yes"/>
    </contour>
  </outline>
</glyph>
<glyph name="one" format="1">
  <advance width="200"/>
  <unicode hex="0031"/>
  <outline>
    <contour>
      <point x="150" y="685" type="line" smooth="yes" name="hr00"/>
      <point x="150" y="695"/>
      <point x="145" y="700"/>
      <point x="135" y="700" type="curve" smooth="yes"/>
      <point x="35" y="700" type="line" smooth="yes"/>
      <point x="25" y="700"/>
      <point x="20" y="695"/>
      <point x="20" y="685" type="curve" smooth="yes"/>
      <point x="20" y="655" type="line" smooth="yes"/>
      <point x="20" y="645"/>
      <point x="25" y="640"/>
      <point x="35" y="640" type="curve" smooth="yes"/>
      <point x="90" y="640" type="line"/>
      <point x="90" y="15" type="line" smooth="yes"/>
      <point x="90" y="5"/>
      <point x="95" y="0"/>
      <point x="105" y="0" type="curve" smooth="yes"/>
      <point x="135" y="0" type="line" smooth="yes"/>
      <point x="145" y="0"/>
      <point x="150" y="5"/>
      <point x="150" y="15" type="curve" smooth="yes"/>
    </contour>
  </outline>
</glyph>
<glyph name="two" format="1">
  <advance width="300"/>
  <unicode hex="0032"/>
  <outline>
    <contour>
      <point x="260" y="640" type="line" smooth="yes" name="hr00"/>
      <point x="260" y="675"/>
      <point x="235" y="700"/>
      <point x="200" y="700" type="curve" smooth="yes"/>
      <point x="100" y="700" type="line" smooth="yes"/>
      <point x="65" y="700"/>
      <point x="40" y="675"/>
      <point x="40" y="640" type="curve" smooth="yes"/>
      <point x="40" y="530" type="line" smooth="yes"/>
      <point x="40" y="520"/>
      <point x="45" y="515"/>
      <point x="55" y="515" type="curve" smooth="yes"/>
      <point x="85" y="515" type="line" smooth="yes"/>
      <point x="95" y="515"/>
      <point x="100" y="520"/>
      <point x="100" y="530" type="curve" smooth="yes"/>
      <point x="100" y="625" type="line" smooth="yes"/>
      <point x="100" y="635"/>
      <point x="105" y="640"/>
      <point x="115" y="640" type="curve" smooth="yes"/>
      <point x="185" y="640" type="line" smooth="yes"/>
      <point x="195" y="640"/>
      <point x="200" y="635"/>
      <point x="200" y="625" type="curve" smooth="yes"/>
      <point x="200" y="450" type="line" smooth="yes"/>
      <point x="200" y="420"/>
      <point x="190" y="409"/>
      <point x="180" y="400" type="curve" smooth="yes"/>
      <point x="80" y="310" type="line" smooth="yes"/>
      <point x="60" y="292"/>
      <point x="40" y="270"/>
      <point x="40" y="220" type="curve" smooth="yes"/>
      <point x="40" y="15" type="line" smooth="yes"/>
      <point x="40" y="5"/>
      <point x="45" y="0"/>
      <point x="55" y="0" type="curve" smooth="yes"/>
      <point x="245" y="0" type="line" smooth="yes"/>
      <point x="255" y="0"/>
      <point x="260" y="5"/>
      <point x="260" y="15" type="curve" smooth="yes"/>
      <point x="260" y="45" type="line" smooth="yes"/>
      <point x="260" y="55"/>
      <point x="255" y="60"/>
      <point x="245" y="60" type="curve" smooth="yes"/>
      <point x="100" y="60" type="line"/>
      <point x="100" y="210" type="line" smooth="yes"/>
      <point x="100" y="240"/>
      <point x="110" y="251"/>
      <point x="120" y="260" type="curve" smooth="yes"/>
      <point x="220" y="350" type="line" smooth="yes"/>
      <point x="240" y="368"/>
      <point x="260" y="390"/>
      <point x="260" y="440" type="curve" smooth="yes"/>
    </contour>
  </outline>
</glyph>
<glyph name="three" format="1">
  <advance width="292"/>
  <unicode hex="0033"/>
  <outline>
    <contour>
      <point x="45" y="700" type="line" smooth="yes" name="hr00"/>
      <point x="35" y="700"/>
      <point x="30" y="695"/>
      <point x="30" y="685" type="curve" smooth="yes"/>
      <point x="30" y="655" type="line" smooth="yes"/>
      <point x="30" y="645"/>
      <point x="35" y="640"/>
      <point x="45" y="640" type="curve" smooth="yes"/>
      <point x="165" y="640" type="line"/>
      <point x="55" y="385" type="line" smooth="yes"/>
      <point x="51" y="376"/>
      <point x="55" y="370"/>
      <point x="70" y="370" type="curve" smooth="yes"/>
      <point x="175" y="370" type="line" smooth="yes"/>
      <point x="185" y="370"/>
      <point x="190" y="365"/>
      <point x="190" y="355" type="curve" smooth="yes"/>
      <point x="190" y="75" type="line" smooth="yes"/>
      <point x="190" y="65"/>
      <point x="185" y="60"/>
      <point x="175" y="60" type="curve" smooth="yes"/>
      <point x="105" y="60" type="line" smooth="yes"/>
      <point x="95" y="60"/>
      <point x="90" y="65"/>
      <point x="90" y="75" type="curve" smooth="yes"/>
      <point x="90" y="175" type="line" smooth="yes"/>
      <point x="90" y="185"/>
      <point x="85" y="190"/>
      <point x="75" y="190" type="curve" smooth="yes"/>
      <point x="45" y="190" type="line" smooth="yes"/>
      <point x="35" y="190"/>
      <point x="30" y="185"/>
      <point x="30" y="175" type="curve" smooth="yes"/>
      <point x="30" y="60" type="line" smooth="yes"/>
      <point x="30" y="25"/>
      <point x="55" y="0"/>
      <point x="90" y="0" type="curve" smooth="yes"/>
      <point x="190" y="0" type="line" smooth="yes"/>
      <point x="225" y="0"/>
      <point x="250" y="25"/>
      <point x="250" y="60" type="curve" smooth="yes"/>
      <point x="250" y="370" type="line" smooth="yes"/>
      <point x="250" y="405"/>
      <point x="225" y="430"/>
      <point x="190" y="430" type="curve" smooth="yes"/>
      <point x="140" y="430" type="line"/>
      <point x="250" y="685" type="line" smooth="yes"/>
      <point x="254" y="694"/>
      <point x="250" y="700"/>
      <point x="235" y="700" type="curve" smooth="yes"/>
    </contour>
  </outline>
</glyph>
<glyph name="four" format="1">
  <advance width="301"/>
  <unicode hex="0034"/>
  <outline>
    <contour>
      <point x="266" y="250" type="curve" name="hr00"/>
      <point x="241" y="250" type="line"/>
      <point x="241" y="685" type="line" smooth="yes"/>
      <point x="241" y="695"/>
      <point x="236" y="700"/>
      <point x="226" y="700" type="curve" smooth="yes"/>
      <point x="186" y="700" type="line" smooth="yes"/>
      <point x="171" y="700"/>
      <point x="165" y="695"/>
      <point x="161" y="685" type="curve"/>
      <point x="11" y="205" type="line"/>
      <point x="9" y="195"/>
      <point x="16" y="190"/>
      <point x="26" y="190" type="curve" smooth="yes"/>
      <point x="181" y="190" type="line"/>
      <point x="181" y="15" type="line" smooth="yes"/>
      <point x="181" y="5"/>
      <point x="186" y="0"/>
      <point x="196" y="0" type="curve" smooth="yes"/>
      <point x="226" y="0" type="line" smooth="yes"/>
      <point x="236" y="0"/>
      <point x="241" y="5"/>
      <point x="241" y="15" type="curve" smooth="yes"/>
      <point x="241" y="190" type="line"/>
      <point x="266" y="190" type="line" smooth="yes"/>
      <point x="276" y="190"/>
      <point x="281" y="195"/>
      <point x="281" y="205" type="curve" smooth="yes"/>
      <point x="281" y="235" type="line" smooth="yes"/>
      <point x="281" y="245"/>
      <point x="276" y="250"/>
    </contour>
    <contour>
      <point x="181" y="250" type="line"/>
      <point x="86" y="250" type="line"/>
      <point x="181" y="560" type="line"/>
    </contour>
  </outline>
</glyph>
<glyph name="five" format="1">
  <advance width="300"/>
  <unicode hex="0035"/>
  <outline>
    <contour>
      <point x="50" y="385" type="line" name="hr00"/>
      <point x="50" y="375"/>
      <point x="55" y="370"/>
      <point x="65" y="370" type="curve" smooth="yes"/>
      <point x="185" y="370" type="line" smooth="yes"/>
      <point x="195" y="370"/>
      <point x="200" y="365"/>
      <point x="200" y="355" type="curve" smooth="yes"/>
      <point x="200" y="75" type="line" smooth="yes"/>
      <point x="200" y="65"/>
      <point x="195" y="60"/>
      <point x="185" y="60" type="curve" smooth="yes"/>
      <point x="115" y="60" type="line" smooth="yes"/>
      <point x="105" y="60"/>
      <point x="100" y="65"/>
      <point x="100" y="75" type="curve" smooth="yes"/>
      <point x="100" y="175" type="line" smooth="yes"/>
      <point x="100" y="185"/>
      <point x="95" y="190"/>
      <point x="85" y="190" type="curve" smooth="yes"/>
      <point x="55" y="190" type="line" smooth="yes"/>
      <point x="45" y="190"/>
      <point x="40" y="185"/>
      <point x="40" y="175" type="curve" smooth="yes"/>
      <point x="40" y="60" type="line" smooth="yes"/>
      <point x="40" y="25"/>
      <point x="65" y="0"/>
      <point x="100" y="0" type="curve" smooth="yes"/>
      <point x="200" y="0" type="line" smooth="yes"/>
      <point x="235" y="0"/>
      <point x="260" y="25"/>
      <point x="260" y="60" type="curve" smooth="yes"/>
      <point x="260" y="370" type="line" smooth="yes"/>
      <point x="260" y="405"/>
      <point x="235" y="430"/>
      <point x="200" y="430" type="curve" smooth="yes"/>
      <point x="110" y="430" type="line"/>
      <point x="110" y="640" type="line"/>
      <point x="235" y="640" type="line" smooth="yes"/>
      <point x="245" y="640"/>
      <point x="250" y="645"/>
      <point x="250" y="655" type="curve" smooth="yes"/>
      <point x="250" y="685" type="line" smooth="yes"/>
      <point x="250" y="695"/>
      <point x="245" y="700"/>
      <point x="235" y="700" type="curve" smooth="yes"/>
      <point x="65" y="700" type="line" smooth="yes"/>
      <point x="55" y="700"/>
      <point x="50" y="695"/>
      <point x="50" y="685" type="curve" smooth="yes"/>
    </contour>
  </outline>
</glyph>
<glyph name="seven" format="1">
  <advance width="251"/>
  <unicode hex="0037"/>
  <outline>
    <contour>
      <point x="25" y="700" type="line" smooth="yes" name="hr00"/>
      <point x="15" y="700"/>
      <point x="10" y="695"/>
      <point x="10" y="685" type="curve" smooth="yes"/>
      <point x="10" y="655" type="line" smooth="yes"/>
      <point x="10" y="645"/>
      <point x="15" y="640"/>
      <point x="25" y="640" type="curve" smooth="yes"/>
      <point x="160" y="640" type="line"/>
      <point x="30" y="15" type="line" smooth="yes"/>
      <point x="28" y="5"/>
      <point x="30" y="0"/>
      <point x="40" y="0" type="curve" smooth="yes"/>
      <point x="70" y="0" type="line" smooth="yes"/>
      <point x="80" y="0"/>
      <point x="88" y="5"/>
      <point x="90" y="15" type="curve" smooth="yes"/>
      <point x="230" y="685" type="line" smooth="yes"/>
      <point x="232" y="695"/>
      <point x="225" y="700"/>
      <point x="215" y="700" type="curve" smooth="yes"/>
    </contour>
  </outline>
</glyph>
<glyph name="eight" format="1">
  <advance width="320"/>
  <unicode hex="0038"/>
  <outline>
    <contour>
      <point x="115" y="700" type="line" smooth="yes" name="hr00"/>
      <point x="80" y="700"/>
      <point x="55" y="675"/>
      <point x="55" y="640" type="curve" smooth="yes"/>
      <point x="55" y="450" type="line" smooth="yes"/>
      <point x="55" y="410"/>
      <point x="85" y="405"/>
      <point x="85" y="405" type="curve"/>
      <point x="85" y="405"/>
      <point x="45" y="400"/>
      <point x="45" y="350" type="curve" smooth="yes"/>
      <point x="45" y="60" type="line" smooth="yes"/>
      <point x="45" y="25"/>
      <point x="70" y="0"/>
      <point x="105" y="0" type="curve" smooth="yes"/>
      <point x="215" y="0" type="line" smooth="yes"/>
      <point x="250" y="0"/>
      <point x="275" y="25"/>
      <point x="275" y="60" type="curve" smooth="yes"/>
      <point x="275" y="350" type="line" smooth="yes"/>
      <point x="275" y="400"/>
      <point x="235" y="405"/>
      <point x="235" y="405" type="curve"/>
      <point x="235" y="405"/>
      <point x="265" y="410"/>
      <point x="265" y="450" type="curve" smooth="yes"/>
      <point x="265" y="640" type="line" smooth="yes"/>
      <point x="265" y="675"/>
      <point x="240" y="700"/>
      <point x="205" y="700" type="curve" smooth="yes"/>
    </contour>
    <contour>
      <point x="200" y="370" type="line" smooth="yes"/>
      <point x="210" y="370"/>
      <point x="215" y="365"/>
      <point x="215" y="355" type="curve" smooth="yes"/>
      <point x="215" y="75" type="line" smooth="yes"/>
      <point x="215" y="65"/>
      <point x="210" y="60"/>
      <point x="200" y="60" type="curve" smooth="yes"/>
      <point x="120" y="60" type="line" smooth="yes"/>
      <point x="110" y="60"/>
      <point x="105" y="65"/>
      <point x="105" y="75" type="curve" smooth="yes"/>
      <point x="105" y="355" type="line" smooth="yes"/>
      <point x="105" y="365"/>
      <point x="110" y="370"/>
      <point x="120" y="370" type="curve" smooth="yes"/>
    </contour>
    <contour>
      <point x="190" y="640" type="line" smooth="yes"/>
      <point x="200" y="640"/>
      <point x="205" y="635"/>
      <point x="205" y="625" type="curve" smooth="yes"/>
      <point x="205" y="445" type="line" smooth="yes"/>
      <point x="205" y="435"/>
      <point x="200" y="430"/>
      <point x="190" y="430" type="curve" smooth="yes"/>
      <point x="130" y="430" type="line" smooth="yes"/>
      <point x="120" y="430"/>
      <point x="115" y="435"/>
      <point x="115" y="445" type="curve" smooth="yes"/>
      <point x="115" y="625" type="line" smooth="yes"/>
      <point x="115" y="635"/>
      <point x="120" y="640"/>
      <point x="130" y="640" type="curve" smooth="yes"/>
    </contour>
  </outline>
</glyph>
<glyph name="nine" format="1">
  <advance width="310"/>
  <unicode hex="0039"/>
  <outline>
    <contour>
      <point x="40" y="350" type="line" smooth="yes" name="hr00"/>
      <point x="40" y="315"/>
      <point x="65" y="290"/>
      <point x="100" y="290" type="curve" smooth="yes"/>
      <point x="200" y="290" type="line"/>
      <point x="200" y="75" type="line" smooth="yes"/>
      <point x="200" y="65"/>
      <point x="195" y="60"/>
      <point x="185" y="60" type="curve" smooth="yes"/>
      <point x="115" y="60" type="line" smooth="yes"/>
      <point x="105" y="60"/>
      <point x="100" y="65"/>
      <point x="100" y="75" type="curve" smooth="yes"/>
      <point x="100" y="175" type="line" smooth="yes"/>
      <point x="100" y="185"/>
      <point x="95" y="190"/>
      <point x="85" y="190" type="curve" smooth="yes"/>
      <point x="55" y="190" type="line" smooth="yes"/>
      <point x="45" y="190"/>
      <point x="40" y="185"/>
      <point x="40" y="175" type="curve" smooth="yes"/>
      <point x="40" y="60" type="line" smooth="yes"/>
      <point x="40" y="25"/>
      <point x="65" y="0"/>
      <point x="100" y="0" type="curve" smooth="yes"/>
      <point x="200" y="0" type="line" smooth="yes"/>
      <point x="235" y="0"/>
      <point x="260" y="25"/>
      <point x="260" y="60" type="curve" smooth="yes"/>
      <point x="260" y="640" type="line" smooth="yes"/>
      <point x="260" y="675"/>
      <point x="235" y="700"/>
      <point x="200" y="700" type="curve" smooth="yes"/>
      <point x="100" y="700" type="line" smooth="yes"/>
      <point x="65" y="700"/>
      <point x="40" y="675"/>
      <point x="40" y="640" type="curve" smooth="yes"/>
    </contour>
    <contour>
      <point x="185" y="640" type="line" smooth="yes"/>
      <point x="195" y="640"/>
      <point x="200" y="635"/>
      <point x="200" y="625" type="curve" smooth="yes"/>
      <point x="200" y="350" type="line"/>
      <point x="115" y="350" type="line" smooth="yes"/>
      <point x="105" y="350"/>
      <point x="100" y="355"/>
      <point x="100" y="365" type="curve" smooth="yes"/>
      <point x="100" y="625" type="line" smooth="yes"/>
      <point x="100" y="635"/>
      <point x="105" y="640"/>
      <point x="115" y="640" type="curve" smooth="yes"/>
    </contour>
  </outline>
</glyph>
<glyph name="semicolon" format="1">
  <advance width="100"/>
  <unicode hex="003B"/>
  <outline>
    <contour>
      <point x="20" y="355" type="line" smooth="yes" name="hr00"/>
      <point x="20" y="345"/>
      <point x="25" y="340"/>
      <point x="35" y="340" type="curve" smooth="yes"/>
      <point x="65" y="340" type="line" smooth="yes"/>
      <point x="75" y="340"/>
      <point x="80" y="345"/>
      <point x="80" y="355" type="curve" smooth="yes"/>
      <point x="80" y="385" type="line" smooth="yes"/>
      <point x="80" y="395"/>
      <point x="75" y="400"/>
      <point x="65" y="400" type="curve" smooth="yes"/>
      <point x="35" y="400" type="line" smooth="yes"/>
      <point x="25" y="400"/>
      <point x="20" y="395"/>
      <point x="20" y="385" type="curve" smooth="yes"/>
    </contour>
    <contour>
      <point x="65" y="60" type="curve"/>
      <point x="35" y="60" type="line" smooth="yes"/>
      <point x="25" y="60"/>
      <point x="20" y="55"/>
      <point x="20" y="45" type="curve" smooth="yes"/>
      <point x="20" y="15" type="line" smooth="yes"/>
      <point x="20" y="5"/>
      <point x="25" y="0"/>
      <point x="35" y="0" type="curve" smooth="yes"/>
      <point x="50" y="0" type="line"/>
      <point x="35" y="-40" type="line" smooth="yes"/>
      <point x="33" y="-45"/>
      <point x="35" y="-50"/>
      <point x="40" y="-50" type="curve" smooth="yes"/>
      <point x="50" y="-50" type="line" smooth="yes"/>
      <point x="55" y="-50"/>
      <point x="58" y="-45"/>
      <point x="60" y="-40" type="curve" smooth="yes"/>
      <point x="75" y="-5" type="line"/>
      <point x="75" y="-5"/>
      <point x="80" y="5"/>
      <point x="80" y="15" type="curve" smooth="yes"/>
      <point x="80" y="45" type="line" smooth="yes"/>
      <point x="80" y="55"/>
      <point x="75" y="60"/>
    </contour>
  </outline>
</glyph>
<glyph name="less" format="1">
  <advance width="420"/>
  <unicode hex="003C"/>
  <outline>
    <contour>
      <point x="20" y="185" type="line" smooth="yes"/>
      <point x="20" y="175"/>
      <point x="25" y="169"/>
      <point x="35" y="165" type="curve" smooth="yes"/>
      <point x="385" y="35" type="line" smooth="yes"/>
      <point x="395" y="31"/>
      <point x="400" y="35"/>
      <point x="400" y="45" type="curve" smooth="yes"/>
      <point x="400" y="75" type="line" smooth="yes"/>
      <point x="400" y="85"/>
      <point x="394" y="92"/>
      <point x="385" y="95" type="curve" smooth="yes"/>
      <point x="90" y="205" type="line"/>
      <point x="385" y="315" type="line" smooth="yes"/>
      <point x="394" y="318"/>
      <point x="400" y="325"/>
      <point x="400" y="335" type="curve" smooth="yes"/>
      <point x="400" y="365" type="line" smooth="yes"/>
      <point x="400" y="375"/>
      <point x="395" y="379"/>
      <point x="385" y="375" type="curve" smooth="yes"/>
      <point x="35" y="245" type="line" smooth="yes"/>
      <point x="25" y="241"/>
      <point x="20" y="235"/>
      <point x="20" y="225" type="curve"/>
    </contour>
  </outline>
</glyph>
<glyph name="equal" format="1">
  <advance width="310"/>
  <unicode hex="003D"/>
  <outline>
    <contour>
      <point x="275" y="170" type="line" name="hr00"/>
      <point x="285" y="170"/>
      <point x="290" y="175"/>
      <point x="290" y="185" type="curve" smooth="yes"/>
      <point x="290" y="215" type="line" smooth="yes"/>
      <point x="290" y="225"/>
      <point x="285" y="230"/>
      <point x="275" y="230" type="curve" smooth="yes"/>
      <point x="35" y="230" type="line" smooth="yes"/>
      <point x="25" y="230"/>
      <point x="20" y="225"/>
      <point x="20" y="215" type="curve" smooth="yes"/>
      <point x="20" y="185" type="line" smooth="yes"/>
      <point x="20" y="175"/>
      <point x="25" y="170"/>
      <point x="35" y="170" type="curve" smooth="yes"/>
    </contour>
    <contour>
      <point x="275" y="310" type="line"/>
      <point x="285" y="310"/>
      <point x="290" y="315"/>
      <point x="290" y="325" type="curve" smooth="yes"/>
      <point x="290" y="355" type="line" smooth="yes"/>
      <point x="290" y="365"/>
      <point x="285" y="370"/>
      <point x="275" y="370" type="curve" smooth="yes"/>
      <point x="35" y="370" type="line" smooth="yes"/>
      <point x="25" y="370"/>
      <point x="20" y="365"/>
      <point x="20" y="355" type="curve" smooth="yes"/>
      <point x="20" y="325" type="line" smooth="yes"/>
      <point x="20" y="315"/>
      <point x="25" y="310"/>
      <point x="35" y="310" type="curve" smooth="yes"/>
    </contour>
  </outline>
</glyph>
<glyph name="greater" format="1">
  <advance width="420"/>
  <unicode hex="003E"/>
  <outline>
    <contour>
      <point x="400" y="225" type="line" smooth="yes"/>
      <point x="400" y="235"/>
      <point x="395" y="241"/>
      <point x="385" y="245" type="curve" smooth="yes"/>
      <point x="35" y="375" type="line" smooth="yes"/>
      <point x="25" y="379"/>
      <point x="20" y="375"/>
      <point x="20" y="365" type="curve" smooth="yes"/>
      <point x="20" y="335" type="line" smooth="yes"/>
      <point x="20" y="325"/>
      <point x="26" y="318"/>
      <point x="35" y="315" type="curve" smooth="yes"/>
      <point x="330" y="205" type="line"/>
      <point x="35" y="95" type="line" smooth="yes"/>
      <point x="26" y="92"/>
      <point x="20" y="85"/>
      <point x="20" y="75" type="curve" smooth="yes"/>
      <point x="20" y="45" type="line" smooth="yes"/>
      <point x="20" y="35"/>
      <point x="25" y="31"/>
      <point x="35" y="35" type="curve" smooth="yes"/>
      <point x="385" y="165" type="line" smooth="yes"/>
      <point x="395" y="169"/>
      <point x="400" y="175"/>
      <point x="400" y="185" type="curve"/>
    </contour>
  </outline>
</glyph>
<glyph name="question" format="1">
  <advance width="280"/>
  <unicode hex="003F"/>
  <outline>
    <contour>
      <point x="100" y="155" type="line" smooth="yes" name="hr00"/>
      <point x="100" y="145"/>
      <point x="105" y="140"/>
      <point x="115" y="140" type="curve" smooth="yes"/>
      <point x="145" y="140" type="line" smooth="yes"/>
      <point x="155" y="140"/>
      <point x="160" y="145"/>
      <point x="160" y="155" type="curve" smooth="yes"/>
      <point x="160" y="245" type="line" smooth="yes"/>
      <point x="160" y="275"/>
      <point x="170" y="286"/>
      <point x="180" y="295" type="curve" smooth="yes"/>
      <point x="210" y="320" type="line" smooth="yes"/>
      <point x="230" y="338"/>
      <point x="250" y="360"/>
      <point x="250" y="410" type="curve" smooth="yes"/>
      <point x="250" y="650" type="line" smooth="yes"/>
      <point x="250" y="685"/>
      <point x="225" y="710"/>
      <point x="190" y="710" type="curve" smooth="yes"/>
      <point x="90" y="710" type="line" smooth="yes"/>
      <point x="55" y="710"/>
      <point x="30" y="685"/>
      <point x="30" y="650" type="curve" smooth="yes"/>
      <point x="30" y="530" type="line" smooth="yes"/>
      <point x="30" y="520"/>
      <point x="35" y="515"/>
      <point x="45" y="515" type="curve" smooth="yes"/>
      <point x="75" y="515" type="line" smooth="yes"/>
      <point x="85" y="515"/>
      <point x="90" y="520"/>
      <point x="90" y="530" type="curve" smooth="yes"/>
      <point x="90" y="635" type="line" smooth="yes"/>
      <point x="90" y="645"/>
      <point x="95" y="650"/>
      <point x="105" y="650" type="curve" smooth="yes"/>
      <point x="175" y="650" type="line" smooth="yes"/>
      <point x="185" y="650"/>
      <point x="190" y="645"/>
      <point x="190" y="635" type="curve" smooth="yes"/>
      <point x="190" y="420" type="line" smooth="yes"/>
      <point x="190" y="390"/>
      <point x="180" y="379"/>
      <point x="170" y="370" type="curve" smooth="yes"/>
      <point x="140" y="345" type="line" smooth="yes"/>
      <point x="120" y="327"/>
      <point x="100" y="305"/>
      <point x="100" y="255" type="curve" smooth="yes"/>
    </contour>
    <contour>
      <point x="100" y="15" type="line" smooth="yes"/>
      <point x="100" y="5"/>
      <point x="105" y="0"/>
      <point x="115" y="0" type="curve" smooth="yes"/>
      <point x="145" y="0" type="line" smooth="yes"/>
      <point x="155" y="0"/>
      <point x="160" y="5"/>
      <point x="160" y="15" type="curve" smooth="yes"/>
      <point x="160" y="45" type="line" smooth="yes"/>
      <point x="160" y="55"/>
      <point x="155" y="60"/>
      <point x="145" y="60" type="curve" smooth="yes"/>
      <point x="115" y="60" type="line" smooth="yes"/>
      <point x="105" y="60"/>
      <point x="100" y="55"/>
      <point x="100" y="45" type="curve" smooth="yes"/>
    </contour>
  </outline>
</glyph>
<glyph name="at" format="1">
  <advance width="470"/>
  <unicode hex="0040"/>
  <outline>
    <contour>
      <point x="350" y="0" type="line" smooth="yes" name="hr00"/>
      <point x="385" y="0"/>
      <point x="410" y="25"/>
      <point x="410" y="60" type="curve" smooth="yes"/>
      <point x="410" y="510" type="line" smooth="yes"/>
      <point x="410" y="545"/>
      <point x="385" y="570"/>
      <point x="350" y="570" type="curve" smooth="yes"/>
      <point x="85" y="570" type="line" smooth="yes"/>
      <point x="75" y="570"/>
      <point x="70" y="565"/>
      <point x="70" y="555" type="curve" smooth="yes"/>
      <point x="70" y="525" type="line" smooth="yes"/>
      <point x="70" y="515"/>
      <point x="75" y="510"/>
      <point x="85" y="510" type="curve" smooth="yes"/>
      <point x="335" y="510" type="line" smooth="yes"/>
      <point x="345" y="510"/>
      <point x="350" y="505"/>
      <point x="350" y="495" type="curve" smooth="yes"/>
      <point x="350" y="75" type="line" smooth="yes"/>
      <point x="350" y="65"/>
      <point x="345" y="60"/>
      <point x="335" y="60" type="curve" smooth="yes"/>
      <point x="270" y="60" type="line"/>
      <point x="270" y="340" type="line" smooth="yes"/>
      <point x="270" y="375"/>
      <point x="245" y="400"/>
      <point x="210" y="400" type="curve" smooth="yes"/>
      <point x="130" y="400" type="line" smooth="yes"/>
      <point x="95" y="400"/>
      <point x="70" y="375"/>
      <point x="70" y="340" type="curve" smooth="yes"/>
      <point x="70" y="285" type="line" smooth="yes"/>
      <point x="70" y="275"/>
      <point x="75" y="270"/>
      <point x="85" y="270" type="curve" smooth="yes"/>
      <point x="115" y="270" type="line" smooth="yes"/>
      <point x="125" y="270"/>
      <point x="130" y="275"/>
      <point x="130" y="285" type="curve" smooth="yes"/>
      <point x="130" y="325" type="line" smooth="yes"/>
      <point x="130" y="335"/>
      <point x="135" y="340"/>
      <point x="145" y="340" type="curve" smooth="yes"/>
      <point x="195" y="340" type="line" smooth="yes"/>
      <point x="205" y="340"/>
      <point x="210" y="335"/>
      <point x="210" y="325" type="curve" smooth="yes"/>
      <point x="210" y="230" type="line"/>
      <point x="130" y="230" type="line" smooth="yes"/>
      <point x="95" y="230"/>
      <point x="70" y="205"/>
      <point x="70" y="170" type="curve" smooth="yes"/>
      <point x="70" y="60" type="line" smooth="yes"/>
      <point x="70" y="25"/>
      <point x="95" y="0"/>
      <point x="130" y="0" type="curve" smooth="yes"/>
    </contour>
    <contour>
      <point x="210" y="60" type="line"/>
      <point x="145" y="60" type="line" smooth="yes"/>
      <point x="135" y="60"/>
      <point x="130" y="65"/>
      <point x="130" y="75" type="curve" smooth="yes"/>
      <point x="130" y="155" type="line" smooth="yes"/>
      <point x="130" y="165"/>
      <point x="135" y="170"/>
      <point x="145" y="170" type="curve" smooth="yes"/>
      <point x="210" y="170" type="line"/>
    </contour>
  </outline>
</glyph>
<glyph name="B" format="1">
  <advance width="315"/>
  <unicode hex="0042"/>
  <outline>
    <contour>
      <point x="50" y="15" type="line" smooth="yes" name="hr00"/>
      <point x="50" y="5"/>
      <point x="55" y="0"/>
      <point x="65" y="0" type="curve" smooth="yes"/>
      <point x="210" y="0" type="line" smooth="yes"/>
      <point x="245" y="0"/>
      <point x="270" y="25"/>
      <point x="270" y="60" type="curve" smooth="yes"/>
      <point x="270" y="350" type="line" smooth="yes"/>
      <point x="270" y="400"/>
      <point x="230" y="405"/>
      <point x="230" y="405" type="curve"/>
      <point x="230" y="405"/>
      <point x="260" y="410"/>
      <point x="260" y="450" type="curve" smooth="yes"/>
      <point x="260" y="640" type="line" smooth="yes"/>
      <point x="260" y="675"/>
      <point x="235" y="700"/>
      <point x="200" y="700" type="curve" smooth="yes"/>
      <point x="65" y="700" type="line" smooth="yes"/>
      <point x="55" y="700"/>
      <point x="50" y="695"/>
      <point x="50" y="685" type="curve" smooth="yes"/>
    </contour>
    <contour>
      <point x="110" y="60" type="line"/>
      <point x="110" y="370" type="line"/>
      <point x="195" y="370" type="line" smooth="yes"/>
      <point x="205" y="370"/>
      <point x="210" y="365"/>
      <point x="210" y="355" type="curve" smooth="yes"/>
      <point x="210" y="75" type="line" smooth="yes"/>
      <point x="210" y="65"/>
      <point x="205" y="60"/>
      <point x="195" y="60" type="curve" smooth="yes"/>
    </contour>
    <contour>
      <point x="185" y="640" type="line" smooth="yes"/>
      <point x="195" y="640"/>
      <point x="200" y="635"/>
      <point x="200" y="625" type="curve" smooth="yes"/>
      <point x="200" y="445" type="line" smooth="yes"/>
      <point x="200" y="435"/>
      <point x="195" y="430"/>
      <point x="185" y="430" type="curve" smooth="yes"/>
      <point x="110" y="430" type="line"/>
      <point x="110" y="640" type="line"/>
    </contour>
  </outline>
</glyph>
<glyph name="F" format="1">
  <advance width="260"/>
  <unicode hex="0046"/>
  <outline>
    <contour>
      <point x="50" y="15" type="line" smooth="yes" name="hr00"/>
      <point x="50" y="5"/>
      <point x="55" y="0"/>
      <point x="65" y="0" type="curve" smooth="yes"/>
      <point x="95" y="0" type="line" smooth="yes"/>
      <point x="105" y="0"/>
      <point x="110" y="5"/>
      <point x="110" y="15" type="curve" smooth="yes"/>
      <point x="110" y="310" type="line"/>
      <point x="195" y="310" type="line" smooth="yes"/>
      <point x="205" y="310"/>
      <point x="210" y="315"/>
      <point x="210" y="325" type="curve" smooth="yes"/>
      <point x="210" y="355" type="line" smooth="yes"/>
      <point x="210" y="365"/>
      <point x="205" y="370"/>
      <point x="195" y="370" type="curve" smooth="yes"/>
      <point x="110" y="370" type="line"/>
      <point x="110" y="640" type="line"/>
      <point x="235" y="640" type="line" smooth="yes"/>
      <point x="245" y="640"/>
      <point x="250" y="645"/>
      <point x="250" y="655" type="curve" smooth="yes"/>
      <point x="250" y="685" type="line" smooth="yes"/>
      <point x="250" y="695"/>
      <point x="245" y="700"/>
      <point x="235" y="700" type="curve" smooth="yes"/>
      <point x="65" y="700" type="line" smooth="yes"/>
      <point x="55" y="700"/>
      <point x="50" y="695"/>
      <point x="50" y="685" type="curve" smooth="yes"/>
    </contour>
  </outline>
</glyph>
<glyph name="G" format="1">
  <advance width="320"/>
  <unicode hex="0047"/>
  <outline>
    <contour>
      <point x="270" y="355" type="line" smooth="yes" name="hr00"/>
      <point x="270" y="365"/>
      <point x="265" y="370"/>
      <point x="255" y="370" type="curve" smooth="yes"/>
      <point x="185" y="370" type="line" smooth="yes"/>
      <point x="175" y="370"/>
      <point x="170" y="365"/>
      <point x="170" y="355" type="curve" smooth="yes"/>
      <point x="170" y="325" type="line" smooth="yes"/>
      <point x="170" y="315"/>
      <point x="175" y="310"/>
      <point x="185" y="310" type="curve" smooth="yes"/>
      <point x="210" y="310" type="line"/>
      <point x="210" y="60" type="line"/>
      <point x="125" y="60" type="line" smooth="yes"/>
      <point x="115" y="60"/>
      <point x="110" y="65"/>
      <point x="110" y="75" type="curve" smooth="yes"/>
      <point x="110" y="625" type="line" smooth="yes"/>
      <point x="110" y="635"/>
      <point x="115" y="640"/>
      <point x="125" y="640" type="curve" smooth="yes"/>
      <point x="195" y="640" type="line" smooth="yes"/>
      <point x="205" y="640"/>
      <point x="210" y="635"/>
      <point x="210" y="625" type="curve" smooth="yes"/>
      <point x="210" y="530" type="line" smooth="yes"/>
      <point x="210" y="520"/>
      <point x="215" y="515"/>
      <point x="225" y="515" type="curve" smooth="yes"/>
      <point x="255" y="515" type="line" smooth="yes"/>
      <point x="265" y="515"/>
      <point x="270" y="520"/>
      <point x="270" y="530" type="curve" smooth="yes"/>
      <point x="270" y="640" type="line" smooth="yes"/>
      <point x="270" y="675"/>
      <point x="245" y="700"/>
      <point x="210" y="700" type="curve" smooth="yes"/>
      <point x="110" y="700" type="line" smooth="yes"/>
      <point x="75" y="700"/>
      <point x="50" y="675"/>
      <point x="50" y="640" type="curve" smooth="yes"/>
      <point x="50" y="60" type="line" smooth="yes"/>
      <point x="50" y="25"/>
      <point x="75" y="0"/>
      <point x="110" y="0" type="curve" smooth="yes"/>
      <point x="255" y="0" type="line" smooth="yes"/>
      <point x="265" y="0"/>
      <point x="270" y="5"/>
      <point x="270" y="15" type="curve" smooth="yes"/>
    </contour>
  </outline>
</glyph>
<glyph name="I" format="1">
  <advance width="160"/>
  <unicode hex="0049"/>
  <outline>
    <contour>
      <point x="50" y="15" type="line" smooth="yes" name="hr00"/>
      <point x="50" y="5"/>
      <point x="55" y="0"/>
      <point x="65" y="0" type="curve" smooth="yes"/>
      <point x="95" y="0" type="line" smooth="yes"/>
      <point x="105" y="0"/>
      <point x="110" y="5"/>
      <point x="110" y="15" type="curve"/>
      <point x="110" y="685" type="line" smooth="yes"/>
      <point x="110" y="695"/>
      <point x="105" y="700"/>
      <point x="95" y="700" type="curve" smooth="yes"/>
      <point x="65" y="700" type="line" smooth="yes"/>
      <point x="55" y="700"/>
      <point x="50" y="695"/>
      <point x="50" y="685" type="curve" smooth="yes"/>
    </contour>
  </outline>
</glyph>
<glyph name="J" format="1">
  <advance width="280"/>
  <unicode hex="004A"/>
  <outline>
    <contour>
      <point x="170" y="75" type="line" smooth="yes" name="hr00"/>
      <point x="170" y="65"/>
      <point x="165" y="60"/>
      <point x="155" y="60" type="curve" smooth="yes"/>
      <point x="105" y="60" type="line" smooth="yes"/>
      <point x="95" y="60"/>
      <point x="90" y="65"/>
      <point x="90" y="75" type="curve" smooth="yes"/>
      <point x="90" y="175" type="line" smooth="yes"/>
      <point x="90" y="185"/>
      <point x="85" y="190"/>
      <point x="75" y="190" type="curve" smooth="yes"/>
      <point x="45" y="190" type="line" smooth="yes"/>
      <point x="35" y="190"/>
      <point x="30" y="185"/>
      <point x="30" y="175" type="curve" smooth="yes"/>
      <point x="30" y="60" type="line" smooth="yes"/>
      <point x="30" y="25"/>
      <point x="55" y="0"/>
      <point x="90" y="0" type="curve" smooth="yes"/>
      <point x="170" y="0" type="line" smooth="yes"/>
      <point x="205" y="0"/>
      <point x="230" y="25"/>
      <point x="230" y="60" type="curve" smooth="yes"/>
      <point x="230" y="685" type="line" smooth="yes"/>
      <point x="230" y="695"/>
      <point x="225" y="700"/>
      <point x="215" y="700" type="curve" smooth="yes"/>
      <point x="185" y="700" type="line" smooth="yes"/>
      <point x="175" y="700"/>
      <point x="170" y="695"/>
      <point x="170" y="685" type="curve"/>
    </contour>
  </outline>
</glyph>
<glyph name="K" format="1">
  <advance width="282"/>
  <unicode hex="004B"/>
  <outline>
    <contour>
      <point x="50" y="15" type="line" smooth="yes" name="hr00"/>
      <point x="50" y="5"/>
      <point x="55" y="0"/>
      <point x="65" y="0" type="curve" smooth="yes"/>
      <point x="95" y="0" type="line" smooth="yes"/>
      <point x="105" y="0"/>
      <point x="110" y="5"/>
      <point x="110" y="15" type="curve" smooth="yes"/>
      <point x="110" y="275" type="line"/>
      <point x="135" y="345" type="line"/>
      <point x="220" y="15" type="line" smooth="yes"/>
      <point x="223" y="5"/>
      <point x="230" y="0"/>
      <point x="240" y="0" type="curve" smooth="yes"/>
      <point x="270" y="0" type="line" smooth="yes"/>
      <point x="280" y="0"/>
      <point x="283" y="5"/>
      <point x="280" y="15" type="curve" smooth="yes"/>
      <point x="170" y="430" type="line"/>
      <point x="260" y="685" type="line" smooth="yes"/>
      <point x="264" y="695"/>
      <point x="260" y="700"/>
      <point x="250" y="700" type="curve" smooth="yes"/>
      <point x="220" y="700" type="line" smooth="yes"/>
      <point x="210" y="700"/>
      <point x="203" y="694"/>
      <point x="200" y="685" type="curve" smooth="yes"/>
      <point x="110" y="430" type="line"/>
      <point x="110" y="685" type="line" smooth="yes"/>
      <point x="110" y="695"/>
      <point x="105" y="700"/>
      <point x="95" y="700" type="curve" smooth="yes"/>
      <point x="65" y="700" type="line" smooth="yes"/>
      <point x="55" y="700"/>
      <point x="50" y="695"/>
      <point x="50" y="685" type="curve" smooth="yes"/>
    </contour>
  </outline>
</glyph>
<glyph name="L" format="1">
  <advance width="250"/>
  <unicode hex="004C"/>
  <outline>
    <contour>
      <point x="50" y="15" type="line" smooth="yes" name="hr00"/>
      <point x="50" y="5"/>
      <point x="55" y="0"/>
      <point x="65" y="0" type="curve" smooth="yes"/>
      <point x="235" y="0" type="line" smooth="yes"/>
      <point x="245" y="0"/>
      <point x="250" y="5"/>
      <point x="250" y="15" type="curve" smooth="yes"/>
      <point x="250" y="45" type="line" smooth="yes"/>
      <point x="250" y="55"/>
      <point x="245" y="60"/>
      <point x="235" y="60" type="curve" smooth="yes"/>
      <point x="110" y="60" type="line"/>
      <point x="110" y="685" type="line" smooth="yes"/>
      <point x="110" y="695"/>
      <point x="105" y="700"/>
      <point x="95" y="700" type="curve" smooth="yes"/>
      <point x="65" y="700" type="line" smooth="yes"/>
      <point x="55" y="700"/>
      <point x="50" y="695"/>
      <point x="50" y="685" type="curve" smooth="yes"/>
    </contour>
  </outline>
</glyph>
<glyph name="N" format="1">
  <advance width="320"/>
  <unicode hex="004E"/>
  <outline>
    <contour>
      <point x="210" y="330" type="line" name="hr00"/>
      <point x="210" y="15" type="line" smooth="yes"/>
      <point x="210" y="5"/>
      <point x="215" y="0"/>
      <point x="225" y="0" type="curve" smooth="yes"/>
      <point x="255" y="0" type="line" smooth="yes"/>
      <point x="265" y="0"/>
      <point x="270" y="5"/>
      <point x="270" y="15" type="curve" smooth="yes"/>
      <point x="270" y="685" type="line" smooth="yes"/>
      <point x="270" y="695"/>
      <point x="265" y="700"/>
      <point x="255" y="700" type="curve" smooth="yes"/>
      <point x="225" y="700" type="line" smooth="yes"/>
      <point x="215" y="700"/>
      <point x="210" y="695"/>
      <point x="210" y="685" type="curve" smooth="yes"/>
      <point x="210" y="465" type="line"/>
      <point x="115" y="685" type="line" smooth="yes"/>
      <point x="110" y="695"/>
      <point x="105" y="700"/>
      <point x="95" y="700" type="curve" smooth="yes"/>
      <point x="65" y="700" type="line" smooth="yes"/>
      <point x="55" y="700"/>
      <point x="50" y="695"/>
      <point x="50" y="685" type="curve" smooth="yes"/>
      <point x="50" y="15" type="line" smooth="yes"/>
      <point x="50" y="5"/>
      <point x="55" y="0"/>
      <point x="65" y="0" type="curve" smooth="yes"/>
      <point x="95" y="0" type="line" smooth="yes"/>
      <point x="105" y="0"/>
      <point x="110" y="5"/>
      <point x="110" y="15" type="curve" smooth="yes"/>
      <point x="110" y="560" type="line"/>
    </contour>
  </outline>
</glyph>
<glyph name="O" format="1">
  <advance width="320"/>
  <unicode hex="004F"/>
  <outline>
    <contour>
      <point x="50" y="60" type="line" smooth="yes" name="hr00"/>
      <point x="50" y="25"/>
      <point x="75" y="0"/>
      <point x="110" y="0" type="curve" smooth="yes"/>
      <point x="210" y="0" type="line" smooth="yes"/>
      <point x="245" y="0"/>
      <point x="270" y="25"/>
      <point x="270" y="60" type="curve" smooth="yes"/>
      <point x="270" y="640" type="line" smooth="yes"/>
      <point x="270" y="675"/>
      <point x="245" y="700"/>
      <point x="210" y="700" type="curve" smooth="yes"/>
      <point x="110" y="700" type="line" smooth="yes"/>
      <point x="75" y="700"/>
      <point x="50" y="675"/>
      <point x="50" y="640" type="curve" smooth="yes"/>
    </contour>
    <contour>
      <point x="195" y="60" type="curve"/>
      <point x="125" y="60" type="line" smooth="yes"/>
      <point x="115" y="60"/>
      <point x="110" y="65"/>
      <point x="110" y="75" type="curve" smooth="yes"/>
      <point x="110" y="625" type="line" smooth="yes"/>
      <point x="110" y="635"/>
      <point x="115" y="640"/>
      <point x="125" y="640" type="curve" smooth="yes"/>
      <point x="195" y="640" type="line" smooth="yes"/>
      <point x="205" y="640"/>
      <point x="210" y="635"/>
      <point x="210" y="625" type="curve" smooth="yes"/>
      <point x="210" y="75" type="line" smooth="yes"/>
      <point x="210" y="65"/>
      <point x="205" y="60"/>
    </contour>
  </outline>
</glyph>
<glyph name="R" format="1">
  <advance width="327"/>
  <unicode hex="0052"/>
  <outline>
    <contour>
      <point x="50" y="15" type="line" smooth="yes" name="hr00"/>
      <point x="50" y="5"/>
      <point x="55" y="0"/>
      <point x="65" y="0" type="curve" smooth="yes"/>
      <point x="95" y="0" type="line" smooth="yes"/>
      <point x="105" y="0"/>
      <point x="110" y="5"/>
      <point x="110" y="15" type="curve" smooth="yes"/>
      <point x="110" y="220" type="line"/>
      <point x="190" y="220" type="line"/>
      <point x="245" y="15" type="line"/>
      <point x="247" y="5"/>
      <point x="255" y="0"/>
      <point x="265" y="0" type="curve" smooth="yes"/>
      <point x="295" y="0" type="line" smooth="yes"/>
      <point x="305" y="0"/>
      <point x="308" y="5"/>
      <point x="305" y="15" type="curve" smooth="yes"/>
      <point x="245" y="235" type="line"/>
      <point x="245" y="235"/>
      <point x="270" y="250"/>
      <point x="270" y="280" type="curve" smooth="yes"/>
      <point x="270" y="640" type="line" smooth="yes"/>
      <point x="270" y="675"/>
      <point x="245" y="700"/>
      <point x="210" y="700" type="curve" smooth="yes"/>
      <point x="65" y="700" type="line" smooth="yes"/>
      <point x="55" y="700"/>
      <point x="50" y="695"/>
      <point x="50" y="685" type="curve" smooth="yes"/>
    </contour>
    <contour>
      <point x="195" y="640" type="line" smooth="yes"/>
      <point x="205" y="640"/>
      <point x="210" y="635"/>
      <point x="210" y="625" type="curve" smooth="yes"/>
      <point x="210" y="295" type="line" smooth="yes"/>
      <point x="210" y="285"/>
      <point x="205" y="280"/>
      <point x="195" y="280" type="curve" smooth="yes"/>
      <point x="110" y="280" type="line"/>
      <point x="110" y="640" type="line"/>
    </contour>
  </outline>
</glyph>
<glyph name="U" format="1">
  <advance width="320"/>
  <unicode hex="0055"/>
  <outline>
    <contour>
      <point x="110" y="685" type="line" smooth="yes" name="hr00"/>
      <point x="110" y="695"/>
      <point x="105" y="700"/>
      <point x="95" y="700" type="curve" smooth="yes"/>
      <point x="65" y="700" type="line" smooth="yes"/>
      <point x="55" y="700"/>
      <point x="50" y="695"/>
      <point x="50" y="685" type="curve" smooth="yes"/>
      <point x="50" y="60" type="line" smooth="yes"/>
      <point x="50" y="25"/>
      <point x="75" y="0"/>
      <point x="110" y="0" type="curve" smooth="yes"/>
      <point x="210" y="0" type="line" smooth="yes"/>
      <point x="245" y="0"/>
      <point x="270" y="25"/>
      <point x="270" y="60" type="curve" smooth="yes"/>
      <point x="270" y="685" type="line" smooth="yes"/>
      <point x="270" y="695"/>
      <point x="265" y="700"/>
      <point x="255" y="700" type="curve" smooth="yes"/>
      <point x="225" y="700" type="line" smooth="yes"/>
      <point x="215" y="700"/>
      <point x="210" y="695"/>
      <point x="210" y="685" type="curve" smooth="yes"/>
      <point x="210" y="75" type="line" smooth="yes"/>
      <point x="210" y="65"/>
      <point x="205" y="60"/>
      <point x="195" y="60" type="curve" smooth="yes"/>
      <point x="125" y="60" type="line" smooth="yes"/>
      <point x="115" y="60"/>
      <point x="110" y="65"/>
      <point x="110" y="75" type="curve" smooth="yes"/>
    </contour>
  </outline>
</glyph>
<glyph name="V" format="1">
  <advance width="300"/>
  <unicode hex="0056"/>
  <outline>
    <contour>
      <point x="180" y="0" type="line" name="hr00"/>
      <point x="190" y="0"/>
      <point x="194" y="5"/>
      <point x="195" y="15" type="curve"/>
      <point x="280" y="685" type="line"/>
      <point x="280" y="695"/>
      <point x="275" y="700"/>
      <point x="265" y="700" type="curve"/>
      <point x="235" y="700" type="line"/>
      <point x="225" y="700"/>
      <point x="221" y="695"/>
      <point x="220" y="685" type="curve"/>
      <point x="150" y="105" type="line"/>
      <point x="80" y="685" type="line"/>
      <point x="79" y="695"/>
      <point x="75" y="700"/>
      <point x="65" y="700" type="curve"/>
      <point x="35" y="700" type="line"/>
      <point x="25" y="700"/>
      <point x="20" y="695"/>
      <point x="20" y="685" type="curve"/>
      <point x="105" y="15" type="line"/>
      <point x="106" y="5"/>
      <point x="110" y="0"/>
      <point x="120" y="0" type="curve"/>
    </contour>
  </outline>
</glyph>
<glyph name="W" format="1">
  <advance width="440"/>
  <unicode hex="0057"/>
  <outline>
    <contour>
      <point x="200" y="485" type="line" smooth="yes" name="hr00"/>
      <point x="190" y="485"/>
      <point x="186" y="480"/>
      <point x="185" y="470" type="curve" smooth="yes"/>
      <point x="145" y="110" type="line"/>
      <point x="80" y="685" type="line" smooth="yes"/>
      <point x="79" y="695"/>
      <point x="75" y="700"/>
      <point x="65" y="700" type="curve" smooth="yes"/>
      <point x="35" y="700" type="line" smooth="yes"/>
      <point x="25" y="700"/>
      <point x="20" y="695"/>
      <point x="20" y="685" type="curve"/>
      <point x="95" y="15" type="line" smooth="yes"/>
      <point x="96" y="5"/>
      <point x="100" y="0"/>
      <point x="110" y="0" type="curve" smooth="yes"/>
      <point x="170" y="0" type="line" smooth="yes"/>
      <point x="180" y="0"/>
      <point x="184" y="5"/>
      <point x="185" y="15" type="curve" smooth="yes"/>
      <point x="220" y="320" type="line"/>
      <point x="255" y="15" type="line" smooth="yes"/>
      <point x="256" y="5"/>
      <point x="260" y="0"/>
      <point x="270" y="0" type="curve" smooth="yes"/>
      <point x="330" y="0" type="line" smooth="yes"/>
      <point x="340" y="0"/>
      <point x="344" y="5"/>
      <point x="345" y="15" type="curve" smooth="yes"/>
      <point x="420" y="685" type="line"/>
      <point x="420" y="695"/>
      <point x="415" y="700"/>
      <point x="405" y="700" type="curve" smooth="yes"/>
      <point x="375" y="700" type="line" smooth="yes"/>
      <point x="365" y="700"/>
      <point x="361" y="695"/>
      <point x="360" y="685" type="curve" smooth="yes"/>
      <point x="295" y="110" type="line"/>
      <point x="255" y="470" type="line" smooth="yes"/>
      <point x="254" y="480"/>
      <point x="250" y="485"/>
      <point x="240" y="485" type="curve" smooth="yes"/>
    </contour>
  </outline>
</glyph>
<glyph name="Y" format="1">
  <advance width="262"/>
  <unicode hex="0059"/>
  <outline>
    <contour>
      <point x="146" y="0" type="line" smooth="yes" name="hr00"/>
      <point x="156" y="0"/>
      <point x="161" y="5"/>
      <point x="161" y="15" type="curve" smooth="yes"/>
      <point x="161" y="290" type="line"/>
      <point x="251" y="685" type="line" smooth="yes"/>
      <point x="253" y="695"/>
      <point x="251" y="700"/>
      <point x="241" y="700" type="curve" smooth="yes"/>
      <point x="211" y="700" type="line" smooth="yes"/>
      <point x="201" y="700"/>
      <point x="193" y="695"/>
      <point x="191" y="685" type="curve" smooth="yes"/>
      <point x="131" y="410" type="line"/>
      <point x="71" y="685" type="line" smooth="yes"/>
      <point x="69" y="695"/>
      <point x="61" y="700"/>
      <point x="51" y="700" type="curve" smooth="yes"/>
      <point x="21" y="700" type="line" smooth="yes"/>
      <point x="11" y="700"/>
      <point x="9" y="695"/>
      <point x="11" y="685" type="curve" smooth="yes"/>
      <point x="101" y="290" type="line"/>
      <point x="101" y="15" type="line" smooth="yes"/>
      <point x="101" y="5"/>
      <point x="106" y="0"/>
      <point x="116" y="0" type="curve" smooth="yes"/>
    </contour>
  </outline>
</glyph>
<glyph name="Z" format="1">
  <advance width="242"/>
  <unicode hex="005A"/>
  <outline>
    <contour>
      <point x="216" y="60" type="curve" name="hr00"/>
      <point x="81" y="60" type="line"/>
      <point x="231" y="685" type="line" smooth="yes"/>
      <point x="233" y="695"/>
      <point x="226" y="700"/>
      <point x="216" y="700" type="curve" smooth="yes"/>
      <point x="36" y="700" type="line" smooth="yes"/>
      <point x="26" y="700"/>
      <point x="21" y="695"/>
      <point x="21" y="685" type="curve" smooth="yes"/>
      <point x="21" y="655" type="line" smooth="yes"/>
      <point x="21" y="645"/>
      <point x="26" y="640"/>
      <point x="36" y="640" type="curve" smooth="yes"/>
      <point x="161" y="640" type="line"/>
      <point x="11" y="15" type="line" smooth="yes"/>
      <point x="9" y="5"/>
      <point x="16" y="0"/>
      <point x="26" y="0" type="curve" smooth="yes"/>
      <point x="216" y="0" type="line" smooth="yes"/>
      <point x="226" y="0"/>
      <point x="231" y="5"/>
      <point x="231" y="15" type="curve" smooth="yes"/>
      <point x="231" y="45" type="line" smooth="yes"/>
      <point x="231" y="55"/>
      <point x="226" y="60"/>
    </contour>
  </outline>
</glyph>
<glyph name="bracketleft" format="1">
  <advance width="200"/>
  <unicode hex="005B"/>
  <outline>
    <contour>
      <point x="60" y="-145" type="line" smooth="yes" name="hr00"/>
      <point x="60" y="-155"/>
      <point x="65" y="-160"/>
      <point x="75" y="-160" type="curve" smooth="yes"/>
      <point x="165" y="-160" type="line" smooth="yes"/>
      <point x="175" y="-160"/>
      <point x="180" y="-155"/>
      <point x="180" y="-145" type="curve" smooth="yes"/>
      <point x="180" y="-115" type="line" smooth="yes"/>
      <point x="180" y="-105"/>
      <point x="175" y="-100"/>
      <point x="165" y="-100" type="curve" smooth="yes"/>
      <point x="120" y="-100" type="line"/>
      <point x="120" y="640" type="line"/>
      <point x="165" y="640" type="line" smooth="yes"/>
      <point x="175" y="640"/>
      <point x="180" y="645"/>
      <point x="180" y="655" type="curve" smooth="yes"/>
      <point x="180" y="685" type="line" smooth="yes"/>
      <point x="180" y="695"/>
      <point x="175" y="700"/>
      <point x="165" y="700" type="curve" smooth="yes"/>
      <point x="75" y="700" type="line" smooth="yes"/>
      <point x="65" y="700"/>
      <point x="60" y="695"/>
      <point x="60" y="685" type="curve" smooth="yes"/>
    </contour>
  </outline>
</glyph>
<glyph name="backslash" format="1">
  <advance width="274"/>
  <unicode hex="005C"/>
  <outline>
    <contour>
      <point x="192" y="15" type="line" name="hr00"/>
      <point x="195" y="5"/>
      <point x="202" y="0"/>
      <point x="212" y="0" type="curve" smooth="yes"/>
      <point x="242" y="0" type="line" smooth="yes"/>
      <point x="252" y="0"/>
      <point x="255" y="5"/>
      <point x="252" y="15" type="curve" smooth="yes"/>
      <point x="82" y="685" type="line" smooth="yes"/>
      <point x="79" y="695"/>
      <point x="72" y="700"/>
      <point x="62" y="700" type="curve" smooth="yes"/>
      <point x="32" y="700" type="line" smooth="yes"/>
      <point x="22" y="700"/>
      <point x="19" y="695"/>
      <point x="22" y="685" type="curve"/>
    </contour>
  </outline>
</glyph>
<glyph name="bracketright" format="1">
  <advance width="200"/>
  <unicode hex="005D"/>
  <outline>
    <contour>
      <point x="140" y="685" type="line" smooth="yes" name="hr00"/>
      <point x="140" y="695"/>
      <point x="135" y="700"/>
      <point x="125" y="700" type="curve" smooth="yes"/>
      <point x="35" y="700" type="line" smooth="yes"/>
      <point x="25" y="700"/>
      <point x="20" y="695"/>
      <point x="20" y="685" type="curve" smooth="yes"/>
      <point x="20" y="655" type="line" smooth="yes"/>
      <point x="20" y="645"/>
      <point x="25" y="640"/>
      <point x="35" y="640" type="curve" smooth="yes"/>
      <point x="80" y="640" type="line"/>
      <point x="80" y="-100" type="line"/>
      <point x="35" y="-100" type="line" smooth="yes"/>
      <point x="25" y="-100"/>
      <point x="20" y="-105"/>
      <point x="20" y="-115" type="curve" smooth="yes"/>
      <point x="20" y="-145" type="line" smooth="yes"/>
      <point x="20" y="-155"/>
      <point x="25" y="-160"/>
      <point x="35" y="-160" type="curve" smooth="yes"/>
      <point x="125" y="-160" type="line" smooth="yes"/>
      <point x="135" y="-160"/>
      <point x="140" y="-155"/>
      <point x="140" y="-145" type="curve"/>
    </contour>
  </outline>
</glyph>
<glyph name="asciicircum" format="1">
  <advance width="274"/>
  <unicode hex="005E"/>
  <outline>
    <contour>
      <point x="117" y="700" type="line" smooth="yes" name="hr00"/>
      <point x="107" y="700"/>
      <point x="101" y="695"/>
      <point x="97" y="685" type="curve" smooth="yes"/>
      <point x="22" y="475" type="line" smooth="yes"/>
      <point x="18" y="465"/>
      <point x="22" y="460"/>
      <point x="32" y="460" type="curve" smooth="yes"/>
      <point x="62" y="460" type="line" smooth="yes"/>
      <point x="72" y="460"/>
      <point x="79" y="465"/>
      <point x="82" y="475" type="curve" smooth="yes"/>
      <point x="137" y="630" type="line"/>
      <point x="192" y="475" type="line" smooth="yes"/>
      <point x="195" y="466"/>
      <point x="202" y="460"/>
      <point x="212" y="460" type="curve" smooth="yes"/>
      <point x="242" y="460" type="line" smooth="yes"/>
      <point x="252" y="460"/>
      <point x="256" y="465"/>
      <point x="252" y="475" type="curve" smooth="yes"/>
      <point x="177" y="685" type="line" smooth="yes"/>
      <point x="173" y="695"/>
      <point x="167" y="700"/>
      <point x="157" y="700" type="curve" smooth="yes"/>
    </contour>
  </outline>
</glyph>
<glyph name="underscore" format="1">
  <advance width="250"/>
  <unicode hex="005F"/>
  <outline>
    <contour>
      <point x="245" y="-150" type="line" smooth="yes" name="hr00"/>
      <point x="255" y="-150"/>
      <point x="260" y="-145"/>
      <point x="260" y="-135" type="curve" smooth="yes"/>
      <point x="260" y="-105" type="line" smooth="yes"/>
      <point x="260" y="-95"/>
      <point x="255" y="-90"/>
      <point x="245" y="-90" type="curve" smooth="yes"/>
      <point x="5" y="-90" type="line" smooth="yes"/>
      <point x="-5" y="-90"/>
      <point x="-10" y="-95"/>
      <point x="-10" y="-105" type="curve" smooth="yes"/>
      <point x="-10" y="-135" type="line" smooth="yes"/>
      <point x="-10" y="-145"/>
      <point x="-5" y="-150"/>
      <point x="5" y="-150" type="curve" smooth="yes"/>
    </contour>
  </outline>
</glyph>
<glyph name="grave" format="1">
  <advance width="164"/>
  <unicode hex="0060"/>
  <outline>
    <contour>
      <point x="122" y="580" type="line" name="hr00"/>
      <point x="132" y="580"/>
      <point x="135" y="585"/>
      <point x="132" y="595" type="curve" smooth="yes"/>
      <point x="102" y="685" type="line" smooth="yes"/>
      <point x="99" y="695"/>
      <point x="92" y="700"/>
      <point x="82" y="700" type="curve" smooth="yes"/>
      <point x="42" y="700" type="line" smooth="yes"/>
      <point x="32" y="700"/>
      <point x="27" y="694"/>
      <point x="32" y="685" type="curve" smooth="yes"/>
      <point x="87" y="595" type="line" smooth="yes"/>
      <point x="92" y="586"/>
      <point x="97" y="580"/>
      <point x="107" y="580" type="curve" smooth="yes"/>
    </contour>
  </outline>
</glyph>
<glyph name="a" format="1">
  <advance width="275"/>
  <unicode hex="0061"/>
  <outline>
    <contour>
      <point x="175" y="60" type="line" name="hr00"/>
      <point x="110" y="60" type="line" smooth="yes"/>
      <point x="100" y="60"/>
      <point x="95" y="65"/>
      <point x="95" y="75" type="curve" smooth="yes"/>
      <point x="95" y="155" type="line"/>
      <point x="95" y="165"/>
      <point x="100" y="170"/>
      <point x="110" y="170" type="curve"/>
      <point x="175" y="170" type="line"/>
    </contour>
    <contour>
      <point x="220" y="0" type="line" smooth="yes"/>
      <point x="230" y="0"/>
      <point x="235" y="5"/>
      <point x="235" y="15" type="curve"/>
      <point x="235" y="340" type="line" smooth="yes"/>
      <point x="235" y="375"/>
      <point x="210" y="400"/>
      <point x="175" y="400" type="curve" smooth="yes"/>
      <point x="95" y="400" type="line" smooth="yes"/>
      <point x="60" y="400"/>
      <point x="35" y="375"/>
      <point x="35" y="340" type="curve" smooth="yes"/>
      <point x="35" y="285" type="line" smooth="yes"/>
      <point x="35" y="275"/>
      <point x="40" y="270"/>
      <point x="50" y="270" type="curve" smooth="yes"/>
      <point x="80" y="270" type="line" smooth="yes"/>
      <point x="90" y="270"/>
      <point x="95" y="275"/>
      <point x="95" y="285" type="curve" smooth="yes"/>
      <point x="95" y="325" type="line" smooth="yes"/>
      <point x="95" y="335"/>
      <point x="100" y="340"/>
      <point x="110" y="340" type="curve" smooth="yes"/>
      <point x="160" y="340" type="line" smooth="yes"/>
      <point x="170" y="340"/>
      <point x="175" y="335"/>
      <point x="175" y="325" type="curve" smooth="yes"/>
      <point x="175" y="230" type="line"/>
      <point x="95" y="230" type="line"/>
      <point x="60" y="230"/>
      <point x="35" y="205"/>
      <point x="35" y="170" type="curve"/>
      <point x="35" y="60" type="line" smooth="yes"/>
      <point x="35" y="25"/>
      <point x="60" y="0"/>
      <point x="95" y="0" type="curve" smooth="yes"/>
    </contour>
  </outline>
</glyph>
<glyph name="b" format="1">
  <advance width="280"/>
  <unicode hex="0062"/>
  <outline>
    <contour>
      <point x="240" y="340" type="line" smooth="yes" name="hr00"/>
      <point x="240" y="375"/>
      <point x="215" y="400"/>
      <point x="180" y="400" type="curve" smooth="yes"/>
      <point x="100" y="400" type="line"/>
      <point x="100" y="685" type="line" smooth="yes"/>
      <point x="100" y="695"/>
      <point x="95" y="700"/>
      <point x="85" y="700" type="curve" smooth="yes"/>
      <point x="55" y="700" type="line" smooth="yes"/>
      <point x="45" y="700"/>
      <point x="40" y="695"/>
      <point x="40" y="685" type="curve" smooth="yes"/>
      <point x="40" y="15" type="line" smooth="yes"/>
      <point x="40" y="5"/>
      <point x="45" y="0"/>
      <point x="55" y="0" type="curve" smooth="yes"/>
      <point x="180" y="0" type="line" smooth="yes"/>
      <point x="215" y="0"/>
      <point x="240" y="25"/>
      <point x="240" y="60" type="curve" smooth="yes"/>
    </contour>
    <contour>
      <point x="180" y="75" type="line" smooth="yes"/>
      <point x="180" y="65"/>
      <point x="175" y="60"/>
      <point x="165" y="60" type="curve" smooth="yes"/>
      <point x="100" y="60" type="line"/>
      <point x="100" y="340" type="line"/>
      <point x="165" y="340" type="line" smooth="yes"/>
      <point x="175" y="340"/>
      <point x="180" y="335"/>
      <point x="180" y="325" type="curve" smooth="yes"/>
    </contour>
  </outline>
</glyph>
<glyph name="d" format="1">
  <advance width="280"/>
  <unicode hex="0064"/>
  <outline>
    <contour>
      <point x="40" y="60" type="line" smooth="yes" name="hr00"/>
      <point x="40" y="25"/>
      <point x="65" y="0"/>
      <point x="100" y="0" type="curve" smooth="yes"/>
      <point x="225" y="0" type="line" smooth="yes"/>
      <point x="235" y="0"/>
      <point x="240" y="5"/>
      <point x="240" y="15" type="curve" smooth="yes"/>
      <point x="240" y="685" type="line" smooth="yes"/>
      <point x="240" y="695"/>
      <point x="235" y="700"/>
      <point x="225" y="700" type="curve" smooth="yes"/>
      <point x="195" y="700" type="line" smooth="yes"/>
      <point x="185" y="700"/>
      <point x="180" y="695"/>
      <point x="180" y="685" type="curve" smooth="yes"/>
      <point x="180" y="400" type="line"/>
      <point x="100" y="400" type="line" smooth="yes"/>
      <point x="65" y="400"/>
      <point x="40" y="375"/>
      <point x="40" y="340" type="curve" smooth="yes"/>
    </contour>
    <contour>
      <point x="100" y="325" type="line" smooth="yes"/>
      <point x="100" y="335"/>
      <point x="105" y="340"/>
      <point x="115" y="340" type="curve" smooth="yes"/>
      <point x="180" y="340" type="line"/>
      <point x="180" y="60" type="line"/>
      <point x="115" y="60" type="line" smooth="yes"/>
      <point x="105" y="60"/>
      <point x="100" y="65"/>
      <point x="100" y="75" type="curve" smooth="yes"/>
    </contour>
  </outline>
</glyph>
<glyph name="g" format="1">
  <advance width="280"/>
  <unicode hex="0067"/>
  <outline>
    <contour>
      <point x="40" y="-140" type="line" smooth="yes" name="hr00"/>
      <point x="40" y="-175"/>
      <point x="65" y="-200"/>
      <point x="100" y="-200" type="curve" smooth="yes"/>
      <point x="180" y="-200" type="line" smooth="yes"/>
      <point x="215" y="-200"/>
      <point x="240" y="-175"/>
      <point x="240" y="-140" type="curve" smooth="yes"/>
      <point x="240" y="385" type="line" smooth="yes"/>
      <point x="240" y="395"/>
      <point x="235" y="400"/>
      <point x="225" y="400" type="curve" smooth="yes"/>
      <point x="100" y="400" type="line" smooth="yes"/>
      <point x="65" y="400"/>
      <point x="40" y="375"/>
      <point x="40" y="340" type="curve" smooth="yes"/>
      <point x="40" y="60" type="line" smooth="yes"/>
      <point x="40" y="25"/>
      <point x="65" y="0"/>
      <point x="100" y="0" type="curve" smooth="yes"/>
      <point x="180" y="0" type="line"/>
      <point x="180" y="-125" type="line" smooth="yes"/>
      <point x="180" y="-135"/>
      <point x="175" y="-140"/>
      <point x="165" y="-140" type="curve" smooth="yes"/>
      <point x="115" y="-140" type="line" smooth="yes"/>
      <point x="105" y="-140"/>
      <point x="100" y="-135"/>
      <point x="100" y="-125" type="curve" smooth="yes"/>
      <point x="100" y="-75" type="line" smooth="yes"/>
      <point x="100" y="-65"/>
      <point x="95" y="-60"/>
      <point x="85" y="-60" type="curve" smooth="yes"/>
      <point x="55" y="-60" type="line" smooth="yes"/>
      <point x="45" y="-60"/>
      <point x="40" y="-65"/>
      <point x="40" y="-75" type="curve" smooth="yes"/>
    </contour>
    <contour>
      <point x="100" y="325" type="line" smooth="yes"/>
      <point x="100" y="335"/>
      <point x="105" y="340"/>
      <point x="115" y="340" type="curve" smooth="yes"/>
      <point x="180" y="340" type="line"/>
      <point x="180" y="60" type="line"/>
      <point x="115" y="60" type="line" smooth="yes"/>
      <point x="105" y="60"/>
      <point x="100" y="65"/>
      <point x="100" y="75" type="curve" smooth="yes"/>
    </contour>
  </outline>
</glyph>
<glyph name="l" format="1">
  <advance width="140"/>
  <unicode hex="006C"/>
  <outline>
    <contour>
      <point x="40" y="15" type="line" smooth="yes" name="hr00"/>
      <point x="40" y="5"/>
      <point x="45" y="0"/>
      <point x="55" y="0" type="curve" smooth="yes"/>
      <point x="85" y="0" type="line" smooth="yes"/>
      <point x="95" y="0"/>
      <point x="100" y="5"/>
      <point x="100" y="15" type="curve" smooth="yes"/>
      <point x="100" y="685" type="line" smooth="yes"/>
      <point x="100" y="695"/>
      <point x="95" y="700"/>
      <point x="85" y="700" type="curve" smooth="yes"/>
      <point x="55" y="700" type="line" smooth="yes"/>
      <point x="45" y="700"/>
      <point x="40" y="695"/>
      <point x="40" y="685" type="curve" smooth="yes"/>
    </contour>
  </outline>
</glyph>
<glyph name="m" format="1">
  <advance width="420"/>
  <unicode hex="006D"/>
  <outline>
    <contour>
      <point x="320" y="15" type="line" smooth="yes" name="hr00"/>
      <point x="320" y="5"/>
      <point x="325" y="0"/>
      <point x="335" y="0" type="curve" smooth="yes"/>
      <point x="365" y="0" type="line" smooth="yes"/>
      <point x="375" y="0"/>
      <point x="380" y="5"/>
      <point x="380" y="15" type="curve" smooth="yes"/>
      <point x="380" y="340" type="line" smooth="yes"/>
      <point x="380" y="375"/>
      <point x="355" y="400"/>
      <point x="320" y="400" type="curve" smooth="yes"/>
      <point x="55" y="400" type="line" smooth="yes"/>
      <point x="45" y="400"/>
      <point x="40" y="395"/>
      <point x="40" y="385" type="curve" smooth="yes"/>
      <point x="40" y="15" type="line" smooth="yes"/>
      <point x="40" y="5"/>
      <point x="45" y="0"/>
      <point x="55" y="0" type="curve" smooth="yes"/>
      <point x="85" y="0" type="line" smooth="yes"/>
      <point x="95" y="0"/>
      <point x="100" y="5"/>
      <point x="100" y="15" type="curve" smooth="yes"/>
      <point x="100" y="340" type="line"/>
      <point x="165" y="340" type="line" smooth="yes"/>
      <point x="175" y="340"/>
      <point x="180" y="335"/>
      <point x="180" y="325" type="curve" smooth="yes"/>
      <point x="180" y="15" type="line" smooth="yes"/>
      <point x="180" y="5"/>
      <point x="185" y="0"/>
      <point x="195" y="0" type="curve" smooth="yes"/>
      <point x="225" y="0" type="line" smooth="yes"/>
      <point x="235" y="0"/>
      <point x="240" y="5"/>
      <point x="240" y="15" type="curve" smooth="yes"/>
      <point x="240" y="340" type="line"/>
      <point x="305" y="340" type="line" smooth="yes"/>
      <point x="315" y="340"/>
      <point x="320" y="335"/>
      <point x="320" y="325" type="curve" smooth="yes"/>
    </contour>
  </outline>
</glyph>
<glyph name="n" format="1">
  <advance width="280"/>
  <unicode hex="006E"/>
  <outline>
    <contour>
      <point x="180" y="15" type="line" smooth="yes" name="hr00"/>
      <point x="180" y="5"/>
      <point x="185" y="0"/>
      <point x="195" y="0" type="curve" smooth="yes"/>
      <point x="225" y="0" type="line" smooth="yes"/>
      <point x="235" y="0"/>
      <point x="240" y="5"/>
      <point x="240" y="15" type="curve" smooth="yes"/>
      <point x="240" y="340" type="line" smooth="yes"/>
      <point x="240" y="375"/>
      <point x="215" y="400"/>
      <point x="180" y="400" type="curve" smooth="yes"/>
      <point x="55" y="400" type="line" smooth="yes"/>
      <point x="45" y="400"/>
      <point x="40" y="395"/>
      <point x="40" y="385" type="curve" smooth="yes"/>
      <point x="40" y="15" type="line" smooth="yes"/>
      <point x="40" y="5"/>
      <point x="45" y="0"/>
      <point x="55" y="0" type="curve" smooth="yes"/>
      <point x="85" y="0" type="line" smooth="yes"/>
      <point x="95" y="0"/>
      <point x="100" y="5"/>
      <point x="100" y="15" type="curve" smooth="yes"/>
      <point x="100" y="340" type="line"/>
      <point x="165" y="340" type="line" smooth="yes"/>
      <point x="175" y="340"/>
      <point x="180" y="335"/>
      <point x="180" y="325" type="curve" smooth="yes"/>
    </contour>
  </outline>
</glyph>
<glyph name="q" format="1">
  <advance width="280"/>
  <unicode hex="0071"/>
  <outline>
    <contour>
      <point x="100" y="325" type="line" smooth="yes" name="hr00"/>
      <point x="100" y="335"/>
      <point x="105" y="340"/>
      <point x="115" y="340" type="curve" smooth="yes"/>
      <point x="180" y="340" type="line"/>
      <point x="180" y="60" type="line"/>
      <point x="115" y="60" type="line" smooth="yes"/>
      <point x="105" y="60"/>
      <point x="100" y="65"/>
      <point x="100" y="75" type="curve" smooth="yes"/>
    </contour>
    <contour>
      <point x="40" y="60" type="line" smooth="yes"/>
      <point x="40" y="25"/>
      <point x="65" y="0"/>
      <point x="100" y="0" type="curve" smooth="yes"/>
      <point x="180" y="0" type="line"/>
      <point x="180" y="-185" type="line" smooth="yes"/>
      <point x="180" y="-195"/>
      <point x="185" y="-200"/>
      <point x="195" y="-200" type="curve" smooth="yes"/>
      <point x="225" y="-200" type="line" smooth="yes"/>
      <point x="235" y="-200"/>
      <point x="240" y="-195"/>
      <point x="240" y="-185" type="curve" smooth="yes"/>
      <point x="240" y="385" type="line" smooth="yes"/>
      <point x="240" y="395"/>
      <point x="235" y="400"/>
      <point x="225" y="400" type="curve" smooth="yes"/>
      <point x="100" y="400" type="line" smooth="yes"/>
      <point x="65" y="400"/>
      <point x="40" y="375"/>
      <point x="40" y="340" type="curve" smooth="yes"/>
    </contour>
  </outline>
</glyph>
<glyph name="r" format="1">
  <advance width="210"/>
  <unicode hex="0072"/>
  <outline>
    <contour>
      <point x="195" y="400" type="curve" name="hr00"/>
      <point x="170" y="400" type="line" smooth="yes"/>
      <point x="110" y="400"/>
      <point x="100" y="340"/>
      <point x="100" y="340" type="curve"/>
      <point x="100" y="385" type="line" smooth="yes"/>
      <point x="100" y="395"/>
      <point x="95" y="400"/>
      <point x="85" y="400" type="curve" smooth="yes"/>
      <point x="55" y="400" type="line" smooth="yes"/>
      <point x="45" y="400"/>
      <point x="40" y="395"/>
      <point x="40" y="385" type="curve" smooth="yes"/>
      <point x="40" y="15" type="line" smooth="yes"/>
      <point x="40" y="5"/>
      <point x="45" y="0"/>
      <point x="55" y="0" type="curve" smooth="yes"/>
      <point x="85" y="0" type="line" smooth="yes"/>
      <point x="95" y="0"/>
      <point x="100" y="5"/>
      <point x="100" y="15" type="curve" smooth="yes"/>
      <point x="100" y="270" type="line" smooth="yes"/>
      <point x="100" y="310"/>
      <point x="130" y="340"/>
      <point x="170" y="340" type="curve" smooth="yes"/>
      <point x="195" y="340" type="line" smooth="yes"/>
      <point x="205" y="340"/>
      <point x="210" y="345"/>
      <point x="210" y="355" type="curve" smooth="yes"/>
      <point x="210" y="385" type="line" smooth="yes"/>
      <point x="210" y="395"/>
      <point x="205" y="400"/>
    </contour>
  </outline>
</glyph>
<glyph name="s" format="1">
  <advance width="270"/>
  <unicode hex="0073"/>
  <outline>
    <contour>
      <point x="235" y="125" type="line" smooth="yes" name="hr00"/>
      <point x="235" y="175"/>
      <point x="215" y="194"/>
      <point x="195" y="205" type="curve" smooth="yes"/>
      <point x="115" y="250" type="line" smooth="yes"/>
      <point x="105" y="255"/>
      <point x="95" y="265"/>
      <point x="95" y="295" type="curve"/>
      <point x="95" y="325" type="line"/>
      <point x="95" y="335"/>
      <point x="100" y="340"/>
      <point x="110" y="340" type="curve"/>
      <point x="160" y="340" type="line"/>
      <point x="170" y="340"/>
      <point x="175" y="335"/>
      <point x="175" y="325" type="curve"/>
      <point x="175" y="280" type="line"/>
      <point x="175" y="270"/>
      <point x="180" y="265"/>
      <point x="190" y="265" type="curve"/>
      <point x="220" y="265" type="line"/>
      <point x="230" y="265"/>
      <point x="235" y="270"/>
      <point x="235" y="280" type="curve"/>
      <point x="235" y="340" type="line"/>
      <point x="235" y="375"/>
      <point x="210" y="400"/>
      <point x="175" y="400" type="curve"/>
      <point x="95" y="400" type="line"/>
      <point x="60" y="400"/>
      <point x="35" y="375"/>
      <point x="35" y="340" type="curve"/>
      <point x="35" y="290" type="line"/>
      <point x="35" y="240"/>
      <point x="55" y="221"/>
      <point x="75" y="210" type="curve" smooth="yes"/>
      <point x="155" y="165" type="line" smooth="yes"/>
      <point x="165" y="160"/>
      <point x="175" y="150"/>
      <point x="175" y="120" type="curve"/>
      <point x="175" y="75" type="line"/>
      <point x="175" y="65"/>
      <point x="170" y="60"/>
      <point x="160" y="60" type="curve"/>
      <point x="110" y="60" type="line"/>
      <point x="100" y="60"/>
      <point x="95" y="65"/>
      <point x="95" y="75" type="curve"/>
      <point x="95" y="125" type="line"/>
      <point x="95" y="135"/>
      <point x="90" y="140"/>
      <point x="80" y="140" type="curve"/>
      <point x="50" y="140" type="line"/>
      <point x="40" y="140"/>
      <point x="35" y="135"/>
      <point x="35" y="125" type="curve"/>
      <point x="35" y="60" type="line"/>
      <point x="35" y="25"/>
      <point x="60" y="0"/>
      <point x="95" y="0" type="curve"/>
      <point x="175" y="0" type="line"/>
      <point x="210" y="0"/>
      <point x="235" y="25"/>
      <point x="235" y="60" type="curve"/>
    </contour>
  </outline>
</glyph>
<glyph name="t" format="1">
  <advance width="220"/>
  <unicode hex="0074"/>
  <outline>
    <contour>
      <point x="25" y="400" type="line" smooth="yes" name="hr00"/>
      <point x="15" y="400"/>
      <point x="10" y="395"/>
      <point x="10" y="385" type="curve" smooth="yes"/>
      <point x="10" y="355" type="line" smooth="yes"/>
      <point x="10" y="345"/>
      <point x="15" y="340"/>
      <point x="25" y="340" type="curve" smooth="yes"/>
      <point x="50" y="340" type="line"/>
      <point x="50" y="60" type="line" smooth="yes"/>
      <point x="50" y="25"/>
      <point x="75" y="0"/>
      <point x="110" y="0" type="curve" smooth="yes"/>
      <point x="185" y="0" type="line" smooth="yes"/>
      <point x="195" y="0"/>
      <point x="200" y="5"/>
      <point x="200" y="15" type="curve" smooth="yes"/>
      <point x="200" y="45" type="line" smooth="yes"/>
      <point x="200" y="55"/>
      <point x="195" y="60"/>
      <point x="185" y="60" type="curve" smooth="yes"/>
      <point x="125" y="60" type="line" smooth="yes"/>
      <point x="115" y="60"/>
      <point x="110" y="65"/>
      <point x="110" y="75" type="curve" smooth="yes"/>
      <point x="110" y="340" type="line"/>
      <point x="165" y="340" type="line" smooth="yes"/>
      <point x="175" y="340"/>
      <point x="180" y="345"/>
      <point x="180" y="355" type="curve" smooth="yes"/>
      <point x="180" y="385" type="line" smooth="yes"/>
      <point x="180" y="395"/>
      <point x="175" y="400"/>
      <point x="165" y="400" type="curve" smooth="yes"/>
      <point x="110" y="400" type="line"/>
      <point x="110" y="575" type="line" smooth="yes"/>
      <point x="110" y="585"/>
      <point x="105" y="590"/>
      <point x="95" y="590" type="curve" smooth="yes"/>
      <point x="65" y="590" type="line" smooth="yes"/>
      <point x="55" y="590"/>
      <point x="50" y="585"/>
      <point x="50" y="575" type="curve" smooth="yes"/>
      <point x="50" y="400" type="line"/>
    </contour>
  </outline>
</glyph>
<glyph name="u" format="1">
  <advance width="280"/>
  <unicode hex="0075"/>
  <outline>
    <contour>
      <point x="100" y="385" type="line" smooth="yes" name="hr00"/>
      <point x="100" y="395"/>
      <point x="95" y="400"/>
      <point x="85" y="400" type="curve" smooth="yes"/>
      <point x="55" y="400" type="line" smooth="yes"/>
      <point x="45" y="400"/>
      <point x="40" y="395"/>
      <point x="40" y="385" type="curve" smooth="yes"/>
      <point x="40" y="60" type="line" smooth="yes"/>
      <point x="40" y="25"/>
      <point x="65" y="0"/>
      <point x="100" y="0" type="curve" smooth="yes"/>
      <point x="225" y="0" type="line" smooth="yes"/>
      <point x="235" y="0"/>
      <point x="240" y="5"/>
      <point x="240" y="15" type="curve" smooth="yes"/>
      <point x="240" y="385" type="line" smooth="yes"/>
      <point x="240" y="395"/>
      <point x="235" y="400"/>
      <point x="225" y="400" type="curve" smooth="yes"/>
      <point x="195" y="400" type="line" smooth="yes"/>
      <point x="185" y="400"/>
      <point x="180" y="395"/>
      <point x="180" y="385" type="curve" smooth="yes"/>
      <point x="180" y="60" type="line"/>
      <point x="115" y="60" type="line" smooth="yes"/>
      <point x="105" y="60"/>
      <point x="100" y="65"/>
      <point x="100" y="75" type="curve" smooth="yes"/>
    </contour>
  </outline>
</glyph>
<glyph name="v" format="1">
  <advance width="252"/>
  <unicode hex="0076"/>
  <outline>
    <contour>
      <point x="151" y="0" type="line" smooth="yes" name="hr00"/>
      <point x="161" y="0"/>
      <point x="164" y="5"/>
      <point x="166" y="15" type="curve" smooth="yes"/>
      <point x="231" y="385" type="line" smooth="yes"/>
      <point x="233" y="395"/>
      <point x="231" y="400"/>
      <point x="216" y="400" type="curve" smooth="yes"/>
      <point x="186" y="400" type="line" smooth="yes"/>
      <point x="181" y="400"/>
      <point x="173" y="395"/>
      <point x="171" y="385" type="curve" smooth="yes"/>
      <point x="126" y="105" type="line"/>
      <point x="81" y="385" type="line" smooth="yes"/>
      <point x="79" y="395"/>
      <point x="71" y="400"/>
      <point x="66" y="400" type="curve" smooth="yes"/>
      <point x="36" y="400" type="line" smooth="yes"/>
      <point x="21" y="400"/>
      <point x="19" y="395"/>
      <point x="21" y="385" type="curve" smooth="yes"/>
      <point x="86" y="15" type="line" smooth="yes"/>
      <point x="88" y="5"/>
      <point x="91" y="0"/>
      <point x="101" y="0" type="curve" smooth="yes"/>
    </contour>
  </outline>
</glyph>
<glyph name="w" format="1">
  <advance width="382"/>
  <unicode hex="0077"/>
  <outline>
    <contour>
      <point x="176" y="295" type="line" smooth="yes" name="hr00"/>
      <point x="166" y="295"/>
      <point x="163" y="290"/>
      <point x="161" y="280" type="curve" smooth="yes"/>
      <point x="126" y="100" type="line"/>
      <point x="81" y="385" type="line" smooth="yes"/>
      <point x="79" y="395"/>
      <point x="71" y="400"/>
      <point x="66" y="400" type="curve" smooth="yes"/>
      <point x="36" y="400" type="line" smooth="yes"/>
      <point x="21" y="400"/>
      <point x="19" y="395"/>
      <point x="21" y="385" type="curve" smooth="yes"/>
      <point x="81" y="15" type="line" smooth="yes"/>
      <point x="83" y="5"/>
      <point x="86" y="0"/>
      <point x="96" y="0" type="curve" smooth="yes"/>
      <point x="141" y="0" type="line" smooth="yes"/>
      <point x="151" y="0"/>
      <point x="154" y="5"/>
      <point x="156" y="15" type="curve" smooth="yes"/>
      <point x="191" y="195" type="line"/>
      <point x="226" y="15" type="line" smooth="yes"/>
      <point x="228" y="5"/>
      <point x="231" y="0"/>
      <point x="241" y="0" type="curve" smooth="yes"/>
      <point x="286" y="0" type="line" smooth="yes"/>
      <point x="296" y="0"/>
      <point x="299" y="5"/>
      <point x="301" y="15" type="curve" smooth="yes"/>
      <point x="361" y="385" type="line" smooth="yes"/>
      <point x="363" y="395"/>
      <point x="361" y="400"/>
      <point x="346" y="400" type="curve" smooth="yes"/>
      <point x="316" y="400" type="line" smooth="yes"/>
      <point x="311" y="400"/>
      <point x="303" y="395"/>
      <point x="301" y="385" type="curve" smooth="yes"/>
      <point x="256" y="100" type="line"/>
      <point x="221" y="280" type="line" smooth="yes"/>
      <point x="219" y="290"/>
      <point x="216" y="295"/>
      <point x="206" y="295" type="curve" smooth="yes"/>
    </contour>
  </outline>
</glyph>
<glyph name="x" format="1">
  <advance width="254"/>
  <unicode hex="0078"/>
  <outline>
    <contour>
      <point x="87" y="385" type="line" name="hr00"/>
      <point x="84" y="395"/>
      <point x="77" y="400"/>
      <point x="67" y="400" type="curve" smooth="yes"/>
      <point x="37" y="400" type="line" smooth="yes"/>
      <point x="27" y="400"/>
      <point x="23" y="395"/>
      <point x="27" y="385" type="curve" smooth="yes"/>
      <point x="92" y="220" type="line"/>
      <point x="17" y="15" type="line" smooth="yes"/>
      <point x="14" y="5"/>
      <point x="17" y="0"/>
      <point x="27" y="0" type="curve" smooth="yes"/>
      <point x="57" y="0" type="line" smooth="yes"/>
      <point x="67" y="0"/>
      <point x="74" y="5"/>
      <point x="77" y="15" type="curve" smooth="yes"/>
      <point x="127" y="160" type="line"/>
      <point x="177" y="15" type="line" smooth="yes"/>
      <point x="180" y="5"/>
      <point x="187" y="0"/>
      <point x="197" y="0" type="curve" smooth="yes"/>
      <point x="227" y="0" type="line" smooth="yes"/>
      <point x="237" y="0"/>
      <point x="240" y="5"/>
      <point x="237" y="15" type="curve" smooth="yes"/>
      <point x="162" y="220" type="line"/>
      <point x="227" y="385" type="line" smooth="yes"/>
      <point x="231" y="395"/>
      <point x="227" y="400"/>
      <point x="217" y="400" type="curve" smooth="yes"/>
      <point x="187" y="400" type="line" smooth="yes"/>
      <point x="177" y="400"/>
      <point x="170" y="395"/>
      <point x="167" y="385" type="curve"/>
      <point x="127" y="275" type="line"/>
    </contour>
  </outline>
</glyph>
<glyph name="z" format="1">
  <advance width="222"/>
  <unicode hex="007A"/>
  <outline>
    <contour>
      <point x="211" y="385" type="line" smooth="yes" name="hr00"/>
      <point x="213" y="390"/>
      <point x="211" y="400"/>
      <point x="196" y="400" type="curve" smooth="yes"/>
      <point x="26" y="400" type="line" smooth="yes"/>
      <point x="16" y="400"/>
      <point x="11" y="395"/>
      <point x="11" y="385" type="curve" smooth="yes"/>
      <point x="11" y="355" type="line" smooth="yes"/>
      <point x="11" y="345"/>
      <point x="16" y="340"/>
      <point x="26" y="340" type="curve" smooth="yes"/>
      <point x="131" y="340" type="line"/>
      <point x="11" y="15" type="line" smooth="yes"/>
      <point x="9" y="10"/>
      <point x="11" y="0"/>
      <point x="26" y="0" type="curve" smooth="yes"/>
      <point x="196" y="0" type="line" smooth="yes"/>
      <point x="206" y="0"/>
      <point x="211" y="5"/>
      <point x="211" y="15" type="curve" smooth="yes"/>
      <point x="211" y="45" type="line" smooth="yes"/>
      <point x="211" y="55"/>
      <point x="206" y="60"/>
      <point x="196" y="60" type="curve" smooth="yes"/>
      <point x="91" y="60" type="line"/>
    </contour>
  </outline>
</glyph>
<glyph name="braceleft" format="1">
  <advance width="210"/>
  <unicode hex="007B"/>
  <outline>
    <contour>
      <point x="35" y="300" type="line" name="hr00"/>
      <point x="25" y="300"/>
      <point x="20" y="295"/>
      <point x="20" y="285" type="curve" smooth="yes"/>
      <point x="20" y="255" type="line" smooth="yes"/>
      <point x="20" y="245"/>
      <point x="25" y="240"/>
      <point x="35" y="240" type="curve"/>
      <point x="55" y="240" type="line"/>
      <point x="65" y="240"/>
      <point x="70" y="235"/>
      <point x="70" y="225" type="curve" smooth="yes"/>
      <point x="70" y="-100" type="line" smooth="yes"/>
      <point x="70" y="-135"/>
      <point x="95" y="-160"/>
      <point x="130" y="-160" type="curve" smooth="yes"/>
      <point x="175" y="-160" type="line" smooth="yes"/>
      <point x="185" y="-160"/>
      <point x="190" y="-155"/>
      <point x="190" y="-145" type="curve" smooth="yes"/>
      <point x="190" y="-115" type="line" smooth="yes"/>
      <point x="190" y="-105"/>
      <point x="185" y="-100"/>
      <point x="175" y="-100" type="curve" smooth="yes"/>
      <point x="145" y="-100" type="line" smooth="yes"/>
      <point x="135" y="-100"/>
      <point x="130" y="-95"/>
      <point x="130" y="-85" type="curve" smooth="yes"/>
      <point x="130" y="220" type="line" smooth="yes"/>
      <point x="130" y="265"/>
      <point x="90" y="270"/>
      <point x="90" y="270" type="curve"/>
      <point x="90" y="270"/>
      <point x="130" y="275"/>
      <point x="130" y="320" type="curve" smooth="yes"/>
      <point x="130" y="625" type="line" smooth="yes"/>
      <point x="130" y="635"/>
      <point x="135" y="640"/>
      <point x="145" y="640" type="curve" smooth="yes"/>
      <point x="175" y="640" type="line" smooth="yes"/>
      <point x="185" y="640"/>
      <point x="190" y="645"/>
      <point x="190" y="655" type="curve" smooth="yes"/>
      <point x="190" y="685" type="line" smooth="yes"/>
      <point x="190" y="695"/>
      <point x="185" y="700"/>
      <point x="175" y="700" type="curve" smooth="yes"/>
      <point x="130" y="700" type="line" smooth="yes"/>
      <point x="95" y="700"/>
      <point x="70" y="675"/>
      <point x="70" y="640" type="curve" smooth="yes"/>
      <point x="70" y="315" type="line" smooth="yes"/>
      <point x="70" y="305"/>
      <point x="65" y="300"/>
      <point x="55" y="300" type="curve" smooth="yes"/>
    </contour>
  </outline>
</glyph>
<glyph name="braceright" format="1">
  <advance width="210"/>
  <unicode hex="007D"/>
  <outline>
    <contour>
      <point x="155" y="300" type="line" smooth="yes" name="hr00"/>
      <point x="145" y="300"/>
      <point x="140" y="305"/>
      <point x="140" y="315" type="curve" smooth="yes"/>
      <point x="140" y="640" type="line" smooth="yes"/>
      <point x="140" y="675"/>
      <point x="115" y="700"/>
      <point x="80" y="700" type="curve" smooth="yes"/>
      <point x="35" y="700" type="line" smooth="yes"/>
      <point x="25" y="700"/>
      <point x="20" y="695"/>
      <point x="20" y="685" type="curve" smooth="yes"/>
      <point x="20" y="655" type="line" smooth="yes"/>
      <point x="20" y="645"/>
      <point x="25" y="640"/>
      <point x="35" y="640" type="curve" smooth="yes"/>
      <point x="65" y="640" type="line" smooth="yes"/>
      <point x="75" y="640"/>
      <point x="80" y="635"/>
      <point x="80" y="625" type="curve" smooth="yes"/>
      <point x="80" y="320" type="line" smooth="yes"/>
      <point x="80" y="275"/>
      <point x="120" y="270"/>
      <point x="120" y="270" type="curve"/>
      <point x="120" y="270"/>
      <point x="80" y="265"/>
      <point x="80" y="220" type="curve" smooth="yes"/>
      <point x="80" y="-85" type="line" smooth="yes"/>
      <point x="80" y="-95"/>
      <point x="75" y="-100"/>
      <point x="65" y="-100" type="curve" smooth="yes"/>
      <point x="35" y="-100" type="line" smooth="yes"/>
      <point x="25" y="-100"/>
      <point x="20" y="-105"/>
      <point x="20" y="-115" type="curve" smooth="yes"/>
      <point x="20" y="-145" type="line" smooth="yes"/>
      <point x="20" y="-155"/>
      <point x="25" y="-160"/>
      <point x="35" y="-160" type="curve" smooth="yes"/>
      <point x="80" y="-160" type="line" smooth="yes"/>
      <point x="115" y="-160"/>
      <point x="140" y="-135"/>
      <point x="140" y="-100" type="curve" smooth="yes"/>
      <point x="140" y="225" type="line" smooth="yes"/>
      <point x="140" y="235"/>
      <point x="145" y="240"/>
      <point x="155" y="240" type="curve" smooth="yes"/>
      <point x="175" y="240" type="line" smooth="yes"/>
      <point x="185" y="240"/>
      <point x="190" y="245"/>
      <point x="190" y="255" type="curve" smooth="yes"/>
      <point x="190" y="285" type="line" smooth="yes"/>
      <point x="190" y="295"/>
      <point x="185" y="300"/>
      <point x="175" y="300" type="curve"/>
    </contour>
  </outline>
</glyph>
<glyph name="asciitilde" format="1">
  <advance width="320"/>
  <unicode hex="007E"/>
  <outline>
    <contour>
      <point x="100" y="350" type="curve" name="hr00"/>
      <point x="80" y="350" type="line" smooth="yes"/>
      <point x="45" y="350"/>
      <point x="20" y="325"/>
      <point x="20" y="290" type="curve" smooth="yes"/>
      <point x="20" y="215" type="line" smooth="yes"/>
      <point x="20" y="205"/>
      <point x="25" y="200"/>
      <point x="35" y="200" type="curve" smooth="yes"/>
      <point x="65" y="200" type="line" smooth="yes"/>
      <point x="75" y="200"/>
      <point x="80" y="205"/>
      <point x="80" y="215" type="curve" smooth="yes"/>
      <point x="80" y="275" type="line" smooth="yes"/>
      <point x="80" y="285"/>
      <point x="85" y="290"/>
      <point x="95" y="290" type="curve"/>
      <point x="95" y="290" type="line"/>
      <point x="115" y="290"/>
      <point x="124" y="280"/>
      <point x="130" y="270" type="curve" smooth="yes"/>
      <point x="150" y="240" type="line" smooth="yes"/>
      <point x="162" y="220"/>
      <point x="180" y="200"/>
      <point x="220" y="200" type="curve" smooth="yes"/>
      <point x="240" y="200" type="line" smooth="yes"/>
      <point x="275" y="200"/>
      <point x="300" y="225"/>
      <point x="300" y="260" type="curve" smooth="yes"/>
      <point x="300" y="335" type="line" smooth="yes"/>
      <point x="300" y="345"/>
      <point x="295" y="350"/>
      <point x="285" y="350" type="curve" smooth="yes"/>
      <point x="255" y="350" type="line" smooth="yes"/>
      <point x="245" y="350"/>
      <point x="240" y="345"/>
      <point x="240" y="335" type="curve" smooth="yes"/>
      <point x="240" y="275" type="line" smooth="yes"/>
      <point x="240" y="265"/>
      <point x="235" y="260"/>
      <point x="225" y="260" type="curve"/>
      <point x="225" y="260" type="line"/>
      <point x="205" y="260"/>
      <point x="196" y="270"/>
      <point x="190" y="280" type="curve" smooth="yes"/>
      <point x="170" y="310" type="line" smooth="yes"/>
      <point x="158" y="330"/>
      <point x="140" y="350"/>
    </contour>
  </outline>
</glyph>
<glyph name="exclamdown" format="1">
  <advance width="160"/>
  <unicode hex="00A1"/>
  <outline>
    <contour>
      <point x="50" y="355" type="line" name="hr00"/>
      <point x="50" y="345"/>
      <point x="55" y="340"/>
      <point x="65" y="340" type="curve" smooth="yes"/>
      <point x="95" y="340" type="line" smooth="yes"/>
      <point x="105" y="340"/>
      <point x="110" y="345"/>
      <point x="110" y="355" type="curve" smooth="yes"/>
      <point x="110" y="385" type="line" smooth="yes"/>
      <point x="110" y="395"/>
      <point x="105" y="400"/>
      <point x="95" y="400" type="curve" smooth="yes"/>
      <point x="65" y="400" type="line" smooth="yes"/>
      <point x="55" y="400"/>
      <point x="50" y="395"/>
      <point x="50" y="385" type="curve" smooth="yes"/>
    </contour>
    <contour>
      <point x="50" y="-185" type="line"/>
      <point x="50" y="-195"/>
      <point x="55" y="-200"/>
      <point x="65" y="-200" type="curve" smooth="yes"/>
      <point x="95" y="-200" type="line" smooth="yes"/>
      <point x="105" y="-200"/>
      <point x="110" y="-195"/>
      <point x="110" y="-185" type="curve" smooth="yes"/>
      <point x="110" y="245" type="line"/>
      <point x="110" y="255"/>
      <point x="105" y="260"/>
      <point x="95" y="260" type="curve" smooth="yes"/>
      <point x="65" y="260" type="line" smooth="yes"/>
      <point x="55" y="260"/>
      <point x="50" y="255"/>
      <point x="50" y="245" type="curve" smooth="yes"/>
    </contour>
  </outline>
</glyph>
<glyph name="cent" format="1">
  <advance width="275"/>
  <unicode hex="00A2"/>
  <outline>
    <contour>
      <point x="110" y="-45" type="line" smooth="yes" name="hr00"/>
      <point x="110" y="-55"/>
      <point x="115" y="-60"/>
      <point x="125" y="-60" type="curve" smooth="yes"/>
      <point x="155" y="-60" type="line" smooth="yes"/>
      <point x="165" y="-60"/>
      <point x="170" y="-55"/>
      <point x="170" y="-45" type="curve" smooth="yes"/>
      <point x="170" y="0" type="line"/>
      <point x="180" y="0" type="line" smooth="yes"/>
      <point x="215" y="0"/>
      <point x="240" y="25"/>
      <point x="240" y="60" type="curve" smooth="yes"/>
      <point x="240" y="125" type="line" smooth="yes"/>
      <point x="240" y="135"/>
      <point x="235" y="140"/>
      <point x="225" y="140" type="curve" smooth="yes"/>
      <point x="195" y="140" type="line" smooth="yes"/>
      <point x="185" y="140"/>
      <point x="180" y="135"/>
      <point x="180" y="125" type="curve" smooth="yes"/>
      <point x="180" y="75" type="line" smooth="yes"/>
      <point x="180" y="65"/>
      <point x="175" y="60"/>
      <point x="165" y="60" type="curve" smooth="yes"/>
      <point x="115" y="60" type="line" smooth="yes"/>
      <point x="105" y="60"/>
      <point x="100" y="65"/>
      <point x="100" y="75" type="curve" smooth="yes"/>
      <point x="100" y="325" type="line" smooth="yes"/>
      <point x="100" y="335"/>
      <point x="105" y="340"/>
      <point x="115" y="340" type="curve" smooth="yes"/>
      <point x="165" y="340" type="line" smooth="yes"/>
      <point x="175" y="340"/>
      <point x="180" y="335"/>
      <point x="180" y="325" type="curve" smooth="yes"/>
      <point x="180" y="280" type="line" smooth="yes"/>
      <point x="180" y="270"/>
      <point x="185" y="265"/>
      <point x="195" y="265" type="curve" smooth="yes"/>
      <point x="225" y="265" type="line" smooth="yes"/>
      <point x="235" y="265"/>
      <point x="240" y="270"/>
      <point x="240" y="280" type="curve" smooth="yes"/>
      <point x="240" y="340" type="line" smooth="yes"/>
      <point x="240" y="375"/>
      <point x="215" y="400"/>
      <point x="180" y="400" type="curve" smooth="yes"/>
      <point x="170" y="400" type="line"/>
      <point x="170" y="445" type="line" smooth="yes"/>
      <point x="170" y="455"/>
      <point x="165" y="460"/>
      <point x="155" y="460" type="curve" smooth="yes"/>
      <point x="125" y="460" type="line" smooth="yes"/>
      <point x="115" y="460"/>
      <point x="110" y="455"/>
      <point x="110" y="445" type="curve" smooth="yes"/>
      <point x="110" y="400" type="line"/>
      <point x="100" y="400" type="line" smooth="yes"/>
      <point x="65" y="400"/>
      <point x="40" y="375"/>
      <point x="40" y="340" type="curve" smooth="yes"/>
      <point x="40" y="60" type="line" smooth="yes"/>
      <point x="40" y="25"/>
      <point x="65" y="0"/>
      <point x="100" y="0" type="curve" smooth="yes"/>
      <point x="110" y="0" type="line"/>
    </contour>
  </outline>
</glyph>
<glyph name="sterling" format="1">
  <advance width="260"/>
  <unicode hex="00A3"/>
  <outline>
    <contour>
      <point x="245" y="0" type="line" smooth="yes" name="hr00"/>
      <point x="255" y="0"/>
      <point x="260" y="5"/>
      <point x="260" y="15" type="curve" smooth="yes"/>
      <point x="260" y="45" type="line" smooth="yes"/>
      <point x="260" y="55"/>
      <point x="255" y="60"/>
      <point x="245" y="60" type="curve" smooth="yes"/>
      <point x="140" y="60" type="line"/>
      <point x="140" y="340" type="line"/>
      <point x="195" y="340" type="line" smooth="yes"/>
      <point x="205" y="340"/>
      <point x="210" y="345"/>
      <point x="210" y="355" type="curve" smooth="yes"/>
      <point x="210" y="385" type="line" smooth="yes"/>
      <point x="210" y="395"/>
      <point x="205" y="400"/>
      <point x="195" y="400" type="curve" smooth="yes"/>
      <point x="140" y="400" type="line"/>
      <point x="140" y="625" type="line" smooth="yes"/>
      <point x="140" y="635"/>
      <point x="145" y="640"/>
      <point x="155" y="640" type="curve" smooth="yes"/>
      <point x="215" y="640" type="line" smooth="yes"/>
      <point x="225" y="640"/>
      <point x="230" y="645"/>
      <point x="230" y="655" type="curve" smooth="yes"/>
      <point x="230" y="685" type="line" smooth="yes"/>
      <point x="230" y="695"/>
      <point x="225" y="700"/>
      <point x="215" y="700" type="curve" smooth="yes"/>
      <point x="140" y="700" type="line" smooth="yes"/>
      <point x="105" y="700"/>
      <point x="80" y="675"/>
      <point x="80" y="640" type="curve" smooth="yes"/>
      <point x="80" y="400" type="line"/>
      <point x="55" y="400" type="line" smooth="yes"/>
      <point x="45" y="400"/>
      <point x="40" y="395"/>
      <point x="40" y="385" type="curve" smooth="yes"/>
      <point x="40" y="355" type="line" smooth="yes"/>
      <point x="40" y="345"/>
      <point x="45" y="340"/>
      <point x="55" y="340" type="curve" smooth="yes"/>
      <point x="80" y="340" type="line"/>
      <point x="80" y="60" type="line"/>
      <point x="35" y="60" type="line" smooth="yes"/>
      <point x="25" y="60"/>
      <point x="20" y="55"/>
      <point x="20" y="45" type="curve" smooth="yes"/>
      <point x="20" y="15" type="line" smooth="yes"/>
      <point x="20" y="5"/>
      <point x="25" y="0"/>
      <point x="35" y="0" type="curve" smooth="yes"/>
    </contour>
  </outline>
</glyph>
<glyph name="currency" format="1">
  <advance width="330"/>
  <unicode hex="00A4"/>
  <outline>
    <contour>
      <point x="245" y="190" type="line" smooth="yes" name="hr00"/>
      <point x="255" y="190"/>
      <point x="260" y="195"/>
      <point x="260" y="205" type="curve" smooth="yes"/>
      <point x="260" y="235" type="line" smooth="yes"/>
      <point x="260" y="245"/>
      <point x="255" y="250"/>
      <point x="245" y="250" type="curve" smooth="yes"/>
      <point x="130" y="250" type="line"/>
      <point x="130" y="310" type="line"/>
      <point x="230" y="310" type="line" smooth="yes"/>
      <point x="265" y="310"/>
      <point x="290" y="335"/>
      <point x="290" y="370" type="curve" smooth="yes"/>
      <point x="290" y="640" type="line" smooth="yes"/>
      <point x="290" y="675"/>
      <point x="265" y="700"/>
      <point x="230" y="700" type="curve" smooth="yes"/>
      <point x="85" y="700" type="line" smooth="yes"/>
      <point x="75" y="700"/>
      <point x="70" y="695"/>
      <point x="70" y="685" type="curve" smooth="yes"/>
      <point x="70" y="370" type="line"/>
      <point x="45" y="370" type="line" smooth="yes"/>
      <point x="35" y="370"/>
      <point x="30" y="365"/>
      <point x="30" y="355" type="curve" smooth="yes"/>
      <point x="30" y="325" type="line" smooth="yes"/>
      <point x="30" y="315"/>
      <point x="35" y="310"/>
      <point x="45" y="310" type="curve" smooth="yes"/>
      <point x="70" y="310" type="line"/>
      <point x="70" y="250" type="line"/>
      <point x="45" y="250" type="line" smooth="yes"/>
      <point x="35" y="250"/>
      <point x="30" y="245"/>
      <point x="30" y="235" type="curve" smooth="yes"/>
      <point x="30" y="205" type="line" smooth="yes"/>
      <point x="30" y="195"/>
      <point x="35" y="190"/>
      <point x="45" y="190" type="curve" smooth="yes"/>
      <point x="70" y="190" type="line"/>
      <point x="70" y="15" type="line" smooth="yes"/>
      <point x="70" y="5"/>
      <point x="75" y="0"/>
      <point x="85" y="0" type="curve" smooth="yes"/>
      <point x="115" y="0" type="line" smooth="yes"/>
      <point x="125" y="0"/>
      <point x="130" y="5"/>
      <point x="130" y="15" type="curve" smooth="yes"/>
      <point x="130" y="190" type="line"/>
    </contour>
    <contour>
      <point x="215" y="640" type="line" smooth="yes"/>
      <point x="225" y="640"/>
      <point x="230" y="635"/>
      <point x="230" y="625" type="curve" smooth="yes"/>
      <point x="230" y="385" type="line" smooth="yes"/>
      <point x="230" y="375"/>
      <point x="225" y="370"/>
      <point x="215" y="370" type="curve" smooth="yes"/>
      <point x="130" y="370" type="line"/>
      <point x="130" y="640" type="line"/>
    </contour>
  </outline>
</glyph>
<glyph name="yen" format="1">
  <advance width="262"/>
  <unicode hex="00A5"/>
  <outline>
    <contour>
      <point x="216" y="120" type="line" smooth="yes" name="hr00"/>
      <point x="226" y="120"/>
      <point x="231" y="125"/>
      <point x="231" y="135" type="curve" smooth="yes"/>
      <point x="231" y="165" type="line" smooth="yes"/>
      <point x="231" y="175"/>
      <point x="226" y="180"/>
      <point x="216" y="180" type="curve" smooth="yes"/>
      <point x="161" y="180" type="line"/>
      <point x="161" y="230" type="line"/>
      <point x="216" y="230" type="line" smooth="yes"/>
      <point x="226" y="230"/>
      <point x="231" y="235"/>
      <point x="231" y="245" type="curve" smooth="yes"/>
      <point x="231" y="275" type="line" smooth="yes"/>
      <point x="231" y="285"/>
      <point x="226" y="290"/>
      <point x="216" y="290" type="curve" smooth="yes"/>
      <point x="161" y="290" type="line"/>
      <point x="251" y="685" type="line" smooth="yes"/>
      <point x="253" y="695"/>
      <point x="251" y="700"/>
      <point x="241" y="700" type="curve" smooth="yes"/>
      <point x="211" y="700" type="line" smooth="yes"/>
      <point x="201" y="700"/>
      <point x="193" y="695"/>
      <point x="191" y="685" type="curve" smooth="yes"/>
      <point x="131" y="410" type="line"/>
      <point x="71" y="685" type="line" smooth="yes"/>
      <point x="69" y="695"/>
      <point x="61" y="700"/>
      <point x="51" y="700" type="curve" smooth="yes"/>
      <point x="21" y="700" type="line" smooth="yes"/>
      <point x="11" y="700"/>
      <point x="9" y="695"/>
      <point x="11" y="685" type="curve" smooth="yes"/>
      <point x="101" y="290" type="line"/>
      <point x="46" y="290" type="line" smooth="yes"/>
      <point x="36" y="290"/>
      <point x="31" y="285"/>
      <point x="31" y="275" type="curve" smooth="yes"/>
      <point x="31" y="245" type="line" smooth="yes"/>
      <point x="31" y="235"/>
      <point x="36" y="230"/>
      <point x="46" y="230" type="curve" smooth="yes"/>
      <point x="101" y="230" type="line"/>
      <point x="101" y="180" type="line"/>
      <point x="46" y="180" type="line" smooth="yes"/>
      <point x="36" y="180"/>
      <point x="31" y="175"/>
      <point x="31" y="165" type="curve" smooth="yes"/>
      <point x="31" y="135" type="line" smooth="yes"/>
      <point x="31" y="125"/>
      <point x="36" y="120"/>
      <point x="46" y="120" type="curve" smooth="yes"/>
      <point x="101" y="120" type="line"/>
      <point x="101" y="15" type="line" smooth="yes"/>
      <point x="101" y="5"/>
      <point x="106" y="0"/>
      <point x="116" y="0" type="curve" smooth="yes"/>
      <point x="146" y="0" type="line" smooth="yes"/>
      <point x="156" y="0"/>
      <point x="161" y="5"/>
      <point x="161" y="15" type="curve" smooth="yes"/>
      <point x="161" y="120" type="line"/>
    </contour>
  </outline>
</glyph>
<glyph name="brokenbar" format="1">
  <advance width="160"/>
  <unicode hex="00A6"/>
  <outline>
    <contour>
      <point x="50" y="-185" type="line" smooth="yes" name="hr00"/>
      <point x="50" y="-195"/>
      <point x="55" y="-200"/>
      <point x="65" y="-200" type="curve" smooth="yes"/>
      <point x="95" y="-200" type="line" smooth="yes"/>
      <point x="105" y="-200"/>
      <point x="110" y="-195"/>
      <point x="110" y="-185" type="curve" smooth="yes"/>
      <point x="110" y="185" type="line" smooth="yes"/>
      <point x="110" y="195"/>
      <point x="105" y="200"/>
      <point x="95" y="200" type="curve" smooth="yes"/>
      <point x="65" y="200" type="line" smooth="yes"/>
      <point x="55" y="200"/>
      <point x="50" y="195"/>
      <point x="50" y="185" type="curve" smooth="yes"/>
    </contour>
    <contour>
      <point x="50" y="315" type="line" smooth="yes"/>
      <point x="50" y="305"/>
      <point x="55" y="300"/>
      <point x="65" y="300" type="curve" smooth="yes"/>
      <point x="95" y="300" type="line" smooth="yes"/>
      <point x="105" y="300"/>
      <point x="110" y="305"/>
      <point x="110" y="315" type="curve" smooth="yes"/>
      <point x="110" y="685" type="line" smooth="yes"/>
      <point x="110" y="695"/>
      <point x="105" y="700"/>
      <point x="95" y="700" type="curve" smooth="yes"/>
      <point x="65" y="700" type="line" smooth="yes"/>
      <point x="55" y="700"/>
      <point x="50" y="695"/>
      <point x="50" y="685" type="curve" smooth="yes"/>
    </contour>
  </outline>
</glyph>
<glyph name="section" format="1">
  <advance width="310"/>
  <unicode hex="00A7"/>
  <outline>
    <contour>
      <point x="45" y="230" type="line" smooth="yes" name="hr00"/>
      <point x="45" y="180"/>
      <point x="65" y="158"/>
      <point x="85" y="140" type="curve" smooth="yes"/>
      <point x="185" y="50" type="line" smooth="yes"/>
      <point x="195" y="41"/>
      <point x="205" y="30"/>
      <point x="205" y="0" type="curve"/>
      <point x="205" y="-125" type="line" smooth="yes"/>
      <point x="205" y="-135"/>
      <point x="200" y="-140"/>
      <point x="190" y="-140" type="curve" smooth="yes"/>
      <point x="120" y="-140" type="line" smooth="yes"/>
      <point x="110" y="-140"/>
      <point x="105" y="-135"/>
      <point x="105" y="-125" type="curve" smooth="yes"/>
      <point x="105" y="-30" type="line" smooth="yes"/>
      <point x="105" y="-20"/>
      <point x="100" y="-15"/>
      <point x="90" y="-15" type="curve" smooth="yes"/>
      <point x="60" y="-15" type="line" smooth="yes"/>
      <point x="50" y="-15"/>
      <point x="45" y="-20"/>
      <point x="45" y="-30" type="curve" smooth="yes"/>
      <point x="45" y="-140" type="line" smooth="yes"/>
      <point x="45" y="-175"/>
      <point x="70" y="-200"/>
      <point x="105" y="-200" type="curve" smooth="yes"/>
      <point x="205" y="-200" type="line" smooth="yes"/>
      <point x="240" y="-200"/>
      <point x="265" y="-175"/>
      <point x="265" y="-140" type="curve" smooth="yes"/>
      <point x="265" y="270" type="line" smooth="yes"/>
      <point x="265" y="320"/>
      <point x="245" y="342"/>
      <point x="225" y="360" type="curve" smooth="yes"/>
      <point x="125" y="450" type="line" smooth="yes"/>
      <point x="115" y="459"/>
      <point x="105" y="470"/>
      <point x="105" y="500" type="curve" smooth="yes"/>
      <point x="105" y="625" type="line" smooth="yes"/>
      <point x="105" y="635"/>
      <point x="110" y="640"/>
      <point x="120" y="640" type="curve" smooth="yes"/>
      <point x="190" y="640" type="line" smooth="yes"/>
      <point x="200" y="640"/>
      <point x="205" y="635"/>
      <point x="205" y="625" type="curve" smooth="yes"/>
      <point x="205" y="530" type="line" smooth="yes"/>
      <point x="205" y="520"/>
      <point x="210" y="515"/>
      <point x="220" y="515" type="curve" smooth="yes"/>
      <point x="250" y="515" type="line" smooth="yes"/>
      <point x="260" y="515"/>
      <point x="265" y="520"/>
      <point x="265" y="530" type="curve" smooth="yes"/>
      <point x="265" y="640" type="line" smooth="yes"/>
      <point x="265" y="675"/>
      <point x="240" y="700"/>
      <point x="205" y="700" type="curve" smooth="yes"/>
      <point x="105" y="700" type="line" smooth="yes"/>
      <point x="70" y="700"/>
      <point x="45" y="675"/>
      <point x="45" y="640" type="curve" smooth="yes"/>
    </contour>
    <contour>
      <point x="185" y="310" type="line" smooth="yes"/>
      <point x="195" y="301"/>
      <point x="205" y="290"/>
      <point x="205" y="260" type="curve" smooth="yes"/>
      <point x="205" y="120" type="line"/>
      <point x="125" y="190" type="line" smooth="yes"/>
      <point x="115" y="199"/>
      <point x="105" y="210"/>
      <point x="105" y="240" type="curve" smooth="yes"/>
      <point x="105" y="380" type="line"/>
    </contour>
  </outline>
</glyph>
<glyph name="dieresis" format="1">
  <advance width="230"/>
  <unicode hex="00A8"/>
  <outline>
    <contour>
      <point x="30" y="655" type="line" smooth="yes" name="hr00"/>
      <point x="30" y="645"/>
      <point x="35" y="640"/>
      <point x="45" y="640" type="curve" smooth="yes"/>
      <point x="75" y="640" type="line" smooth="yes"/>
      <point x="85" y="640"/>
      <point x="90" y="645"/>
      <point x="90" y="655" type="curve" smooth="yes"/>
      <point x="90" y="685" type="line" smooth="yes"/>
      <point x="90" y="695"/>
      <point x="85" y="700"/>
      <point x="75" y="700" type="curve" smooth="yes"/>
      <point x="45" y="700" type="line" smooth="yes"/>
      <point x="35" y="700"/>
      <point x="30" y="695"/>
      <point x="30" y="685" type="curve" smooth="yes"/>
    </contour>
    <contour>
      <point x="140" y="655" type="line" smooth="yes"/>
      <point x="140" y="645"/>
      <point x="145" y="640"/>
      <point x="155" y="640" type="curve" smooth="yes"/>
      <point x="185" y="640" type="line" smooth="yes"/>
      <point x="195" y="640"/>
      <point x="200" y="645"/>
      <point x="200" y="655" type="curve" smooth="yes"/>
      <point x="200" y="685" type="line" smooth="yes"/>
      <point x="200" y="695"/>
      <point x="195" y="700"/>
      <point x="185" y="700" type="curve" smooth="yes"/>
      <point x="155" y="700" type="line" smooth="yes"/>
      <point x="145" y="700"/>
      <point x="140" y="695"/>
      <point x="140" y="685" type="curve" smooth="yes"/>
    </contour>
  </outline>
</glyph>
<glyph name="copyright" format="1">
  <advance width="580"/>
  <unicode hex="00A9"/>
  <outline>
    <contour>
      <point x="60" y="60" type="line" smooth="yes" name="hr00"/>
      <point x="60" y="25"/>
      <point x="85" y="0"/>
      <point x="120" y="0" type="curve" smooth="yes"/>
      <point x="460" y="0" type="line" smooth="yes"/>
      <point x="495" y="0"/>
      <point x="520" y="25"/>
      <point x="520" y="60" type="curve" smooth="yes"/>
      <point x="520" y="640" type="line" smooth="yes"/>
      <point x="520" y="675"/>
      <point x="495" y="700"/>
      <point x="460" y="700" type="curve" smooth="yes"/>
      <point x="120" y="700" type="line" smooth="yes"/>
      <point x="85" y="700"/>
      <point x="60" y="675"/>
      <point x="60" y="640" type="curve" smooth="yes"/>
    </contour>
    <contour>
      <point x="445" y="60" type="curve"/>
      <point x="135" y="60" type="line" smooth="yes"/>
      <point x="125" y="60"/>
      <point x="120" y="65"/>
      <point x="120" y="75" type="curve" smooth="yes"/>
      <point x="120" y="625" type="line" smooth="yes"/>
      <point x="120" y="635"/>
      <point x="125" y="640"/>
      <point x="135" y="640" type="curve" smooth="yes"/>
      <point x="445" y="640" type="line" smooth="yes"/>
      <point x="455" y="640"/>
      <point x="460" y="635"/>
      <point x="460" y="625" type="curve" smooth="yes"/>
      <point x="460" y="75" type="line" smooth="yes"/>
      <point x="460" y="65"/>
      <point x="455" y="60"/>
    </contour>
    <contour>
      <point x="390" y="275" type="line" smooth="yes"/>
      <point x="390" y="285"/>
      <point x="385" y="290"/>
      <point x="375" y="290" type="curve" smooth="yes"/>
      <point x="345" y="290" type="line" smooth="yes"/>
      <point x="335" y="290"/>
      <point x="330" y="285"/>
      <point x="330" y="275" type="curve"/>
      <point x="330" y="225" type="line"/>
      <point x="330" y="215"/>
      <point x="325" y="210"/>
      <point x="315" y="210" type="curve"/>
      <point x="265" y="210" type="line"/>
      <point x="255" y="210"/>
      <point x="250" y="215"/>
      <point x="250" y="225" type="curve"/>
      <point x="250" y="475" type="line"/>
      <point x="250" y="485"/>
      <point x="255" y="490"/>
      <point x="265" y="490" type="curve"/>
      <point x="315" y="490" type="line"/>
      <point x="325" y="490"/>
      <point x="330" y="485"/>
      <point x="330" y="475" type="curve"/>
      <point x="330" y="430" type="line"/>
      <point x="330" y="420"/>
      <point x="335" y="415"/>
      <point x="345" y="415" type="curve" smooth="yes"/>
      <point x="375" y="415" type="line" smooth="yes"/>
      <point x="385" y="415"/>
      <point x="390" y="420"/>
      <point x="390" y="430" type="curve"/>
      <point x="390" y="490" type="line" smooth="yes"/>
      <point x="390" y="525"/>
      <point x="365" y="550"/>
      <point x="330" y="550" type="curve"/>
      <point x="250" y="550" type="line"/>
      <point x="215" y="550"/>
      <point x="190" y="525"/>
      <point x="190" y="490" type="curve"/>
      <point x="190" y="210" type="line"/>
      <point x="190" y="175"/>
      <point x="215" y="150"/>
      <point x="250" y="150" type="curve"/>
      <point x="330" y="150" type="line"/>
      <point x="365" y="150"/>
      <point x="390" y="175"/>
      <point x="390" y="210" type="curve"/>
    </contour>
  </outline>
</glyph>
<glyph name="ordfeminine" format="1">
  <advance width="280"/>
  <unicode hex="00AA"/>
  <outline>
    <contour>
      <point x="180" y="360" type="line" name="hr00"/>
      <point x="115" y="360" type="line" smooth="yes"/>
      <point x="105" y="360"/>
      <point x="100" y="365"/>
      <point x="100" y="375" type="curve" smooth="yes"/>
      <point x="100" y="455" type="line" smooth="yes"/>
      <point x="100" y="465"/>
      <point x="105" y="470"/>
      <point x="115" y="470" type="curve" smooth="yes"/>
      <point x="180" y="470" type="line"/>
    </contour>
    <contour>
      <point x="225" y="300" type="line" smooth="yes"/>
      <point x="235" y="300"/>
      <point x="240" y="305"/>
      <point x="240" y="315" type="curve" smooth="yes"/>
      <point x="240" y="640" type="line" smooth="yes"/>
      <point x="240" y="675"/>
      <point x="215" y="700"/>
      <point x="180" y="700" type="curve" smooth="yes"/>
      <point x="100" y="700" type="line" smooth="yes"/>
      <point x="65" y="700"/>
      <point x="40" y="675"/>
      <point x="40" y="640" type="curve" smooth="yes"/>
      <point x="40" y="585" type="line" smooth="yes"/>
      <point x="40" y="575"/>
      <point x="45" y="570"/>
      <point x="55" y="570" type="curve" smooth="yes"/>
      <point x="85" y="570" type="line" smooth="yes"/>
      <point x="95" y="570"/>
      <point x="100" y="575"/>
      <point x="100" y="585" type="curve" smooth="yes"/>
      <point x="100" y="625" type="line" smooth="yes"/>
      <point x="100" y="635"/>
      <point x="105" y="640"/>
      <point x="115" y="640" type="curve" smooth="yes"/>
      <point x="165" y="640" type="line" smooth="yes"/>
      <point x="175" y="640"/>
      <point x="180" y="635"/>
      <point x="180" y="625" type="curve" smooth="yes"/>
      <point x="180" y="530" type="line"/>
      <point x="100" y="530" type="line" smooth="yes"/>
      <point x="65" y="530"/>
      <point x="40" y="505"/>
      <point x="40" y="470" type="curve" smooth="yes"/>
      <point x="40" y="360" type="line" smooth="yes"/>
      <point x="40" y="325"/>
      <point x="65" y="300"/>
      <point x="100" y="300" type="curve" smooth="yes"/>
    </contour>
  </outline>
</glyph>
<glyph name="guillemotleft" format="1">
  <advance width="312"/>
  <unicode hex="00AB"/>
  <outline>
    <contour>
      <point x="30" y="200" type="curve" name="hr00"/>
      <point x="30" y="190"/>
      <point x="40" y="170"/>
      <point x="40" y="170" type="curve"/>
      <point x="100" y="40" type="line" smooth="yes"/>
      <point x="105" y="30"/>
      <point x="110" y="25"/>
      <point x="120" y="25" type="curve" smooth="yes"/>
      <point x="150" y="25" type="line" smooth="yes"/>
      <point x="160" y="25"/>
      <point x="165" y="30"/>
      <point x="160" y="40" type="curve" smooth="yes"/>
      <point x="100" y="170" type="line"/>
      <point x="100" y="170"/>
      <point x="90" y="190"/>
      <point x="90" y="200" type="curve"/>
      <point x="90" y="210"/>
      <point x="100" y="230"/>
      <point x="100" y="230" type="curve"/>
      <point x="160" y="360" type="line" smooth="yes"/>
      <point x="165" y="370"/>
      <point x="160" y="375"/>
      <point x="150" y="375" type="curve" smooth="yes"/>
      <point x="120" y="375" type="line" smooth="yes"/>
      <point x="110" y="375"/>
      <point x="105" y="370"/>
      <point x="100" y="360" type="curve" smooth="yes"/>
      <point x="40" y="230" type="line"/>
      <point x="40" y="230"/>
      <point x="30" y="210"/>
    </contour>
    <contour>
      <point x="150" y="200" type="curve" smooth="yes"/>
      <point x="150" y="190"/>
      <point x="160" y="170"/>
      <point x="160" y="170" type="curve"/>
      <point x="220" y="40" type="line" smooth="yes"/>
      <point x="225" y="30"/>
      <point x="230" y="25"/>
      <point x="240" y="25" type="curve" smooth="yes"/>
      <point x="270" y="25" type="line" smooth="yes"/>
      <point x="280" y="25"/>
      <point x="285" y="30"/>
      <point x="280" y="40" type="curve" smooth="yes"/>
      <point x="220" y="170" type="line"/>
      <point x="220" y="170"/>
      <point x="210" y="190"/>
      <point x="210" y="200" type="curve" smooth="yes"/>
      <point x="210" y="210"/>
      <point x="220" y="230"/>
      <point x="220" y="230" type="curve"/>
      <point x="280" y="360" type="line" smooth="yes"/>
      <point x="285" y="370"/>
      <point x="280" y="375"/>
      <point x="270" y="375" type="curve" smooth="yes"/>
      <point x="240" y="375" type="line" smooth="yes"/>
      <point x="230" y="375"/>
      <point x="225" y="370"/>
      <point x="220" y="360" type="curve" smooth="yes"/>
      <point x="160" y="230" type="line"/>
      <point x="160" y="230"/>
      <point x="150" y="210"/>
    </contour>
  </outline>
</glyph>
<glyph name="logicalnot" format="1">
  <advance width="310"/>
  <unicode hex="00AC"/>
  <outline>
    <contour>
      <point x="230" y="205" type="line" smooth="yes" name="hr00"/>
      <point x="230" y="195"/>
      <point x="235" y="190"/>
      <point x="245" y="190" type="curve" smooth="yes"/>
      <point x="275" y="190" type="line" smooth="yes"/>
      <point x="285" y="190"/>
      <point x="290" y="195"/>
      <point x="290" y="205" type="curve" smooth="yes"/>
      <point x="290" y="325" type="line" smooth="yes"/>
      <point x="290" y="335"/>
      <point x="285" y="340"/>
      <point x="275" y="340" type="curve" smooth="yes"/>
      <point x="35" y="340" type="line" smooth="yes"/>
      <point x="25" y="340"/>
      <point x="20" y="335"/>
      <point x="20" y="325" type="curve" smooth="yes"/>
      <point x="20" y="295" type="line" smooth="yes"/>
      <point x="20" y="285"/>
      <point x="25" y="280"/>
      <point x="35" y="280" type="curve" smooth="yes"/>
      <point x="230" y="280" type="line"/>
    </contour>
  </outline>
</glyph>
<glyph name="uni00AD" format="1">
  <advance width="310"/>
  <unicode hex="00AD"/>
  <outline>
    <contour>
      <point x="275" y="240" type="line" smooth="yes" name="hr00"/>
      <point x="285" y="240"/>
      <point x="290" y="245"/>
      <point x="290" y="255" type="curve" smooth="yes"/>
      <point x="290" y="285" type="line" smooth="yes"/>
      <point x="290" y="295"/>
      <point x="285" y="300"/>
      <point x="275" y="300" type="curve" smooth="yes"/>
      <point x="35" y="300" type="line" smooth="yes"/>
      <point x="25" y="300"/>
      <point x="20" y="295"/>
      <point x="20" y="285" type="curve" smooth="yes"/>
      <point x="20" y="255" type="line" smooth="yes"/>
      <point x="20" y="245"/>
      <point x="25" y="240"/>
      <point x="35" y="240" type="curve" smooth="yes"/>
    </contour>
  </outline>
</glyph>
<glyph name="registered" format="1">
  <advance width="580"/>
  <unicode hex="00AE"/>
  <outline>
    <contour>
      <point x="60" y="60" type="line" smooth="yes" name="hr00"/>
      <point x="60" y="25"/>
      <point x="85" y="0"/>
      <point x="120" y="0" type="curve" smooth="yes"/>
      <point x="460" y="0" type="line" smooth="yes"/>
      <point x="495" y="0"/>
      <point x="520" y="25"/>
      <point x="520" y="60" type="curve" smooth="yes"/>
      <point x="520" y="640" type="line" smooth="yes"/>
      <point x="520" y="675"/>
      <point x="495" y="700"/>
      <point x="460" y="700" type="curve" smooth="yes"/>
      <point x="120" y="700" type="line" smooth="yes"/>
      <point x="85" y="700"/>
      <point x="60" y="675"/>
      <point x="60" y="640" type="curve" smooth="yes"/>
    </contour>
    <contour>
      <point x="445" y="60" type="curve"/>
      <point x="135" y="60" type="line" smooth="yes"/>
      <point x="125" y="60"/>
      <point x="120" y="65"/>
      <point x="120" y="75" type="curve" smooth="yes"/>
      <point x="120" y="625" type="line" smooth="yes"/>
      <point x="120" y="635"/>
      <point x="125" y="640"/>
      <point x="135" y="640" type="curve" smooth="yes"/>
      <point x="445" y="640" type="line" smooth="yes"/>
      <point x="455" y="640"/>
      <point x="460" y="635"/>
      <point x="460" y="625" type="curve" smooth="yes"/>
      <point x="460" y="75" type="line" smooth="yes"/>
      <point x="460" y="65"/>
      <point x="455" y="60"/>
    </contour>
    <contour>
      <point x="385" y="490" type="line" smooth="yes"/>
      <point x="385" y="525"/>
      <point x="360" y="550"/>
      <point x="325" y="550" type="curve" smooth="yes"/>
      <point x="210" y="550" type="line" smooth="yes"/>
      <point x="200" y="550"/>
      <point x="195" y="545"/>
      <point x="195" y="535" type="curve" smooth="yes"/>
      <point x="195" y="165" type="line" smooth="yes"/>
      <point x="195" y="155"/>
      <point x="200" y="150"/>
      <point x="210" y="150" type="curve" smooth="yes"/>
      <point x="240" y="150" type="line" smooth="yes"/>
      <point x="250" y="150"/>
      <point x="255" y="155"/>
      <point x="255" y="165" type="curve" smooth="yes"/>
      <point x="255" y="310" type="line"/>
      <point x="285" y="310" type="line"/>
      <point x="346" y="165" type="line" smooth="yes"/>
      <point x="350" y="155"/>
      <point x="356" y="150"/>
      <point x="366" y="150" type="curve" smooth="yes"/>
      <point x="396" y="150" type="line" smooth="yes"/>
      <point x="406" y="150"/>
      <point x="410" y="155"/>
      <point x="406" y="165" type="curve" smooth="yes"/>
      <point x="340" y="320" type="line"/>
      <point x="340" y="320"/>
      <point x="385" y="330"/>
      <point x="385" y="380" type="curve" smooth="yes"/>
    </contour>
    <contour>
      <point x="325" y="385" type="line" smooth="yes"/>
      <point x="325" y="375"/>
      <point x="320" y="370"/>
      <point x="310" y="370" type="curve" smooth="yes"/>
      <point x="255" y="370" type="line"/>
      <point x="255" y="490" type="line"/>
      <point x="310" y="490" type="line" smooth="yes"/>
      <point x="320" y="490"/>
      <point x="325" y="485"/>
      <point x="325" y="475" type="curve" smooth="yes"/>
    </contour>
  </outline>
</glyph>
<glyph name="macron" format="1">
  <advance width="250"/>
  <unicode hex="00AF"/>
  <outline>
    <contour>
      <point x="205" y="640" type="line" smooth="yes" name="hr00"/>
      <point x="215" y="640"/>
      <point x="220" y="645"/>
      <point x="220" y="655" type="curve" smooth="yes"/>
      <point x="220" y="685" type="line" smooth="yes"/>
      <point x="220" y="695"/>
      <point x="215" y="700"/>
      <point x="205" y="700" type="curve" smooth="yes"/>
      <point x="45" y="700" type="line" smooth="yes"/>
      <point x="35" y="700"/>
      <point x="30" y="695"/>
      <point x="30" y="685" type="curve" smooth="yes"/>
      <point x="30" y="655" type="line" smooth="yes"/>
      <point x="30" y="645"/>
      <point x="35" y="640"/>
      <point x="45" y="640" type="curve" smooth="yes"/>
    </contour>
  </outline>
</glyph>
<glyph name="degree" format="1">
  <advance width="280"/>
  <unicode hex="00B0"/>
  <outline>
    <contour>
      <point x="190" y="555" type="line" smooth="yes" name="hr00"/>
      <point x="190" y="545"/>
      <point x="185" y="540"/>
      <point x="175" y="540" type="curve" smooth="yes"/>
      <point x="105" y="540" type="line" smooth="yes"/>
      <point x="95" y="540"/>
      <point x="90" y="545"/>
      <point x="90" y="555" type="curve" smooth="yes"/>
      <point x="90" y="635" type="line" smooth="yes"/>
      <point x="90" y="645"/>
      <point x="95" y="650"/>
      <point x="105" y="650" type="curve" smooth="yes"/>
      <point x="175" y="650" type="line" smooth="yes"/>
      <point x="185" y="650"/>
      <point x="190" y="645"/>
      <point x="190" y="635" type="curve" smooth="yes"/>
    </contour>
    <contour>
      <point x="240" y="640" type="line" smooth="yes"/>
      <point x="240" y="675"/>
      <point x="215" y="700"/>
      <point x="180" y="700" type="curve" smooth="yes"/>
      <point x="100" y="700" type="line" smooth="yes"/>
      <point x="65" y="700"/>
      <point x="40" y="675"/>
      <point x="40" y="640" type="curve" smooth="yes"/>
      <point x="40" y="550" type="line" smooth="yes"/>
      <point x="40" y="515"/>
      <point x="65" y="490"/>
      <point x="100" y="490" type="curve" smooth="yes"/>
      <point x="180" y="490" type="line" smooth="yes"/>
      <point x="215" y="490"/>
      <point x="240" y="515"/>
      <point x="240" y="550" type="curve" smooth="yes"/>
    </contour>
  </outline>
</glyph>
<glyph name="plusminus" format="1">
  <advance width="340"/>
  <unicode hex="00B1"/>
  <outline>
    <contour>
      <point x="295" y="80" type="line" smooth="yes" name="hr00"/>
      <point x="305" y="80"/>
      <point x="310" y="85"/>
      <point x="310" y="95" type="curve" smooth="yes"/>
      <point x="310" y="125" type="line" smooth="yes"/>
      <point x="310" y="135"/>
      <point x="305" y="140"/>
      <point x="295" y="140" type="curve" smooth="yes"/>
      <point x="200" y="140" type="line"/>
      <point x="200" y="280" type="line"/>
      <point x="295" y="280" type="line" smooth="yes"/>
      <point x="305" y="280"/>
      <point x="310" y="285"/>
      <point x="310" y="295" type="curve" smooth="yes"/>
      <point x="310" y="325" type="line" smooth="yes"/>
      <point x="310" y="335"/>
      <point x="305" y="340"/>
      <point x="295" y="340" type="curve" smooth="yes"/>
      <point x="200" y="340" type="line"/>
      <point x="200" y="445" type="line" smooth="yes"/>
      <point x="200" y="455"/>
      <point x="195" y="460"/>
      <point x="185" y="460" type="curve" smooth="yes"/>
      <point x="155" y="460" type="line" smooth="yes"/>
      <point x="145" y="460"/>
      <point x="140" y="455"/>
      <point x="140" y="445" type="curve" smooth="yes"/>
      <point x="140" y="340" type="line"/>
      <point x="45" y="340" type="line" smooth="yes"/>
      <point x="35" y="340"/>
      <point x="30" y="335"/>
      <point x="30" y="325" type="curve" smooth="yes"/>
      <point x="30" y="295" type="line" smooth="yes"/>
      <point x="30" y="285"/>
      <point x="35" y="280"/>
      <point x="45" y="280" type="curve" smooth="yes"/>
      <point x="140" y="280" type="line"/>
      <point x="140" y="140" type="line"/>
      <point x="45" y="140" type="line" smooth="yes"/>
      <point x="35" y="140"/>
      <point x="30" y="135"/>
      <point x="30" y="125" type="curve" smooth="yes"/>
      <point x="30" y="95" type="line" smooth="yes"/>
      <point x="30" y="85"/>
      <point x="35" y="80"/>
      <point x="45" y="80" type="curve" smooth="yes"/>
    </contour>
  </outline>
</glyph>
<glyph name="twosuperior" format="1">
  <advance width="260"/>
  <unicode hex="00B2"/>
  <outline>
    <contour>
      <point x="30" y="315" type="line" smooth="yes" name="hr00"/>
      <point x="30" y="305"/>
      <point x="35" y="300"/>
      <point x="45" y="300" type="curve" smooth="yes"/>
      <point x="215" y="300" type="line" smooth="yes"/>
      <point x="225" y="300"/>
      <point x="230" y="305"/>
      <point x="230" y="315" type="curve" smooth="yes"/>
      <point x="230" y="345" type="line" smooth="yes"/>
      <point x="230" y="355"/>
      <point x="225" y="360"/>
      <point x="215" y="360" type="curve" smooth="yes"/>
      <point x="90" y="360" type="line"/>
      <point x="90" y="390" type="line" smooth="yes"/>
      <point x="90" y="420"/>
      <point x="100" y="430"/>
      <point x="110" y="435" type="curve" smooth="yes"/>
      <point x="190" y="480" type="line" smooth="yes"/>
      <point x="210" y="491"/>
      <point x="230" y="510"/>
      <point x="230" y="560" type="curve" smooth="yes"/>
      <point x="230" y="640" type="line" smooth="yes"/>
      <point x="230" y="675"/>
      <point x="205" y="700"/>
      <point x="170" y="700" type="curve" smooth="yes"/>
      <point x="90" y="700" type="line" smooth="yes"/>
      <point x="55" y="700"/>
      <point x="30" y="675"/>
      <point x="30" y="640" type="curve" smooth="yes"/>
      <point x="30" y="580" type="line" smooth="yes"/>
      <point x="30" y="570"/>
      <point x="35" y="565"/>
      <point x="45" y="565" type="curve" smooth="yes"/>
      <point x="75" y="565" type="line" smooth="yes"/>
      <point x="85" y="565"/>
      <point x="90" y="570"/>
      <point x="90" y="580" type="curve" smooth="yes"/>
      <point x="90" y="625" type="line" smooth="yes"/>
      <point x="90" y="635"/>
      <point x="95" y="640"/>
      <point x="105" y="640" type="curve" smooth="yes"/>
      <point x="155" y="640" type="line" smooth="yes"/>
      <point x="165" y="640"/>
      <point x="170" y="635"/>
      <point x="170" y="625" type="curve" smooth="yes"/>
      <point x="170" y="565" type="line" smooth="yes"/>
      <point x="170" y="535"/>
      <point x="160" y="525"/>
      <point x="150" y="520" type="curve" smooth="yes"/>
      <point x="70" y="475" type="line" smooth="yes"/>
      <point x="50" y="464"/>
      <point x="30" y="445"/>
      <point x="30" y="395" type="curve" smooth="yes"/>
    </contour>
  </outline>
</glyph>
<glyph name="threesuperior" format="1">
  <advance width="270"/>
  <unicode hex="00B3"/>
  <outline>
    <contour>
      <point x="30" y="360" type="line" smooth="yes" name="hr00"/>
      <point x="30" y="325"/>
      <point x="55" y="300"/>
      <point x="90" y="300" type="curve" smooth="yes"/>
      <point x="170" y="300" type="line" smooth="yes"/>
      <point x="205" y="300"/>
      <point x="230" y="325"/>
      <point x="230" y="360" type="curve" smooth="yes"/>
      <point x="230" y="460" type="line" smooth="yes"/>
      <point x="230" y="500"/>
      <point x="195" y="510"/>
      <point x="195" y="510" type="curve"/>
      <point x="195" y="510"/>
      <point x="230" y="520"/>
      <point x="230" y="560" type="curve" smooth="yes"/>
      <point x="230" y="640" type="line" smooth="yes"/>
      <point x="230" y="675"/>
      <point x="205" y="700"/>
      <point x="170" y="700" type="curve" smooth="yes"/>
      <point x="90" y="700" type="line" smooth="yes"/>
      <point x="55" y="700"/>
      <point x="30" y="675"/>
      <point x="30" y="640" type="curve" smooth="yes"/>
      <point x="30" y="580" type="line" smooth="yes"/>
      <point x="30" y="570"/>
      <point x="35" y="565"/>
      <point x="45" y="565" type="curve" smooth="yes"/>
      <point x="75" y="565" type="line" smooth="yes"/>
      <point x="85" y="565"/>
      <point x="90" y="570"/>
      <point x="90" y="580" type="curve" smooth="yes"/>
      <point x="90" y="625" type="line" smooth="yes"/>
      <point x="90" y="635"/>
      <point x="95" y="640"/>
      <point x="105" y="640" type="curve" smooth="yes"/>
      <point x="155" y="640" type="line" smooth="yes"/>
      <point x="165" y="640"/>
      <point x="170" y="635"/>
      <point x="170" y="625" type="curve" smooth="yes"/>
      <point x="170" y="555" type="line" smooth="yes"/>
      <point x="170" y="545"/>
      <point x="165" y="540"/>
      <point x="155" y="540" type="curve" smooth="yes"/>
      <point x="115" y="540" type="line" smooth="yes"/>
      <point x="105" y="540"/>
      <point x="100" y="535"/>
      <point x="100" y="525" type="curve" smooth="yes"/>
      <point x="100" y="495" type="line" smooth="yes"/>
      <point x="100" y="485"/>
      <point x="105" y="480"/>
      <point x="115" y="480" type="curve" smooth="yes"/>
      <point x="155" y="480" type="line" smooth="yes"/>
      <point x="165" y="480"/>
      <point x="170" y="475"/>
      <point x="170" y="465" type="curve" smooth="yes"/>
      <point x="170" y="375" type="line" smooth="yes"/>
      <point x="170" y="365"/>
      <point x="165" y="360"/>
      <point x="155" y="360" type="curve" smooth="yes"/>
      <point x="105" y="360" type="line" smooth="yes"/>
      <point x="95" y="360"/>
      <point x="90" y="365"/>
      <point x="90" y="375" type="curve" smooth="yes"/>
      <point x="90" y="425" type="line" smooth="yes"/>
      <point x="90" y="435"/>
      <point x="85" y="440"/>
      <point x="75" y="440" type="curve" smooth="yes"/>
      <point x="45" y="440" type="line" smooth="yes"/>
      <point x="35" y="440"/>
      <point x="30" y="435"/>
      <point x="30" y="425" type="curve" smooth="yes"/>
    </contour>
  </outline>
</glyph>
<glyph name="acute" format="1">
  <advance width="164"/>
  <unicode hex="00B4"/>
  <outline>
    <contour>
      <point x="42" y="580" type="curve" name="hr00"/>
      <point x="57" y="580" type="line" smooth="yes"/>
      <point x="67" y="580"/>
      <point x="72" y="586"/>
      <point x="77" y="595" type="curve" smooth="yes"/>
      <point x="132" y="685" type="line" smooth="yes"/>
      <point x="137" y="694"/>
      <point x="132" y="700"/>
      <point x="122" y="700" type="curve" smooth="yes"/>
      <point x="82" y="700" type="line" smooth="yes"/>
      <point x="72" y="700"/>
      <point x="65" y="695"/>
      <point x="62" y="685" type="curve" smooth="yes"/>
      <point x="32" y="595" type="line" smooth="yes"/>
      <point x="29" y="585"/>
      <point x="32" y="580"/>
    </contour>
  </outline>
</glyph>
<glyph name="mu" format="1">
  <advance width="300"/>
  <unicode hex="00B5"/>
  <outline>
    <contour>
      <point x="240" y="385" type="line" smooth="yes" name="hr00"/>
      <point x="240" y="395"/>
      <point x="235" y="400"/>
      <point x="225" y="400" type="curve" smooth="yes"/>
      <point x="195" y="400" type="line" smooth="yes"/>
      <point x="185" y="400"/>
      <point x="180" y="395"/>
      <point x="180" y="385" type="curve" smooth="yes"/>
      <point x="180" y="75" type="line" smooth="yes"/>
      <point x="180" y="66"/>
      <point x="175" y="60"/>
      <point x="165" y="60" type="curve"/>
      <point x="100" y="60" type="line"/>
      <point x="100" y="385" type="line" smooth="yes"/>
      <point x="100" y="395"/>
      <point x="95" y="400"/>
      <point x="85" y="400" type="curve" smooth="yes"/>
      <point x="55" y="400" type="line" smooth="yes"/>
      <point x="45" y="400"/>
      <point x="40" y="395"/>
      <point x="40" y="385" type="curve" smooth="yes"/>
      <point x="40" y="-185" type="line" smooth="yes"/>
      <point x="40" y="-195"/>
      <point x="45" y="-200"/>
      <point x="55" y="-200" type="curve" smooth="yes"/>
      <point x="85" y="-200" type="line" smooth="yes"/>
      <point x="95" y="-200"/>
      <point x="100" y="-195"/>
      <point x="100" y="-185" type="curve" smooth="yes"/>
      <point x="100" y="0" type="line"/>
      <point x="275" y="0" type="line" smooth="yes"/>
      <point x="285" y="0"/>
      <point x="290" y="5"/>
      <point x="290" y="15" type="curve" smooth="yes"/>
      <point x="290" y="45" type="line" smooth="yes"/>
      <point x="290" y="55"/>
      <point x="285" y="60"/>
      <point x="275" y="60" type="curve" smooth="yes"/>
      <point x="255" y="60" type="line"/>
      <point x="245" y="60"/>
      <point x="240" y="66"/>
      <point x="240" y="75" type="curve"/>
    </contour>
  </outline>
</glyph>
<glyph name="paragraph" format="1">
  <advance width="360"/>
  <unicode hex="00B6"/>
  <outline>
    <contour>
      <point x="200" y="576" type="line" name="hr00"/>
      <point x="200" y="580" type="line"/>
      <point x="200" y="640" type="line"/>
      <point x="250" y="640" type="line"/>
      <point x="250" y="15" type="line" smooth="yes"/>
      <point x="250" y="5"/>
      <point x="255" y="0"/>
      <point x="265" y="0" type="curve" smooth="yes"/>
      <point x="295" y="0" type="line" smooth="yes"/>
      <point x="305" y="0"/>
      <point x="310" y="5"/>
      <point x="310" y="15" type="curve" smooth="yes"/>
      <point x="310" y="685" type="line" smooth="yes"/>
      <point x="310" y="695"/>
      <point x="305" y="700"/>
      <point x="295" y="700" type="curve" smooth="yes"/>
      <point x="100" y="700" type="line" smooth="yes"/>
      <point x="65" y="700"/>
      <point x="40" y="675"/>
      <point x="40" y="640" type="curve" smooth="yes"/>
      <point x="40" y="400" type="line" smooth="yes"/>
      <point x="40" y="365"/>
      <point x="65" y="340"/>
      <point x="100" y="340" type="curve" smooth="yes"/>
      <point x="140" y="340" type="line"/>
      <point x="140" y="15" type="line" smooth="yes"/>
      <point x="140" y="5"/>
      <point x="145" y="0"/>
      <point x="155" y="0" type="curve" smooth="yes"/>
      <point x="185" y="0" type="line" smooth="yes"/>
      <point x="195" y="0"/>
      <point x="200" y="5"/>
      <point x="200" y="15" type="curve" smooth="yes"/>
    </contour>
  </outline>
</glyph>
<glyph name="periodcentered" format="1">
  <advance width="120"/>
  <unicode hex="00B7"/>
  <outline>
    <contour>
      <point x="30" y="325" type="line" smooth="yes" name="hr00"/>
      <point x="30" y="315"/>
      <point x="35" y="310"/>
      <point x="45" y="310" type="curve" smooth="yes"/>
      <point x="75" y="310" type="line" smooth="yes"/>
      <point x="85" y="310"/>
      <point x="90" y="315"/>
      <point x="90" y="325" type="curve" smooth="yes"/>
      <point x="90" y="355" type="line" smooth="yes"/>
      <point x="90" y="365"/>
      <point x="85" y="370"/>
      <point x="75" y="370" type="curve" smooth="yes"/>
      <point x="45" y="370" type="line" smooth="yes"/>
      <point x="35" y="370"/>
      <point x="30" y="365"/>
      <point x="30" y="355" type="curve" smooth="yes"/>
    </contour>
  </outline>
</glyph>
<glyph name="cedilla" format="1">
  <advance width="175"/>
  <unicode hex="00B8"/>
  <outline>
    <contour>
      <point x="85" y="-170" type="line" smooth="yes" name="hr00"/>
      <point x="120" y="-170"/>
      <point x="145" y="-145"/>
      <point x="145" y="-110" type="curve" smooth="yes"/>
      <point x="145" y="-100" type="line" smooth="yes"/>
      <point x="145" y="-65"/>
      <point x="120" y="-40"/>
      <point x="85" y="-40" type="curve"/>
      <point x="100" y="10" type="line"/>
      <point x="65" y="10" type="line"/>
      <point x="40" y="-70" type="line"/>
      <point x="36" y="-80"/>
      <point x="40" y="-85"/>
      <point x="50" y="-85" type="curve" smooth="yes"/>
      <point x="85" y="-85" type="line" smooth="yes"/>
      <point x="95" y="-85"/>
      <point x="100" y="-90"/>
      <point x="100" y="-100" type="curve" smooth="yes"/>
      <point x="100" y="-110" type="line" smooth="yes"/>
      <point x="100" y="-120"/>
      <point x="95" y="-125"/>
      <point x="85" y="-125" type="curve" smooth="yes"/>
      <point x="45" y="-125" type="line" smooth="yes"/>
      <point x="35" y="-125"/>
      <point x="30" y="-130"/>
      <point x="30" y="-140" type="curve" smooth="yes"/>
      <point x="30" y="-155" type="line" smooth="yes"/>
      <point x="30" y="-165"/>
      <point x="35" y="-170"/>
      <point x="45" y="-170" type="curve" smooth="yes"/>
    </contour>
  </outline>
</glyph>
<glyph name="onesuperior" format="1">
  <advance width="180"/>
  <unicode hex="00B9"/>
  <outline>
    <contour>
      <point x="140" y="685" type="line" smooth="yes" name="hr00"/>
      <point x="140" y="695"/>
      <point x="135" y="700"/>
      <point x="125" y="700" type="curve" smooth="yes"/>
      <point x="45" y="700" type="line" smooth="yes"/>
      <point x="35" y="700"/>
      <point x="30" y="695"/>
      <point x="30" y="685" type="curve" smooth="yes"/>
      <point x="30" y="655" type="line" smooth="yes"/>
      <point x="30" y="645"/>
      <point x="35" y="640"/>
      <point x="45" y="640" type="curve" smooth="yes"/>
      <point x="80" y="640" type="line"/>
      <point x="80" y="315" type="line" smooth="yes"/>
      <point x="80" y="305"/>
      <point x="85" y="300"/>
      <point x="95" y="300" type="curve" smooth="yes"/>
      <point x="125" y="300" type="line" smooth="yes"/>
      <point x="135" y="300"/>
      <point x="140" y="305"/>
      <point x="140" y="315" type="curve" smooth="yes"/>
    </contour>
  </outline>
</glyph>
<glyph name="ordmasculine" format="1">
  <advance width="275"/>
  <unicode hex="00BA"/>
  <outline>
    <contour>
      <point x="100" y="625" type="line" smooth="yes" name="hr00"/>
      <point x="100" y="634"/>
      <point x="103" y="640"/>
      <point x="115" y="640" type="curve" smooth="yes"/>
      <point x="160" y="640" type="line" smooth="yes"/>
      <point x="172" y="640"/>
      <point x="175" y="634"/>
      <point x="175" y="625" type="curve" smooth="yes"/>
      <point x="175" y="375" type="line" smooth="yes"/>
      <point x="175" y="366"/>
      <point x="172" y="360"/>
      <point x="160" y="360" type="curve" smooth="yes"/>
      <point x="115" y="360" type="line" smooth="yes"/>
      <point x="103" y="360"/>
      <point x="100" y="366"/>
      <point x="100" y="375" type="curve" smooth="yes"/>
    </contour>
    <contour>
      <point x="40" y="360" type="line" smooth="yes"/>
      <point x="40" y="325"/>
      <point x="65" y="300"/>
      <point x="100" y="300" type="curve" smooth="yes"/>
      <point x="175" y="300" type="line" smooth="yes"/>
      <point x="210" y="300"/>
      <point x="235" y="325"/>
      <point x="235" y="360" type="curve" smooth="yes"/>
      <point x="235" y="640" type="line" smooth="yes"/>
      <point x="235" y="675"/>
      <point x="210" y="700"/>
      <point x="175" y="700" type="curve" smooth="yes"/>
      <point x="100" y="700" type="line" smooth="yes"/>
      <point x="65" y="700"/>
      <point x="40" y="675"/>
      <point x="40" y="640" type="curve" smooth="yes"/>
    </contour>
  </outline>
</glyph>
<glyph name="guillemotright" format="1">
  <advance width="312"/>
  <unicode hex="00BB"/>
  <outline>
    <contour>
      <point x="282" y="200" type="curve" name="hr00"/>
      <point x="282" y="210"/>
      <point x="272" y="230"/>
      <point x="272" y="230" type="curve"/>
      <point x="212" y="360" type="line" smooth="yes"/>
      <point x="207" y="370"/>
      <point x="202" y="375"/>
      <point x="192" y="375" type="curve" smooth="yes"/>
      <point x="162" y="375" type="line" smooth="yes"/>
      <point x="152" y="375"/>
      <point x="147" y="370"/>
      <point x="152" y="360" type="curve" smooth="yes"/>
      <point x="212" y="230" type="line"/>
      <point x="212" y="230"/>
      <point x="222" y="210"/>
      <point x="222" y="200" type="curve" smooth="yes"/>
      <point x="222" y="190"/>
      <point x="212" y="170"/>
      <point x="212" y="170" type="curve"/>
      <point x="152" y="40" type="line" smooth="yes"/>
      <point x="147" y="30"/>
      <point x="152" y="25"/>
      <point x="162" y="25" type="curve" smooth="yes"/>
      <point x="192" y="25" type="line" smooth="yes"/>
      <point x="202" y="25"/>
      <point x="207" y="30"/>
      <point x="212" y="40" type="curve" smooth="yes"/>
      <point x="272" y="170" type="line"/>
      <point x="272" y="170"/>
      <point x="282" y="190"/>
    </contour>
    <contour>
      <point x="162" y="200" type="curve"/>
      <point x="162" y="210"/>
      <point x="152" y="230"/>
      <point x="152" y="230" type="curve"/>
      <point x="92" y="360" type="line" smooth="yes"/>
      <point x="87" y="370"/>
      <point x="82" y="375"/>
      <point x="72" y="375" type="curve" smooth="yes"/>
      <point x="42" y="375" type="line" smooth="yes"/>
      <point x="32" y="375"/>
      <point x="27" y="370"/>
      <point x="32" y="360" type="curve" smooth="yes"/>
      <point x="92" y="230" type="line"/>
      <point x="92" y="230"/>
      <point x="102" y="210"/>
      <point x="102" y="200" type="curve" smooth="yes"/>
      <point x="102" y="190"/>
      <point x="92" y="170"/>
      <point x="92" y="170" type="curve"/>
      <point x="32" y="40" type="line" smooth="yes"/>
      <point x="27" y="30"/>
      <point x="32" y="25"/>
      <point x="42" y="25" type="curve" smooth="yes"/>
      <point x="72" y="25" type="line" smooth="yes"/>
      <point x="82" y="25"/>
      <point x="87" y="30"/>
      <point x="92" y="40" type="curve" smooth="yes"/>
      <point x="152" y="170" type="line"/>
      <point x="152" y="170"/>
      <point x="162" y="190"/>
    </contour>
  </outline>
</glyph>
<glyph name="onequarter" format="1">
  <advance width="590"/>
  <unicode hex="00BC"/>
  <outline>
    <contour>
      <point x="385" y="685" type="line" smooth="yes" name="hr00"/>
      <point x="388" y="695"/>
      <point x="385" y="700"/>
      <point x="375" y="700" type="curve" smooth="yes"/>
      <point x="345" y="700" type="line" smooth="yes"/>
      <point x="335" y="700"/>
      <point x="328" y="695"/>
      <point x="325" y="685" type="curve" smooth="yes"/>
      <point x="155" y="15" type="line" smooth="yes"/>
      <point x="152" y="5"/>
      <point x="155" y="0"/>
      <point x="165" y="0" type="curve" smooth="yes"/>
      <point x="195" y="0" type="line" smooth="yes"/>
      <point x="205" y="0"/>
      <point x="212" y="5"/>
      <point x="215" y="15" type="curve" smooth="yes"/>
    </contour>
    <contour>
      <point x="140" y="685" type="line" smooth="yes"/>
      <point x="140" y="695"/>
      <point x="135" y="700"/>
      <point x="125" y="700" type="curve" smooth="yes"/>
      <point x="45" y="700" type="line" smooth="yes"/>
      <point x="35" y="700"/>
      <point x="30" y="695"/>
      <point x="30" y="685" type="curve" smooth="yes"/>
      <point x="30" y="655" type="line" smooth="yes"/>
      <point x="30" y="645"/>
      <point x="35" y="640"/>
      <point x="45" y="640" type="curve" smooth="yes"/>
      <point x="80" y="640" type="line"/>
      <point x="80" y="315" type="line" smooth="yes"/>
      <point x="80" y="305"/>
      <point x="85" y="300"/>
      <point x="95" y="300" type="curve" smooth="yes"/>
      <point x="125" y="300" type="line" smooth="yes"/>
      <point x="135" y="300"/>
      <point x="140" y="305"/>
      <point x="140" y="315" type="curve" smooth="yes"/>
    </contour>
    <contour>
      <point x="420" y="215" type="curve"/>
      <point x="420" y="385" type="line" smooth="yes"/>
      <point x="420" y="395"/>
      <point x="415" y="400"/>
      <point x="405" y="400" type="curve" smooth="yes"/>
      <point x="375" y="400" type="line" smooth="yes"/>
      <point x="365" y="400"/>
      <point x="360" y="395"/>
      <point x="360" y="385" type="curve" smooth="yes"/>
      <point x="360" y="200" type="line" smooth="yes"/>
      <point x="360" y="165"/>
      <point x="385" y="140"/>
      <point x="420" y="140" type="curve" smooth="yes"/>
      <point x="490" y="140" type="line"/>
      <point x="490" y="15" type="line" smooth="yes"/>
      <point x="490" y="5"/>
      <point x="495" y="0"/>
      <point x="505" y="0" type="curve" smooth="yes"/>
      <point x="535" y="0" type="line" smooth="yes"/>
      <point x="545" y="0"/>
      <point x="550" y="5"/>
      <point x="550" y="15" type="curve" smooth="yes"/>
      <point x="550" y="385" type="line" smooth="yes"/>
      <point x="550" y="395"/>
      <point x="545" y="400"/>
      <point x="535" y="400" type="curve" smooth="yes"/>
      <point x="505" y="400" type="line" smooth="yes"/>
      <point x="495" y="400"/>
      <point x="490" y="395"/>
      <point x="490" y="385" type="curve" smooth="yes"/>
      <point x="490" y="200" type="line"/>
      <point x="435" y="200" type="line" smooth="yes"/>
      <point x="425" y="200"/>
      <point x="420" y="205"/>
    </contour>
  </outline>
</glyph>
<glyph name="onehalf" format="1">
  <advance width="600"/>
  <unicode hex="00BD"/>
  <outline>
    <contour>
      <point x="385" y="685" type="line" smooth="yes" name="hr00"/>
      <point x="388" y="695"/>
      <point x="385" y="700"/>
      <point x="375" y="700" type="curve" smooth="yes"/>
      <point x="345" y="700" type="line" smooth="yes"/>
      <point x="335" y="700"/>
      <point x="328" y="695"/>
      <point x="325" y="685" type="curve" smooth="yes"/>
      <point x="155" y="15" type="line" smooth="yes"/>
      <point x="152" y="5"/>
      <point x="155" y="0"/>
      <point x="165" y="0" type="curve" smooth="yes"/>
      <point x="195" y="0" type="line" smooth="yes"/>
      <point x="205" y="0"/>
      <point x="212" y="5"/>
      <point x="215" y="15" type="curve" smooth="yes"/>
    </contour>
    <contour>
      <point x="140" y="685" type="line" smooth="yes"/>
      <point x="140" y="695"/>
      <point x="135" y="700"/>
      <point x="125" y="700" type="curve" smooth="yes"/>
      <point x="45" y="700" type="line" smooth="yes"/>
      <point x="35" y="700"/>
      <point x="30" y="695"/>
      <point x="30" y="685" type="curve" smooth="yes"/>
      <point x="30" y="655" type="line" smooth="yes"/>
      <point x="30" y="645"/>
      <point x="35" y="640"/>
      <point x="45" y="640" type="curve" smooth="yes"/>
      <point x="80" y="640" type="line"/>
      <point x="80" y="315" type="line" smooth="yes"/>
      <point x="80" y="305"/>
      <point x="85" y="300"/>
      <point x="95" y="300" type="curve" smooth="yes"/>
      <point x="125" y="300" type="line" smooth="yes"/>
      <point x="135" y="300"/>
      <point x="140" y="305"/>
      <point x="140" y="315" type="curve" smooth="yes"/>
    </contour>
    <contour>
      <point x="360" y="15" type="line" smooth="yes"/>
      <point x="360" y="5"/>
      <point x="365" y="0"/>
      <point x="375" y="0" type="curve" smooth="yes"/>
      <point x="545" y="0" type="line" smooth="yes"/>
      <point x="555" y="0"/>
      <point x="560" y="5"/>
      <point x="560" y="15" type="curve" smooth="yes"/>
      <point x="560" y="45" type="line" smooth="yes"/>
      <point x="560" y="55"/>
      <point x="555" y="60"/>
      <point x="545" y="60" type="curve" smooth="yes"/>
      <point x="420" y="60" type="line"/>
      <point x="420" y="90" type="line" smooth="yes"/>
      <point x="420" y="120"/>
      <point x="430" y="130"/>
      <point x="440" y="135" type="curve" smooth="yes"/>
      <point x="520" y="180" type="line" smooth="yes"/>
      <point x="540" y="191"/>
      <point x="560" y="210"/>
      <point x="560" y="260" type="curve" smooth="yes"/>
      <point x="560" y="340" type="line" smooth="yes"/>
      <point x="560" y="375"/>
      <point x="535" y="400"/>
      <point x="500" y="400" type="curve" smooth="yes"/>
      <point x="420" y="400" type="line" smooth="yes"/>
      <point x="385" y="400"/>
      <point x="360" y="375"/>
      <point x="360" y="340" type="curve" smooth="yes"/>
      <point x="360" y="280" type="line" smooth="yes"/>
      <point x="360" y="270"/>
      <point x="365" y="265"/>
      <point x="375" y="265" type="curve" smooth="yes"/>
      <point x="405" y="265" type="line" smooth="yes"/>
      <point x="415" y="265"/>
      <point x="420" y="270"/>
      <point x="420" y="280" type="curve" smooth="yes"/>
      <point x="420" y="325" type="line" smooth="yes"/>
      <point x="420" y="335"/>
      <point x="425" y="340"/>
      <point x="435" y="340" type="curve" smooth="yes"/>
      <point x="485" y="340" type="line" smooth="yes"/>
      <point x="495" y="340"/>
      <point x="500" y="335"/>
      <point x="500" y="325" type="curve" smooth="yes"/>
      <point x="500" y="265" type="line" smooth="yes"/>
      <point x="500" y="235"/>
      <point x="490" y="225"/>
      <point x="480" y="220" type="curve" smooth="yes"/>
      <point x="400" y="175" type="line" smooth="yes"/>
      <point x="380" y="164"/>
      <point x="360" y="145"/>
      <point x="360" y="95" type="curve" smooth="yes"/>
    </contour>
  </outline>
</glyph>
<glyph name="threequarters" format="1">
  <advance width="640"/>
  <unicode hex="00BE"/>
  <outline>
    <contour>
      <point x="435" y="685" type="line" smooth="yes" name="hr00"/>
      <point x="438" y="695"/>
      <point x="435" y="700"/>
      <point x="425" y="700" type="curve" smooth="yes"/>
      <point x="395" y="700" type="line" smooth="yes"/>
      <point x="385" y="700"/>
      <point x="378" y="695"/>
      <point x="375" y="685" type="curve" smooth="yes"/>
      <point x="205" y="15" type="line" smooth="yes"/>
      <point x="202" y="5"/>
      <point x="205" y="0"/>
      <point x="215" y="0" type="curve" smooth="yes"/>
      <point x="245" y="0" type="line" smooth="yes"/>
      <point x="255" y="0"/>
      <point x="262" y="5"/>
      <point x="265" y="15" type="curve" smooth="yes"/>
    </contour>
    <contour>
      <point x="470" y="215" type="curve"/>
      <point x="470" y="385" type="line" smooth="yes"/>
      <point x="470" y="395"/>
      <point x="465" y="400"/>
      <point x="455" y="400" type="curve" smooth="yes"/>
      <point x="425" y="400" type="line" smooth="yes"/>
      <point x="415" y="400"/>
      <point x="410" y="395"/>
      <point x="410" y="385" type="curve" smooth="yes"/>
      <point x="410" y="200" type="line" smooth="yes"/>
      <point x="410" y="165"/>
      <point x="435" y="140"/>
      <point x="470" y="140" type="curve" smooth="yes"/>
      <point x="540" y="140" type="line"/>
      <point x="540" y="15" type="line" smooth="yes"/>
      <point x="540" y="5"/>
      <point x="545" y="0"/>
      <point x="555" y="0" type="curve" smooth="yes"/>
      <point x="585" y="0" type="line" smooth="yes"/>
      <point x="595" y="0"/>
      <point x="600" y="5"/>
      <point x="600" y="15" type="curve" smooth="yes"/>
      <point x="600" y="385" type="line" smooth="yes"/>
      <point x="600" y="395"/>
      <point x="595" y="400"/>
      <point x="585" y="400" type="curve" smooth="yes"/>
      <point x="555" y="400" type="line" smooth="yes"/>
      <point x="545" y="400"/>
      <point x="540" y="395"/>
      <point x="540" y="385" type="curve" smooth="yes"/>
      <point x="540" y="200" type="line"/>
      <point x="485" y="200" type="line" smooth="yes"/>
      <point x="475" y="200"/>
      <point x="470" y="205"/>
    </contour>
    <contour>
      <point x="30" y="360" type="line" smooth="yes"/>
      <point x="30" y="325"/>
      <point x="55" y="300"/>
      <point x="90" y="300" type="curve" smooth="yes"/>
      <point x="170" y="300" type="line" smooth="yes"/>
      <point x="205" y="300"/>
      <point x="230" y="325"/>
      <point x="230" y="360" type="curve" smooth="yes"/>
      <point x="230" y="460" type="line" smooth="yes"/>
      <point x="230" y="500"/>
      <point x="195" y="510"/>
      <point x="195" y="510" type="curve"/>
      <point x="195" y="510"/>
      <point x="230" y="520"/>
      <point x="230" y="560" type="curve" smooth="yes"/>
      <point x="230" y="640" type="line" smooth="yes"/>
      <point x="230" y="675"/>
      <point x="205" y="700"/>
      <point x="170" y="700" type="curve" smooth="yes"/>
      <point x="90" y="700" type="line" smooth="yes"/>
      <point x="55" y="700"/>
      <point x="30" y="675"/>
      <point x="30" y="640" type="curve" smooth="yes"/>
      <point x="30" y="580" type="line" smooth="yes"/>
      <point x="30" y="570"/>
      <point x="35" y="565"/>
      <point x="45" y="565" type="curve" smooth="yes"/>
      <point x="75" y="565" type="line" smooth="yes"/>
      <point x="85" y="565"/>
      <point x="90" y="570"/>
      <point x="90" y="580" type="curve" smooth="yes"/>
      <point x="90" y="625" type="line" smooth="yes"/>
      <point x="90" y="635"/>
      <point x="95" y="640"/>
      <point x="105" y="640" type="curve" smooth="yes"/>
      <point x="155" y="640" type="line" smooth="yes"/>
      <point x="165" y="640"/>
      <point x="170" y="635"/>
      <point x="170" y="625" type="curve" smooth="yes"/>
      <point x="170" y="555" type="line" smooth="yes"/>
      <point x="170" y="545"/>
      <point x="165" y="540"/>
      <point x="155" y="540" type="curve" smooth="yes"/>
      <point x="115" y="540" type="line" smooth="yes"/>
      <point x="105" y="540"/>
      <point x="100" y="535"/>
      <point x="100" y="525" type="curve" smooth="yes"/>
      <point x="100" y="495" type="line" smooth="yes"/>
      <point x="100" y="485"/>
      <point x="105" y="480"/>
      <point x="115" y="480" type="curve" smooth="yes"/>
      <point x="155" y="480" type="line" smooth="yes"/>
      <point x="165" y="480"/>
      <point x="170" y="475"/>
      <point x="170" y="465" type="curve" smooth="yes"/>
      <point x="170" y="375" type="line" smooth="yes"/>
      <point x="170" y="365"/>
      <point x="165" y="360"/>
      <point x="155" y="360" type="curve" smooth="yes"/>
      <point x="105" y="360" type="line" smooth="yes"/>
      <point x="95" y="360"/>
      <point x="90" y="365"/>
      <point x="90" y="375" type="curve" smooth="yes"/>
      <point x="90" y="425" type="line" smooth="yes"/>
      <point x="90" y="435"/>
      <point x="85" y="440"/>
      <point x="75" y="440" type="curve" smooth="yes"/>
      <point x="45" y="440" type="line" smooth="yes"/>
      <point x="35" y="440"/>
      <point x="30" y="435"/>
      <point x="30" y="425" type="curve" smooth="yes"/>
    </contour>
  </outline>
</glyph>
<glyph name="questiondown" format="1">
  <advance width="240"/>
  <unicode hex="00BF"/>
  <outline>
    <contour>
      <point x="160" y="245" type="line" smooth="yes" name="hr00"/>
      <point x="160" y="255"/>
      <point x="155" y="260"/>
      <point x="145" y="260" type="curve" smooth="yes"/>
      <point x="115" y="260" type="line" smooth="yes"/>
      <point x="105" y="260"/>
      <point x="100" y="255"/>
      <point x="100" y="245" type="curve" smooth="yes"/>
      <point x="100" y="185" type="line" smooth="yes"/>
      <point x="100" y="155"/>
      <point x="90" y="144"/>
      <point x="80" y="135" type="curve" smooth="yes"/>
      <point x="50" y="110" type="line" smooth="yes"/>
      <point x="30" y="92"/>
      <point x="10" y="70"/>
      <point x="10" y="20" type="curve" smooth="yes"/>
      <point x="10" y="-140" type="line" smooth="yes"/>
      <point x="10" y="-175"/>
      <point x="35" y="-200"/>
      <point x="70" y="-200" type="curve" smooth="yes"/>
      <point x="170" y="-200" type="line" smooth="yes"/>
      <point x="205" y="-200"/>
      <point x="230" y="-175"/>
      <point x="230" y="-140" type="curve" smooth="yes"/>
      <point x="230" y="-50" type="line" smooth="yes"/>
      <point x="230" y="-40"/>
      <point x="225" y="-35"/>
      <point x="215" y="-35" type="curve" smooth="yes"/>
      <point x="185" y="-35" type="line" smooth="yes"/>
      <point x="175" y="-35"/>
      <point x="170" y="-40"/>
      <point x="170" y="-50" type="curve" smooth="yes"/>
      <point x="170" y="-125" type="line" smooth="yes"/>
      <point x="170" y="-135"/>
      <point x="165" y="-140"/>
      <point x="155" y="-140" type="curve" smooth="yes"/>
      <point x="85" y="-140" type="line" smooth="yes"/>
      <point x="75" y="-140"/>
      <point x="70" y="-135"/>
      <point x="70" y="-125" type="curve" smooth="yes"/>
      <point x="70" y="10" type="line" smooth="yes"/>
      <point x="70" y="40"/>
      <point x="80" y="51"/>
      <point x="90" y="60" type="curve" smooth="yes"/>
      <point x="120" y="85" type="line" smooth="yes"/>
      <point x="140" y="103"/>
      <point x="160" y="125"/>
      <point x="160" y="175" type="curve" smooth="yes"/>
    </contour>
    <contour>
      <point x="160" y="385" type="line" smooth="yes"/>
      <point x="160" y="395"/>
      <point x="155" y="400"/>
      <point x="145" y="400" type="curve" smooth="yes"/>
      <point x="115" y="400" type="line" smooth="yes"/>
      <point x="105" y="400"/>
      <point x="100" y="395"/>
      <point x="100" y="385" type="curve" smooth="yes"/>
      <point x="100" y="355" type="line" smooth="yes"/>
      <point x="100" y="345"/>
      <point x="105" y="340"/>
      <point x="115" y="340" type="curve" smooth="yes"/>
      <point x="145" y="340" type="line" smooth="yes"/>
      <point x="155" y="340"/>
      <point x="160" y="345"/>
      <point x="160" y="355" type="curve" smooth="yes"/>
    </contour>
  </outline>
</glyph>
<glyph name="AE" format="1">
  <advance width="400"/>
  <unicode hex="00C6"/>
  <outline>
    <contour>
      <point x="95" y="130" type="line" name="hr00"/>
      <point x="190" y="130" type="line"/>
      <point x="190" y="15" type="line" smooth="yes"/>
      <point x="190" y="5"/>
      <point x="195" y="0"/>
      <point x="205" y="0" type="curve" smooth="yes"/>
      <point x="375" y="0" type="line" smooth="yes"/>
      <point x="385" y="0"/>
      <point x="390" y="5"/>
      <point x="390" y="15" type="curve" smooth="yes"/>
      <point x="390" y="45" type="line" smooth="yes"/>
      <point x="390" y="55"/>
      <point x="385" y="60"/>
      <point x="375" y="60" type="curve" smooth="yes"/>
      <point x="250" y="60" type="line"/>
      <point x="250" y="370" type="line"/>
      <point x="335" y="370" type="line" smooth="yes"/>
      <point x="345" y="370"/>
      <point x="350" y="375"/>
      <point x="350" y="385" type="curve" smooth="yes"/>
      <point x="350" y="415" type="line" smooth="yes"/>
      <point x="350" y="425"/>
      <point x="345" y="430"/>
      <point x="335" y="430" type="curve" smooth="yes"/>
      <point x="250" y="430" type="line"/>
      <point x="250" y="640" type="line"/>
      <point x="375" y="640" type="line" smooth="yes"/>
      <point x="385" y="640"/>
      <point x="390" y="645"/>
      <point x="390" y="655" type="curve" smooth="yes"/>
      <point x="390" y="685" type="line" smooth="yes"/>
      <point x="390" y="695"/>
      <point x="385" y="700"/>
      <point x="375" y="700" type="curve" smooth="yes"/>
      <point x="120" y="700" type="line" smooth="yes"/>
      <point x="110" y="700"/>
      <point x="106" y="695"/>
      <point x="105" y="685" type="curve" smooth="yes"/>
      <point x="20" y="15" type="line"/>
      <point x="20" y="5"/>
      <point x="25" y="0"/>
      <point x="35" y="0" type="curve" smooth="yes"/>
      <point x="65" y="0" type="line" smooth="yes"/>
      <point x="75" y="0"/>
      <point x="79" y="5"/>
      <point x="80" y="15" type="curve" smooth="yes"/>
    </contour>
    <contour>
      <point x="155" y="640" type="line"/>
      <point x="190" y="640" type="line"/>
      <point x="190" y="190" type="line"/>
      <point x="100" y="190" type="line"/>
    </contour>
  </outline>
</glyph>
<glyph name="Ccedilla" format="1">
  <advance width="300"/>
  <unicode hex="00C7"/>
  <outline>
    <contour>
      <point x="167" y="-170" type="line" smooth="yes" name="hr00"/>
      <point x="202" y="-170"/>
      <point x="227" y="-145"/>
      <point x="227" y="-110" type="curve" smooth="yes"/>
      <point x="227" y="-100" type="line" smooth="yes"/>
      <point x="227" y="-65"/>
      <point x="202" y="-40"/>
      <point x="167" y="-40" type="curve"/>
      <point x="179" y="0" type="line"/>
      <point x="210" y="0" type="line" smooth="yes"/>
      <point x="245" y="0"/>
      <point x="270" y="25"/>
      <point x="270" y="60" type="curve" smooth="yes"/>
      <point x="270" y="175" type="line" smooth="yes"/>
      <point x="270" y="185"/>
      <point x="265" y="190"/>
      <point x="255" y="190" type="curve" smooth="yes"/>
      <point x="225" y="190" type="line" smooth="yes"/>
      <point x="215" y="190"/>
      <point x="210" y="185"/>
      <point x="210" y="175" type="curve" smooth="yes"/>
      <point x="210" y="75" type="line" smooth="yes"/>
      <point x="210" y="65"/>
      <point x="205" y="60"/>
      <point x="195" y="60" type="curve" smooth="yes"/>
      <point x="125" y="60" type="line" smooth="yes"/>
      <point x="115" y="60"/>
      <point x="110" y="65"/>
      <point x="110" y="75" type="curve" smooth="yes"/>
      <point x="110" y="625" type="line" smooth="yes"/>
      <point x="110" y="635"/>
      <point x="115" y="640"/>
      <point x="125" y="640" type="curve" smooth="yes"/>
      <point x="195" y="640" type="line" smooth="yes"/>
      <point x="205" y="640"/>
      <point x="210" y="635"/>
      <point x="210" y="625" type="curve" smooth="yes"/>
      <point x="210" y="530" type="line" smooth="yes"/>
      <point x="210" y="520"/>
      <point x="215" y="515"/>
      <point x="225" y="515" type="curve" smooth="yes"/>
      <point x="255" y="515" type="line" smooth="yes"/>
      <point x="265" y="515"/>
      <point x="270" y="520"/>
      <point x="270" y="530" type="curve" smooth="yes"/>
      <point x="270" y="640" type="line" smooth="yes"/>
      <point x="270" y="675"/>
      <point x="245" y="700"/>
      <point x="210" y="700" type="curve" smooth="yes"/>
      <point x="110" y="700" type="line" smooth="yes"/>
      <point x="75" y="700"/>
      <point x="50" y="675"/>
      <point x="50" y="640" type="curve" smooth="yes"/>
      <point x="50" y="60" type="line" smooth="yes"/>
      <point x="50" y="25"/>
      <point x="75" y="0"/>
      <point x="110" y="0" type="curve" smooth="yes"/>
      <point x="144" y="0" type="line"/>
      <point x="122" y="-70" type="line"/>
      <point x="118" y="-80"/>
      <point x="122" y="-85"/>
      <point x="132" y="-85" type="curve" smooth="yes"/>
      <point x="167" y="-85" type="line" smooth="yes"/>
      <point x="177" y="-85"/>
      <point x="182" y="-90"/>
      <point x="182" y="-100" type="curve" smooth="yes"/>
      <point x="182" y="-110" type="line" smooth="yes"/>
      <point x="182" y="-120"/>
      <point x="177" y="-125"/>
      <point x="167" y="-125" type="curve" smooth="yes"/>
      <point x="127" y="-125" type="line" smooth="yes"/>
      <point x="117" y="-125"/>
      <point x="112" y="-130"/>
      <point x="112" y="-140" type="curve" smooth="yes"/>
      <point x="112" y="-155" type="line" smooth="yes"/>
      <point x="112" y="-165"/>
      <point x="117" y="-170"/>
      <point x="127" y="-170" type="curve" smooth="yes"/>
    </contour>
  </outline>
</glyph>
<glyph name="Eth" format="1">
  <advance width="330"/>
  <unicode hex="00D0"/>
  <outline>
    <contour>
      <point x="60" y="15" type="line" smooth="yes" name="hr00"/>
      <point x="60" y="5"/>
      <point x="65" y="0"/>
      <point x="75" y="0" type="curve" smooth="yes"/>
      <point x="220" y="0" type="line" smooth="yes"/>
      <point x="255" y="0"/>
      <point x="280" y="25"/>
      <point x="280" y="60" type="curve" smooth="yes"/>
      <point x="280" y="640" type="line" smooth="yes"/>
      <point x="280" y="675"/>
      <point x="255" y="700"/>
      <point x="220" y="700" type="curve" smooth="yes"/>
      <point x="75" y="700" type="line" smooth="yes"/>
      <point x="65" y="700"/>
      <point x="60" y="695"/>
      <point x="60" y="685" type="curve" smooth="yes"/>
      <point x="60" y="390" type="line"/>
      <point x="35" y="390" type="line" smooth="yes"/>
      <point x="25" y="390"/>
      <point x="20" y="385"/>
      <point x="20" y="375" type="curve" smooth="yes"/>
      <point x="20" y="345" type="line" smooth="yes"/>
      <point x="20" y="335"/>
      <point x="25" y="330"/>
      <point x="35" y="330" type="curve" smooth="yes"/>
      <point x="60" y="330" type="line"/>
    </contour>
    <contour>
      <point x="145" y="330" type="line" smooth="yes"/>
      <point x="155" y="330"/>
      <point x="160" y="335"/>
      <point x="160" y="345" type="curve" smooth="yes"/>
      <point x="160" y="375" type="line" smooth="yes"/>
      <point x="160" y="385"/>
      <point x="155" y="390"/>
      <point x="145" y="390" type="curve" smooth="yes"/>
      <point x="120" y="390" type="line"/>
      <point x="120" y="640" type="line"/>
      <point x="205" y="640" type="line" smooth="yes"/>
      <point x="215" y="640"/>
      <point x="220" y="635"/>
      <point x="220" y="625" type="curve" smooth="yes"/>
      <point x="220" y="75" type="line" smooth="yes"/>
      <point x="220" y="65"/>
      <point x="215" y="60"/>
      <point x="205" y="60" type="curve" smooth="yes"/>
      <point x="120" y="60" type="line"/>
      <point x="120" y="330" type="line"/>
    </contour>
  </outline>
</glyph>
<glyph name="multiply" format="1">
  <advance width="348"/>
  <unicode hex="00D7"/>
  <outline>
    <contour>
      <point x="24" y="165" type="line" smooth="yes"/>
      <point x="19" y="160"/>
      <point x="19" y="145"/>
      <point x="24" y="140" type="curve" smooth="yes"/>
      <point x="44" y="120" type="line" smooth="yes"/>
      <point x="49" y="115"/>
      <point x="64" y="114"/>
      <point x="69" y="120" type="curve" smooth="yes"/>
      <point x="174" y="225" type="line"/>
      <point x="279" y="120" type="line" smooth="yes"/>
      <point x="284" y="114"/>
      <point x="299" y="115"/>
      <point x="304" y="120" type="curve" smooth="yes"/>
      <point x="324" y="140" type="line" smooth="yes"/>
      <point x="329" y="145"/>
      <point x="329" y="160"/>
      <point x="324" y="165" type="curve" smooth="yes"/>
      <point x="219" y="270" type="line"/>
      <point x="324" y="375" type="line" smooth="yes"/>
      <point x="329" y="380"/>
      <point x="329" y="395"/>
      <point x="324" y="400" type="curve" smooth="yes"/>
      <point x="304" y="420" type="line" smooth="yes"/>
      <point x="299" y="425"/>
      <point x="285" y="426"/>
      <point x="279" y="420" type="curve" smooth="yes"/>
      <point x="174" y="315" type="line"/>
      <point x="69" y="420" type="line" smooth="yes"/>
      <point x="63" y="426"/>
      <point x="49" y="425"/>
      <point x="44" y="420" type="curve" smooth="yes"/>
      <point x="24" y="400" type="line" smooth="yes"/>
      <point x="19" y="395"/>
      <point x="19" y="380"/>
      <point x="24" y="375" type="curve" smooth="yes"/>
      <point x="129" y="270" type="line"/>
    </contour>
  </outline>
</glyph>
